STARTFONT 2.1
FONT -FontForge-FreeMono-Bold-R-Normal--30-290-75-75-P-167-ISO10646-1
SIZE 29 75 75
FONTBOUNDINGBOX 40 31 -18 -6
COMMENT "Generated by fontforge, http://fontforge.sourceforge.net"
COMMENT "Copyright 2002, 2003, 2005, 2008, 2009, 2010, 2012 GNU Freefont contributors."
STARTPROPERTIES 40
FOUNDRY "FontForge"
FAMILY_NAME "FreeMono"
WEIGHT_NAME "Bold"
SLANT "R"
SETWIDTH_NAME "Normal"
ADD_STYLE_NAME ""
PIXEL_SIZE 30
POINT_SIZE 290
RESOLUTION_X 75
RESOLUTION_Y 75
SPACING "P"
AVERAGE_WIDTH 167
CHARSET_REGISTRY "ISO10646"
CHARSET_ENCODING "1"
FONTNAME_REGISTRY ""
CHARSET_COLLECTIONS "ASCII ISOLatin1Encoding ISO8859-2 ISO8859-5 ISO8859-7 ISO8859-9 ISO8859-8 ISO8859-4 ISO10646-1"
FONT_NAME "FreeMonoBold"
FACE_NAME "FreeMono Bold"
COPYRIGHT "Copyright 2002, 2003, 2005, 2008, 2009, 2010, 2012 GNU Freefont contributors."
FONT_VERSION "0412.2261"
FONT_ASCENT 24
FONT_DESCENT 6
UNDERLINE_POSITION -3
UNDERLINE_THICKNESS 2
X_HEIGHT 12
CAP_HEIGHT 16
RAW_ASCENT 800
RAW_DESCENT 200
NORM_SPACE 18
RELATIVE_WEIGHT 70
RELATIVE_SETWIDTH 50
SUPERSCRIPT_X -4
SUPERSCRIPT_Y 14
SUPERSCRIPT_SIZE 20
SUBSCRIPT_X 1
SUBSCRIPT_Y 4
SUBSCRIPT_SIZE 20
FIGURE_WIDTH 18
AVG_LOWERCASE_WIDTH 179
AVG_UPPERCASE_WIDTH 180
ENDPROPERTIES
CHARS 2035
STARTCHAR space
ENCODING 32
SWIDTH 600 0
DWIDTH 18 0
BBX 1 1 0 0
BITMAP
00
ENDCHAR
STARTCHAR exclam
ENCODING 33
SWIDTH 600 0
DWIDTH 18 0
BBX 4 19 7 0
BITMAP
F0
F0
F0
F0
F0
F0
F0
F0
F0
F0
F0
F0
60
00
00
20
F0
F0
F0
ENDCHAR
STARTCHAR quotedbl
ENCODING 34
SWIDTH 600 0
DWIDTH 18 0
BBX 10 8 4 10
BITMAP
F3C0
F3C0
F3C0
71C0
6180
6180
6180
6180
ENDCHAR
STARTCHAR numbersign
ENCODING 35
SWIDTH 600 0
DWIDTH 18 0
BBX 14 23 2 -3
BITMAP
0C70
0E70
0E70
1C70
1C70
1CF0
1CE0
7FFC
FFFC
3FF8
1CE0
1CE0
1CE0
FFF8
FFFC
7FF8
1CE0
1CE0
38E0
39E0
39C0
39C0
1080
ENDCHAR
STARTCHAR dollar
ENCODING 36
SWIDTH 600 0
DWIDTH 18 0
BBX 13 24 2 -4
BITMAP
0300
0380
07C0
1FF8
3FF8
7C78
7038
7000
7C00
3FC0
1FF0
07F8
0078
6038
7038
F038
FFF8
7FF0
7FE0
0380
0380
0380
0300
0300
ENDCHAR
STARTCHAR percent
ENCODING 37
SWIDTH 600 0
DWIDTH 18 0
BBX 14 18 2 0
BITMAP
3F00
7F00
6180
6180
6180
7380
3F08
1EFC
07E0
3F00
F9E0
43F0
0738
0618
0618
0618
03F8
03F0
ENDCHAR
STARTCHAR ampersand
ENCODING 38
SWIDTH 600 0
DWIDTH 18 0
BBX 13 16 2 0
BITMAP
0FE0
1FE0
3FC0
3800
3800
3C00
1E00
3E00
7F78
7FF8
F3F0
E3F0
E1E0
7FF8
7FF8
3FF8
ENDCHAR
STARTCHAR quotesingle
ENCODING 39
SWIDTH 600 0
DWIDTH 18 0
BBX 4 8 7 10
BITMAP
F0
F0
F0
70
60
60
60
60
ENDCHAR
STARTCHAR parenleft
ENCODING 40
SWIDTH 600 0
DWIDTH 18 0
BBX 7 23 8 -4
BITMAP
0C
1E
1C
3C
38
78
70
70
F0
E0
E0
E0
E0
E0
F0
F0
70
70
78
38
3C
1C
1E
ENDCHAR
STARTCHAR parenright
ENCODING 41
SWIDTH 600 0
DWIDTH 18 0
BBX 6 23 4 -4
BITMAP
C0
E0
F0
F0
78
78
38
3C
3C
1C
1C
1C
1C
1C
1C
3C
38
38
78
70
F0
E0
E0
ENDCHAR
STARTCHAR asterisk
ENCODING 42
SWIDTH 600 0
DWIDTH 18 0
BBX 14 13 2 6
BITMAP
0200
0300
0780
0780
77B8
FFFC
7FF8
0FC0
0FC0
1FE0
1CE0
3CF0
1860
ENDCHAR
STARTCHAR plus
ENCODING 43
SWIDTH 600 0
DWIDTH 18 0
BBX 16 17 1 0
BITMAP
0180
0180
03C0
03C0
03C0
03C0
03C0
7FFE
FFFF
7FFE
03C0
03C0
03C0
03C0
03C0
0180
0180
ENDCHAR
STARTCHAR comma
ENCODING 44
SWIDTH 600 0
DWIDTH 18 0
BBX 6 9 4 -5
BITMAP
3C
3C
38
38
70
70
60
E0
40
ENDCHAR
STARTCHAR hyphen
ENCODING 45
SWIDTH 600 0
DWIDTH 18 0
BBX 16 3 1 7
BITMAP
7FFE
FFFF
7FFE
ENDCHAR
STARTCHAR period
ENCODING 46
SWIDTH 600 0
DWIDTH 18 0
BBX 4 4 7 0
BITMAP
20
F0
F0
F0
ENDCHAR
STARTCHAR slash
ENCODING 47
SWIDTH 600 0
DWIDTH 18 0
BBX 13 24 3 -3
BITMAP
0030
0078
0070
00F0
00E0
00E0
01C0
01C0
0380
0380
0700
0700
0F00
0E00
1E00
1C00
3C00
3800
7800
7000
F000
E000
E000
C000
ENDCHAR
STARTCHAR zero
ENCODING 48
SWIDTH 600 0
DWIDTH 18 0
BBX 14 19 2 0
BITMAP
0FC0
1FE0
3FF0
7878
7038
7038
7038
E038
E01C
E01C
E01C
E03C
7038
7038
7038
7878
3FF0
3FE0
0FC0
ENDCHAR
STARTCHAR one
ENCODING 49
SWIDTH 600 0
DWIDTH 18 0
BBX 14 19 2 0
BITMAP
0780
1F80
3F80
7F80
7780
0780
0780
0780
0780
0780
0780
0780
0780
0780
0780
0780
7FF8
FFFC
7FF8
ENDCHAR
STARTCHAR two
ENCODING 50
SWIDTH 600 0
DWIDTH 18 0
BBX 13 19 2 0
BITMAP
0FC0
3FE0
7FF0
7078
F038
E038
0038
0078
00F0
01E0
03C0
0780
0F00
3E00
7C10
F838
FFF8
FFF8
FFF8
ENDCHAR
STARTCHAR three
ENCODING 51
SWIDTH 600 0
DWIDTH 18 0
BBX 14 19 2 0
BITMAP
0FC0
3FF0
7FF0
7078
2038
0038
0038
00F0
07E0
07E0
01F8
0038
001C
001C
001C
403C
FFF8
FFF0
7FE0
ENDCHAR
STARTCHAR four
ENCODING 52
SWIDTH 600 0
DWIDTH 18 0
BBX 13 19 2 0
BITMAP
01E0
01E0
03E0
03E0
07E0
0FE0
0EE0
1EE0
1CE0
38E0
78E0
70E0
FFF8
FFF8
FFF8
00E0
03F8
07F8
03F8
ENDCHAR
STARTCHAR five
ENCODING 53
SWIDTH 600 0
DWIDTH 18 0
BBX 14 19 2 0
BITMAP
3FE0
3FF8
3FF0
3800
3800
3800
3B80
3FE0
3FF0
3C78
0038
001C
001C
001C
001C
E038
FFF8
FFF0
3FE0
ENDCHAR
STARTCHAR six
ENCODING 54
SWIDTH 600 0
DWIDTH 18 0
BBX 13 19 3 0
BITMAP
03F0
07F8
1FF8
1E00
3C00
7800
7000
F380
EFE0
FFF0
FCF0
F078
F038
F038
7038
7878
3FF0
3FF0
1FE0
ENDCHAR
STARTCHAR seven
ENCODING 55
SWIDTH 600 0
DWIDTH 18 0
BBX 13 19 2 0
BITMAP
FFF8
FFF8
FFF8
E038
6038
0078
0070
0070
00F0
00E0
00E0
01E0
01C0
01C0
03C0
0380
0380
0780
0300
ENDCHAR
STARTCHAR eight
ENCODING 56
SWIDTH 600 0
DWIDTH 18 0
BBX 14 19 2 0
BITMAP
0FC0
1FE0
3FF0
7878
7038
7038
7038
7878
3FF0
1FE0
3FF0
7878
7038
F038
F03C
7038
7FF8
3FF0
1FE0
ENDCHAR
STARTCHAR nine
ENCODING 57
SWIDTH 600 0
DWIDTH 18 0
BBX 13 19 3 0
BITMAP
1F80
3FE0
7FF0
70F0
F078
E038
E038
F078
70F8
7FF8
3FF8
1F38
0078
0070
00F0
01E0
7FC0
FF80
7F00
ENDCHAR
STARTCHAR colon
ENCODING 58
SWIDTH 600 0
DWIDTH 18 0
BBX 4 13 7 0
BITMAP
F0
F0
F0
60
00
00
00
00
00
20
F0
F0
F0
ENDCHAR
STARTCHAR semicolon
ENCODING 59
SWIDTH 600 0
DWIDTH 18 0
BBX 6 18 4 -5
BITMAP
1C
3C
3C
1C
00
00
00
00
00
3C
3C
38
38
70
70
60
E0
40
ENDCHAR
STARTCHAR less
ENCODING 60
SWIDTH 600 0
DWIDTH 18 0
BBX 15 13 1 2
BITMAP
0006
001E
007E
01F8
0FE0
3F80
FE00
3F00
0FC0
03F0
00FC
003E
000E
ENDCHAR
STARTCHAR equal
ENCODING 61
SWIDTH 600 0
DWIDTH 18 0
BBX 16 9 1 4
BITMAP
7FFC
FFFF
FFFF
0000
0000
0000
FFFE
FFFF
7FFE
ENDCHAR
STARTCHAR greater
ENCODING 62
SWIDTH 600 0
DWIDTH 18 0
BBX 14 13 2 2
BITMAP
C000
F000
FC00
3F00
0FC0
03F0
00FC
01F8
07E0
1F80
7E00
F800
E000
ENDCHAR
STARTCHAR question
ENCODING 63
SWIDTH 600 0
DWIDTH 18 0
BBX 13 18 3 0
BITMAP
1F80
7FE0
FFF0
F0F0
E070
E038
0070
00F0
03F0
07E0
0780
0700
0600
0000
0200
0F00
0F00
0F00
ENDCHAR
STARTCHAR at
ENCODING 64
SWIDTH 600 0
DWIDTH 18 0
BBX 13 24 2 -5
BITMAP
0300
0FC0
1FE0
3870
7030
6038
6038
E0F8
E3F8
E7F8
E738
E638
E638
E638
E7F8
E3F8
E1F8
6000
6000
7000
3830
3FF0
0FE0
0300
ENDCHAR
STARTCHAR A
ENCODING 65
SWIDTH 600 0
DWIDTH 18 0
BBX 20 17 -1 0
BITMAP
1FF000
1FF000
07F800
01F800
03FC00
039C00
079E00
070E00
070E00
0FFF00
0FFF00
1FFF80
1C0380
1C0380
7F0FE0
FF1FF0
7F0FE0
ENDCHAR
STARTCHAR B
ENCODING 66
SWIDTH 600 0
DWIDTH 18 0
BBX 17 17 0 0
BITMAP
FFFC00
FFFE00
3FFE00
1C0700
1C0700
1C0F00
1C1E00
1FFC00
1FFE00
1FFF00
1C0780
1C0380
1C0380
1C0780
7FFF80
FFFF00
7FFC00
ENDCHAR
STARTCHAR C
ENCODING 67
SWIDTH 600 0
DWIDTH 18 0
BBX 16 18 1 0
BITMAP
03E0
0FFE
3FFE
3C3E
780E
F006
E006
E000
E000
E000
E000
E000
E000
7002
780F
3FFF
1FFE
0FF8
ENDCHAR
STARTCHAR D
ENCODING 68
SWIDTH 600 0
DWIDTH 18 0
BBX 17 17 0 0
BITMAP
FFF800
FFFC00
3FFE00
380E00
380F00
380700
380700
380700
380780
380780
380700
380700
380F00
381E00
7FFE00
FFFC00
7FF000
ENDCHAR
STARTCHAR E
ENCODING 69
SWIDTH 600 0
DWIDTH 18 0
BBX 17 17 0 0
BITMAP
FFFF00
FFFF00
3FFF00
1C0700
1C0700
1CE600
1CE000
1FE000
1FE000
1FE000
1CE000
1C6300
1C0780
1C0780
7FFF80
FFFF80
7FFF80
ENDCHAR
STARTCHAR F
ENCODING 70
SWIDTH 600 0
DWIDTH 18 0
BBX 17 17 0 0
BITMAP
FFFF80
FFFF80
3FFF80
1C0780
1C0300
1C6300
1CE000
1FE000
1FE000
1FE000
1CE000
1C6000
1C0000
1C0000
7FC000
FFE000
7FC000
ENDCHAR
STARTCHAR G
ENCODING 71
SWIDTH 600 0
DWIDTH 18 0
BBX 17 18 1 0
BITMAP
03E600
0FFE00
3FFF00
3C1F00
780F00
F00600
E00000
E00000
E00000
E00000
E0FF80
E0FF80
E07F00
F00F00
780F00
3FFF00
3FFF00
0FF800
ENDCHAR
STARTCHAR H
ENCODING 72
SWIDTH 600 0
DWIDTH 18 0
BBX 16 17 1 0
BITMAP
FE7F
FE7F
3C1C
381C
381C
381C
381C
3FFC
3FFC
3FFC
381C
381C
381C
381C
FE7F
FE7F
FE7F
ENDCHAR
STARTCHAR I
ENCODING 73
SWIDTH 600 0
DWIDTH 18 0
BBX 14 17 2 0
BITMAP
7FF8
7FF8
3FF0
0780
0780
0780
0780
0780
0780
0780
0780
0780
0780
0780
7FF8
FFFC
7FF8
ENDCHAR
STARTCHAR J
ENCODING 74
SWIDTH 600 0
DWIDTH 18 0
BBX 16 17 2 0
BITMAP
0FFF
0FFF
03FE
0038
0038
0038
0038
0038
0038
C038
E038
E038
E038
E070
FFF0
FFE0
3FC0
ENDCHAR
STARTCHAR K
ENCODING 75
SWIDTH 600 0
DWIDTH 18 0
BBX 18 17 0 0
BITMAP
FFBF80
FFBF80
3E1F00
1C3C00
1C7800
1CF000
1FE000
1FE000
1FF000
1EF800
1C7800
1C3C00
1C1C00
1C1E00
7F0FC0
FF8FC0
7F07C0
ENDCHAR
STARTCHAR L
ENCODING 76
SWIDTH 600 0
DWIDTH 18 0
BBX 16 17 1 0
BITMAP
FFC0
FFC0
7F80
0E00
0E00
0E00
0E00
0E00
0E00
0E03
0E07
0E07
0E07
0E07
FFFF
FFFF
FFFF
ENDCHAR
STARTCHAR M
ENCODING 77
SWIDTH 600 0
DWIDTH 18 0
BBX 20 17 -1 0
BITMAP
7C03E0
7E07E0
3E07C0
3F0FC0
3F0FC0
3F9FC0
3B9DC0
3BDDC0
39F9C0
39F9C0
38F9C0
38F1C0
3871C0
3801C0
7F0FE0
FF0FF0
7F0FE0
ENDCHAR
STARTCHAR N
ENCODING 78
SWIDTH 600 0
DWIDTH 18 0
BBX 18 17 0 0
BITMAP
FC3FC0
FE3FC0
3E0F00
3F0700
3F0700
3F8700
3BC700
39C700
39E700
38F700
387700
387F00
383F00
381F00
7F1F00
FF0F00
7F0700
ENDCHAR
STARTCHAR O
ENCODING 79
SWIDTH 600 0
DWIDTH 18 0
BBX 16 18 1 0
BITMAP
07C0
0FF0
3FFC
7C3E
781E
F00F
E007
E007
E007
E007
E007
E007
E007
700E
781E
3FFC
1FF8
0FF0
ENDCHAR
STARTCHAR P
ENCODING 80
SWIDTH 600 0
DWIDTH 18 0
BBX 16 17 0 0
BITMAP
FFF8
FFFC
3FFE
1C0F
1C07
1C07
1C0F
1C1E
1FFE
1FFC
1FF0
1C00
1C00
1C00
7FC0
FFE0
7FC0
ENDCHAR
STARTCHAR Q
ENCODING 81
SWIDTH 600 0
DWIDTH 18 0
BBX 16 22 1 -4
BITMAP
07E0
0FF0
3FFC
7C3E
781E
F00F
E007
E007
E007
E007
E007
E007
E007
700E
781E
3FFC
1FF8
0FE0
0E00
1FFF
1FFF
1FFE
ENDCHAR
STARTCHAR R
ENCODING 82
SWIDTH 600 0
DWIDTH 18 0
BBX 18 17 0 0
BITMAP
FFF800
FFFC00
3FFE00
1C0E00
1C0E00
1C0E00
1C1E00
1FFC00
1FF800
1FF000
1C7800
1C3C00
1C1E00
1C0F00
FF0FC0
FF87C0
FF03C0
ENDCHAR
STARTCHAR S
ENCODING 83
SWIDTH 600 0
DWIDTH 18 0
BBX 14 18 2 0
BITMAP
0FD8
3FF8
7FFC
787C
703C
F018
7018
7C00
3FE0
1FF0
03F8
003C
C01C
E01C
F03C
FFFC
FFF8
DFE0
ENDCHAR
STARTCHAR T
ENCODING 84
SWIDTH 600 0
DWIDTH 18 0
BBX 16 17 1 0
BITMAP
FFFF
FFFF
FFFF
E387
E387
E387
E387
0380
0380
0380
0380
0380
0380
0380
1FF8
1FF8
1FF8
ENDCHAR
STARTCHAR U
ENCODING 85
SWIDTH 600 0
DWIDTH 18 0
BBX 18 17 0 0
BITMAP
FF3FC0
FF3FC0
3E0F00
380700
380700
380700
380700
380700
380700
380700
380700
380700
380700
1C0E00
1FFE00
0FFC00
07F800
ENDCHAR
STARTCHAR V
ENCODING 86
SWIDTH 600 0
DWIDTH 18 0
BBX 20 17 -1 0
BITMAP
FF0FF0
FF0FF0
3E03C0
1C0380
1E0380
0E0700
0E0700
0F0E00
070E00
079E00
039C00
03DC00
01F800
01F800
01F800
00F000
00F000
ENDCHAR
STARTCHAR W
ENCODING 87
SWIDTH 600 0
DWIDTH 18 0
BBX 18 17 0 0
BITMAP
FF3FC0
FF3FC0
7C0F80
700380
71E380
79E380
39F700
3BF700
3BF700
3BFF00
3F3F00
3F3F00
3F3F00
3E1F00
1E1E00
1E1E00
1C0E00
ENDCHAR
STARTCHAR X
ENCODING 88
SWIDTH 600 0
DWIDTH 18 0
BBX 18 17 0 0
BITMAP
7E1F80
7E1F80
3C0F00
1E1E00
0F3C00
07F800
03F000
01E000
01E000
03F000
07F800
0F3C00
1E1E00
3C0F00
7E1F80
FF3FC0
7E1F80
ENDCHAR
STARTCHAR Y
ENCODING 89
SWIDTH 600 0
DWIDTH 18 0
BBX 16 17 1 0
BITMAP
FC3F
FC3F
781E
3C3C
1E78
0E70
0FF0
07E0
03C0
03C0
03C0
03C0
03C0
03C0
1FF8
1FF8
1FF8
ENDCHAR
STARTCHAR Z
ENCODING 90
SWIDTH 600 0
DWIDTH 18 0
BBX 14 17 2 0
BITMAP
7FF8
7FF8
7FF8
70F0
70F0
71E0
23C0
0780
0700
0F00
1E1C
3C1C
781C
701C
FFFC
FFFC
FFFC
ENDCHAR
STARTCHAR bracketleft
ENCODING 91
SWIDTH 600 0
DWIDTH 18 0
BBX 7 23 7 -4
BITMAP
FC
FE
FE
F0
F0
F0
F0
F0
F0
F0
F0
F0
F0
F0
F0
F0
F0
F0
F0
F0
FC
FE
FE
ENDCHAR
STARTCHAR backslash
ENCODING 92
SWIDTH 600 0
DWIDTH 18 0
BBX 13 24 2 -3
BITMAP
6000
F000
7000
7000
3800
3800
1C00
1C00
0E00
0E00
0700
0700
0780
0380
03C0
01C0
01E0
00E0
00F0
0070
0078
0038
0038
0018
ENDCHAR
STARTCHAR bracketright
ENCODING 93
SWIDTH 600 0
DWIDTH 18 0
BBX 7 23 4 -4
BITMAP
7E
FE
FE
1E
1E
1E
1E
1E
1E
1E
1E
1E
1E
1E
1E
1E
1E
1E
1E
1E
3E
FE
FE
ENDCHAR
STARTCHAR asciicircum
ENCODING 94
SWIDTH 600 0
DWIDTH 18 0
BBX 13 9 2 10
BITMAP
0300
0780
0FC0
0FC0
1FE0
3CF0
7878
F038
6018
ENDCHAR
STARTCHAR underscore
ENCODING 95
SWIDTH 600 0
DWIDTH 18 0
BBX 18 3 0 -6
BITMAP
FFFFC0
FFFFC0
FFFFC0
ENDCHAR
STARTCHAR grave
ENCODING 96
SWIDTH 600 0
DWIDTH 18 0
BBX 5 5 5 15
BITMAP
C0
E0
70
38
18
ENDCHAR
STARTCHAR a
ENCODING 97
SWIDTH 600 0
DWIDTH 18 0
BBX 16 13 1 0
BITMAP
3FF0
3FF8
3FF8
001C
03DC
1FFC
3FFC
781C
F01C
F03C
FFFF
7FFF
3FDF
ENDCHAR
STARTCHAR b
ENCODING 98
SWIDTH 600 0
DWIDTH 18 0
BBX 17 19 0 0
BITMAP
780000
F80000
F80000
380000
380000
380000
3BFC00
3FFE00
3FBF00
3E0780
3C0380
380380
380380
380380
3C0380
3E0700
FFFF00
FFFE00
FBFC00
ENDCHAR
STARTCHAR c
ENCODING 99
SWIDTH 600 0
DWIDTH 18 0
BBX 15 14 2 0
BITMAP
0100
1FFC
3FFC
7FFC
F01C
E01C
E00C
E000
E000
E000
F00E
7FFE
7FFC
1FF8
ENDCHAR
STARTCHAR d
ENCODING 100
SWIDTH 600 0
DWIDTH 18 0
BBX 17 19 1 0
BITMAP
001E00
007E00
003E00
000E00
000E00
010E00
1FEE00
3FFE00
7EFE00
701E00
E01E00
E00E00
E00E00
E00E00
F01E00
783E00
7FFF80
3FFF80
1FEF80
ENDCHAR
STARTCHAR e
ENCODING 101
SWIDTH 600 0
DWIDTH 18 0
BBX 16 13 1 0
BITMAP
0FF0
3FF8
7FFC
781E
F00E
FFFE
FFFE
FFFF
F000
7800
7FFE
3FFE
0FFC
ENDCHAR
STARTCHAR f
ENCODING 102
SWIDTH 600 0
DWIDTH 18 0
BBX 15 19 2 0
BITMAP
00E8
03FE
07FE
0F8C
0E00
0E00
7FF8
7FF8
7FF8
0E00
0E00
0E00
0E00
0E00
0E00
0E00
7FF8
FFF8
7FF8
ENDCHAR
STARTCHAR g
ENCODING 103
SWIDTH 600 0
DWIDTH 18 0
BBX 17 20 1 -6
BITMAP
020000
1FFF00
3FFF80
7FFF00
703C00
E01C00
E01C00
E01C00
E01C00
F01C00
703C00
7FFC00
3FFC00
1FFC00
001C00
001C00
003C00
0FF800
1FF800
0FE000
ENDCHAR
STARTCHAR h
ENCODING 104
SWIDTH 600 0
DWIDTH 18 0
BBX 17 19 0 0
BITMAP
3C0000
FC0000
7C0000
1C0000
1C0000
1C0000
1DF800
1FFC00
1FFE00
1E0E00
1C0E00
1C0E00
1C0E00
1C0E00
1C0E00
1C0E00
7F3F80
7F3F80
7F3F80
ENDCHAR
STARTCHAR i
ENCODING 105
SWIDTH 600 0
DWIDTH 18 0
BBX 14 19 2 0
BITMAP
0700
0700
0700
0000
0000
0000
7F80
7F80
3F80
0780
0780
0780
0780
0780
0780
0780
FFFC
FFFC
FFFC
ENDCHAR
STARTCHAR j
ENCODING 106
SWIDTH 600 0
DWIDTH 18 0
BBX 11 25 3 -6
BITMAP
0780
0780
0780
0000
0000
0000
FFE0
FFE0
FFE0
00E0
00E0
00E0
00E0
00E0
00E0
00E0
00E0
00E0
00E0
00E0
00E0
01C0
FFC0
FF80
FE00
ENDCHAR
STARTCHAR k
ENCODING 107
SWIDTH 600 0
DWIDTH 18 0
BBX 16 19 1 0
BITMAP
7800
F800
F800
3800
3800
3800
38FC
39FE
38FC
39E0
3FC0
3F80
3F80
3FC0
39E0
38F8
F87F
F87F
F87F
ENDCHAR
STARTCHAR l
ENCODING 108
SWIDTH 600 0
DWIDTH 18 0
BBX 14 19 2 0
BITMAP
3F80
7F80
7F80
0780
0780
0780
0780
0780
0780
0780
0780
0780
0780
0780
0780
0780
FFFC
FFFC
FFFC
ENDCHAR
STARTCHAR m
ENCODING 109
SWIDTH 600 0
DWIDTH 18 0
BBX 20 13 -1 0
BITMAP
7FDF80
FFFF80
7FFFC0
3C71C0
3871C0
3871C0
3871C0
3871C0
3871C0
3871C0
7E79E0
FE79F0
7E79E0
ENDCHAR
STARTCHAR n
ENCODING 110
SWIDTH 600 0
DWIDTH 18 0
BBX 16 13 1 0
BITMAP
FBF0
FFF8
FFFC
3C1C
381C
381C
381C
381C
381C
381C
FE3F
FE7F
FE3F
ENDCHAR
STARTCHAR o
ENCODING 111
SWIDTH 600 0
DWIDTH 18 0
BBX 16 13 1 0
BITMAP
0FF0
1FF8
3FFC
781E
700E
E007
E007
E007
700E
781E
3FFC
1FF8
0FF0
ENDCHAR
STARTCHAR p
ENCODING 112
SWIDTH 600 0
DWIDTH 18 0
BBX 17 19 0 -6
BITMAP
FBFC00
FFFE00
FFFF00
3E0780
3C0380
3C0380
380380
3C0380
3E0780
3F9F00
3FFF00
3BFC00
386000
380000
380000
380000
FF8000
FF8000
FF8000
ENDCHAR
STARTCHAR q
ENCODING 113
SWIDTH 600 0
DWIDTH 18 0
BBX 17 19 1 -6
BITMAP
1FEF80
3FFF80
7FFF80
F03E00
E01E00
E01E00
E00E00
E01E00
F03E00
FC7E00
7FFE00
3FEE00
030E00
000E00
000E00
000E00
00FF80
00FF80
00FF80
ENDCHAR
STARTCHAR r
ENCODING 114
SWIDTH 600 0
DWIDTH 18 0
BBX 15 13 2 0
BITMAP
7CFC
FDFE
7FFE
1F84
1F00
1C00
1C00
1C00
1C00
1C00
FFF0
FFF8
FFF0
ENDCHAR
STARTCHAR s
ENCODING 115
SWIDTH 600 0
DWIDTH 18 0
BBX 14 13 2 0
BITMAP
1FF8
3FF8
7FF8
7038
7C00
7FE0
3FF8
03F8
603C
E03C
FFFC
FFF8
7FF0
ENDCHAR
STARTCHAR t
ENCODING 116
SWIDTH 600 0
DWIDTH 18 0
BBX 16 18 0 0
BITMAP
0C00
1C00
1C00
1C00
1C00
7FFC
FFFC
7FF8
1C00
1C00
1C00
1C00
1C00
1C00
1E06
0FFF
0FFF
07FC
ENDCHAR
STARTCHAR u
ENCODING 117
SWIDTH 600 0
DWIDTH 18 0
BBX 17 13 0 0
BITMAP
7C3E00
FC7E00
7C3E00
1C0E00
1C0E00
1C0E00
1C0E00
1C0E00
1C0E00
1C1E00
1FFF80
0FFF80
07EF80
ENDCHAR
STARTCHAR v
ENCODING 118
SWIDTH 600 0
DWIDTH 18 0
BBX 18 13 0 0
BITMAP
FF3FC0
FF3FC0
FE3FC0
1C0E00
1E1E00
0E1C00
0F3C00
073800
07F800
03F000
03F000
01E000
01E000
ENDCHAR
STARTCHAR w
ENCODING 119
SWIDTH 600 0
DWIDTH 18 0
BBX 18 13 0 0
BITMAP
FC0FC0
FE1FC0
7C0F80
39E700
39E700
39E700
1FFF00
1FFE00
1FFE00
1F3E00
0F3E00
0F1C00
0E1C00
ENDCHAR
STARTCHAR x
ENCODING 120
SWIDTH 600 0
DWIDTH 18 0
BBX 16 13 1 0
BITMAP
FE7E
FE7F
7C3E
3E78
0FF0
07E0
07E0
0FF0
1FF8
3C3C
FE7F
FE7F
FE7F
ENDCHAR
STARTCHAR y
ENCODING 121
SWIDTH 600 0
DWIDTH 18 0
BBX 16 19 1 -6
BITMAP
FC3F
FC3F
FC3F
781C
381C
3C38
1C38
1E70
0E70
0FE0
07E0
03C0
03C0
0380
0780
0700
FFC0
FFC0
FFC0
ENDCHAR
STARTCHAR z
ENCODING 122
SWIDTH 600 0
DWIDTH 18 0
BBX 13 13 3 0
BITMAP
FFF0
FFF0
FFF0
E1E0
E3C0
0780
0F00
1E00
3C10
7830
FFF8
FFF8
FFF8
ENDCHAR
STARTCHAR braceleft
ENCODING 123
SWIDTH 600 0
DWIDTH 18 0
BBX 10 24 4 -5
BITMAP
0100
07C0
0F80
0E00
1E00
1C00
1C00
1C00
1C00
1C00
3C00
F800
F800
7C00
1C00
1C00
1C00
1C00
1C00
1E00
0F00
0F80
07C0
0100
ENDCHAR
STARTCHAR bar
ENCODING 124
SWIDTH 600 0
DWIDTH 18 0
BBX 4 24 7 -5
BITMAP
40
60
F0
F0
F0
F0
F0
F0
F0
F0
F0
F0
F0
F0
F0
F0
F0
F0
F0
F0
F0
F0
60
20
ENDCHAR
STARTCHAR braceright
ENCODING 125
SWIDTH 600 0
DWIDTH 18 0
BBX 10 24 4 -5
BITMAP
2000
F800
7C00
1C00
1E00
0E00
0E00
0E00
0E00
0E00
0F00
07C0
07C0
0F80
0E00
0E00
0E00
0E00
0E00
1E00
3C00
7C00
F800
6000
ENDCHAR
STARTCHAR asciitilde
ENCODING 126
SWIDTH 600 0
DWIDTH 18 0
BBX 14 7 2 5
BITMAP
0800
3E0C
7F1C
FFFC
E3F8
C1F0
0040
ENDCHAR
STARTCHAR nonbreakingspace
ENCODING 160
SWIDTH 600 0
DWIDTH 18 0
BBX 1 1 0 0
BITMAP
00
ENDCHAR
STARTCHAR exclamdown
ENCODING 161
SWIDTH 600 0
DWIDTH 18 0
BBX 4 19 7 -6
BITMAP
F0
F0
F0
40
00
00
60
F0
F0
F0
F0
F0
F0
F0
F0
F0
F0
F0
F0
ENDCHAR
STARTCHAR cent
ENCODING 162
SWIDTH 600 0
DWIDTH 18 0
BBX 13 21 2 -1
BITMAP
0300
0300
0380
0380
07C0
1FF8
3FF8
7C78
7038
7030
F000
7000
7000
7838
3FF8
1FF0
0FE0
0380
0380
0380
0300
ENDCHAR
STARTCHAR sterling
ENCODING 163
SWIDTH 600 0
DWIDTH 18 0
BBX 16 18 1 0
BITMAP
03C0
0FF0
1FF8
1E78
1C10
1C00
1C00
1C00
FFC0
FFC0
7F80
0E00
0E00
0E00
1E06
7FFF
7FFE
7FFC
ENDCHAR
STARTCHAR currency
ENCODING 164
SWIDTH 600 0
DWIDTH 18 0
BBX 14 14 2 2
BITMAP
0008
E31C
FFFC
7FF8
3CF0
7878
7038
7038
7078
3870
3FF0
7FF8
F7FC
6018
ENDCHAR
STARTCHAR yen
ENCODING 165
SWIDTH 600 0
DWIDTH 18 0
BBX 16 17 1 0
BITMAP
FC3F
FC3F
781E
3C3C
1E78
0E70
0FF0
07E0
03C0
1FF8
03C0
1FF8
1FF8
03C0
1FF8
1FF8
1FF8
ENDCHAR
STARTCHAR brokenbar
ENCODING 166
SWIDTH 600 0
DWIDTH 18 0
BBX 4 24 7 -5
BITMAP
40
60
F0
F0
F0
F0
F0
F0
70
60
00
00
00
00
60
E0
F0
F0
F0
F0
F0
F0
60
20
ENDCHAR
STARTCHAR section
ENCODING 167
SWIDTH 600 0
DWIDTH 18 0
BBX 16 22 1 -5
BITMAP
07FE
0FFE
1E0E
1C0E
1C0C
3E00
7F00
E7C0
E3F0
F0FC
783E
3E0F
1F07
07C7
01FF
00FE
0038
3038
7038
7FF8
7FF0
7FE0
ENDCHAR
STARTCHAR dieresis
ENCODING 168
SWIDTH 600 0
DWIDTH 18 0
BBX 10 4 4 16
BITMAP
6180
F3C0
F3C0
6180
ENDCHAR
STARTCHAR copyright
ENCODING 169
SWIDTH 600 0
DWIDTH 18 0
BBX 18 18 0 0
BITMAP
03F000
0FFC00
1E1E00
380700
71FB80
67F980
E739C0
CE18C0
CC00C0
CC00C0
CC00C0
CE18C0
E7F9C0
63F180
700380
3C0F00
1FFE00
07F800
ENDCHAR
STARTCHAR ordfeminine
ENCODING 170
SWIDTH 600 0
DWIDTH 18 0
BBX 11 13 4 5
BITMAP
3E00
7F00
7F80
1D80
7F80
FF80
C180
FFC0
FFE0
3800
0000
FFC0
FFC0
ENDCHAR
STARTCHAR guillemotleft
ENCODING 171
SWIDTH 600 0
DWIDTH 18 0
BBX 16 11 1 1
BITMAP
0183
078E
0E1C
1C78
78F0
F1E0
78F0
1C38
0F1C
078E
0183
ENDCHAR
STARTCHAR logicalnot
ENCODING 172
SWIDTH 600 0
DWIDTH 18 0
BBX 13 10 1 3
BITMAP
FFF8
FFF8
3FF8
0038
0038
0038
0038
0038
0038
0010
ENDCHAR
STARTCHAR softhyphen
ENCODING 173
SWIDTH 600 0
DWIDTH 18 0
BBX 16 3 1 7
BITMAP
7FFE
FFFF
7FFE
ENDCHAR
STARTCHAR registered
ENCODING 174
SWIDTH 600 0
DWIDTH 18 0
BBX 18 18 0 0
BITMAP
03F000
0FFC00
1E1E00
380700
77C380
67F180
E371C0
C338C0
C370C0
C3F0C0
C3E0C0
C370C0
E7B9C0
679980
700380
3C0F00
1FFE00
07F800
ENDCHAR
STARTCHAR macron
ENCODING 175
SWIDTH 600 0
DWIDTH 18 0
BBX 10 3 4 16
BITMAP
FFC0
FFC0
7F80
ENDCHAR
STARTCHAR degree
ENCODING 176
SWIDTH 600 0
DWIDTH 18 0
BBX 10 11 4 7
BITMAP
1E00
7F80
6180
C0C0
C0C0
C0C0
C0C0
C0C0
6180
3F00
0E00
ENDCHAR
STARTCHAR plusminus
ENCODING 177
SWIDTH 600 0
DWIDTH 18 0
BBX 16 19 1 0
BITMAP
0180
0180
03C0
03C0
03C0
03C0
7FFE
FFFF
7FFE
03C0
03C0
03C0
0180
0180
0000
0000
7FFE
FFFF
7FFE
ENDCHAR
STARTCHAR twosuperior
ENCODING 178
SWIDTH 600 0
DWIDTH 18 0
BBX 9 12 4 11
BITMAP
1C00
3F00
7380
6180
0380
0300
0E00
1C00
3800
7180
FF80
FF80
ENDCHAR
STARTCHAR threesuperior
ENCODING 179
SWIDTH 600 0
DWIDTH 18 0
BBX 8 12 5 11
BITMAP
3C
FE
C3
03
0F
1C
1F
03
03
83
FE
7C
ENDCHAR
STARTCHAR acute
ENCODING 180
SWIDTH 600 0
DWIDTH 18 0
BBX 5 5 8 15
BITMAP
10
38
70
E0
C0
ENDCHAR
STARTCHAR micro
ENCODING 181
SWIDTH 600 0
DWIDTH 18 0
BBX 17 18 0 -5
BITMAP
7C3E00
FC7E00
7C3E00
1C0E00
1C0E00
1C0E00
1C0E00
1C0E00
1C0E00
1C1E00
1FFF80
1FFF80
1FFF80
1C0000
1C0000
1C0000
1C0000
080000
ENDCHAR
STARTCHAR paragraph
ENCODING 182
SWIDTH 600 0
DWIDTH 18 0
BBX 16 22 1 -5
BITMAP
0FFF
3FFE
7D98
7198
F198
F198
F198
7198
7D98
3F98
0F98
0198
0198
0198
0198
0198
0198
0198
0198
0198
1FFF
1FFF
ENDCHAR
STARTCHAR middot
ENCODING 183
SWIDTH 600 0
DWIDTH 18 0
BBX 4 4 7 5
BITMAP
60
F0
F0
60
ENDCHAR
STARTCHAR cedilla
ENCODING 184
SWIDTH 600 0
DWIDTH 18 0
BBX 7 6 5 -6
BITMAP
18
1E
06
66
FE
3C
ENDCHAR
STARTCHAR onesuperior
ENCODING 185
SWIDTH 600 0
DWIDTH 18 0
BBX 8 12 5 11
BITMAP
08
F8
F8
18
18
18
18
18
18
18
FF
FF
ENDCHAR
STARTCHAR ordmasculine
ENCODING 186
SWIDTH 600 0
DWIDTH 18 0
BBX 10 13 4 5
BITMAP
1E00
3F80
7F80
E1C0
C0C0
C0C0
E1C0
7F80
7F80
1E00
0000
FFC0
FFC0
ENDCHAR
STARTCHAR guillemotright
ENCODING 187
SWIDTH 600 0
DWIDTH 18 0
BBX 16 11 1 1
BITMAP
E180
70E0
3870
1E3C
0F1E
078F
0F1E
1E38
3870
70E0
E180
ENDCHAR
STARTCHAR onequarter
ENCODING 188
SWIDTH 600 0
DWIDTH 18 0
BBX 20 19 -1 0
BITMAP
180000
F80200
F80600
180600
180C00
180C00
181800
183800
1830E0
1871E0
FF63E0
7EC360
01C760
018660
038FE0
030FF0
070FE0
0001F0
0001F0
ENDCHAR
STARTCHAR onehalf
ENCODING 189
SWIDTH 600 0
DWIDTH 18 0
BBX 20 19 -1 0
BITMAP
180000
F80200
F80600
180600
180C00
180C00
181800
183B80
1837E0
187EE0
FF6C30
7EC070
01C060
0180E0
038380
030700
070E30
001FF0
001FF0
ENDCHAR
STARTCHAR threequarters
ENCODING 190
SWIDTH 600 0
DWIDTH 18 0
BBX 20 19 -1 0
BITMAP
7C0000
FE0200
C30600
030600
1E0C00
1C0C00
0F1800
033800
0330E0
8771E0
FE63E0
7CC360
00C760
018660
038FE0
030FF0
070FE0
0001F0
0001F0
ENDCHAR
STARTCHAR questiondown
ENCODING 191
SWIDTH 600 0
DWIDTH 18 0
BBX 13 18 2 -6
BITMAP
0780
0780
0780
0000
0000
0300
0700
0F00
3F00
7E00
7800
7000
E038
7038
7878
7FF8
3FF0
0FC0
ENDCHAR
STARTCHAR Agrave
ENCODING 192
SWIDTH 600 0
DWIDTH 18 0
BBX 20 24 -1 0
BITMAP
010000
03C000
01E000
007000
003000
000000
000000
1FF000
1FF000
07F800
01F800
03FC00
039C00
079E00
070E00
070E00
0FFF00
0FFF00
1FFF80
1C0380
1C0380
7F0FE0
FF1FF0
7F0FE0
ENDCHAR
STARTCHAR Aacute
ENCODING 193
SWIDTH 600 0
DWIDTH 18 0
BBX 20 24 -1 0
BITMAP
003000
007000
00E000
01C000
018000
000000
000000
1FF000
1FF000
07F800
01F800
03FC00
039C00
079E00
070E00
070E00
0FFF00
0FFF00
1FFF80
1C0380
1C0380
7F0FE0
FF1FF0
7F0FE0
ENDCHAR
STARTCHAR Acircumflex
ENCODING 194
SWIDTH 600 0
DWIDTH 18 0
BBX 20 24 -1 0
BITMAP
004000
00E000
03F800
0F9C00
0E0E00
000000
000000
1FF000
1FF000
07F800
01F800
03FC00
039C00
079E00
070E00
070E00
0FFF00
0FFF00
1FFF80
1C0380
1C0380
7F0FE0
FF1FF0
7F0FE0
ENDCHAR
STARTCHAR Atilde
ENCODING 195
SWIDTH 600 0
DWIDTH 18 0
BBX 20 23 -1 0
BITMAP
038200
07EE00
0EFC00
0C3800
000000
000000
1FF000
1FF000
07F800
01F800
03FC00
039C00
079E00
070E00
070E00
0FFF00
0FFF00
1FFF80
1C0380
1C0380
7F0FE0
FF1FF0
7F0FE0
ENDCHAR
STARTCHAR Adieresis
ENCODING 196
SWIDTH 600 0
DWIDTH 18 0
BBX 20 23 -1 0
BITMAP
030C00
079E00
071E00
020C00
000000
000000
1FF000
1FF000
07F800
01F800
03FC00
039C00
079E00
070E00
070E00
0FFF00
0FFF00
1FFF80
1C0380
1C0380
7F0FE0
FF1FF0
7F0FE0
ENDCHAR
STARTCHAR Aring
ENCODING 197
SWIDTH 600 0
DWIDTH 18 0
BBX 20 24 -1 0
BITMAP
00E000
01F000
019800
01F000
00F000
000000
000000
1FF000
1FF000
07F800
01F800
03FC00
039C00
079E00
070E00
070E00
0FFF00
0FFF00
1FFF80
1C0380
1C0380
7F0FE0
FF1FF0
7F0FE0
ENDCHAR
STARTCHAR AE
ENCODING 198
SWIDTH 600 0
DWIDTH 18 0
BBX 19 17 -1 0
BITMAP
0FFFE0
0FFFE0
03FFE0
03F0E0
07F0E0
0776E0
077700
077F00
0E7F00
0FFF00
0FF600
1FF060
1C70E0
1C70E0
7EFFE0
FFFFE0
7EFFE0
ENDCHAR
STARTCHAR Ccedilla
ENCODING 199
SWIDTH 600 0
DWIDTH 18 0
BBX 16 24 1 -6
BITMAP
03E0
0FFE
3FFE
3C3E
780E
F00E
E006
E000
E000
E000
E000
E000
E000
7002
780F
3FFF
1FFE
07F8
01C0
01E0
0060
0660
07E0
03C0
ENDCHAR
STARTCHAR Egrave
ENCODING 200
SWIDTH 600 0
DWIDTH 18 0
BBX 17 24 0 0
BITMAP
030000
038000
03C000
00E000
006000
000000
000000
FFFF00
FFFF00
3FFF00
1C0700
1C0700
1CE600
1CE000
1FE000
1FE000
1FE000
1CE000
1C6300
1C0780
1C0780
7FFF80
FFFF80
7FFF80
ENDCHAR
STARTCHAR Eacute
ENCODING 201
SWIDTH 600 0
DWIDTH 18 0
BBX 17 24 0 0
BITMAP
003000
007000
01E000
01C000
010000
000000
000000
FFFF00
FFFF00
3FFF00
1C0700
1C0700
1CE600
1CE000
1FE000
1FE000
1FE000
1CE000
1C6300
1C0780
1C0780
7FFF80
FFFF80
7FFF80
ENDCHAR
STARTCHAR Ecircumflex
ENCODING 202
SWIDTH 600 0
DWIDTH 18 0
BBX 17 24 0 0
BITMAP
008000
01E000
07F000
0F3C00
0C1C00
000000
000000
FFFF00
FFFF00
3FFF00
1C0700
1C0700
1CE700
1CE000
1FE000
1FE000
1FE000
1CE000
1C6300
1C0780
1C0780
7FFF80
FFFF80
7FFF80
ENDCHAR
STARTCHAR Edieresis
ENCODING 203
SWIDTH 600 0
DWIDTH 18 0
BBX 17 23 0 0
BITMAP
061800
0F3C00
0F1C00
061800
000000
000000
FFFF00
FFFF00
3FFF00
1C0700
1C0700
1CE600
1CE000
1FE000
1FE000
1FE000
1CE000
1C6300
1C0780
1C0780
7FFF80
FFFF80
7FFF80
ENDCHAR
STARTCHAR Igrave
ENCODING 204
SWIDTH 600 0
DWIDTH 18 0
BBX 14 24 2 0
BITMAP
0C00
0E00
0700
0380
0180
0000
0000
7FF8
7FF8
3FF0
0780
0780
0780
0780
0780
0780
0780
0780
0780
0780
0780
7FF8
FFFC
7FF8
ENDCHAR
STARTCHAR Iacute
ENCODING 205
SWIDTH 600 0
DWIDTH 18 0
BBX 14 24 2 0
BITMAP
0060
00E0
01C0
0380
0300
0000
0000
7FF8
7FF8
3FF0
0780
0780
0780
0780
0780
0780
0780
0780
0780
0780
0780
7FF8
FFFC
7FF8
ENDCHAR
STARTCHAR Icircumflex
ENCODING 206
SWIDTH 600 0
DWIDTH 18 0
BBX 14 23 2 0
BITMAP
0780
1FE0
3CF0
3030
0000
0000
7FF8
7FF8
3FF0
0780
0780
0780
0780
0780
0780
0780
0780
0780
0780
0780
7FF8
FFFC
7FF8
ENDCHAR
STARTCHAR Idieresis
ENCODING 207
SWIDTH 600 0
DWIDTH 18 0
BBX 14 23 2 0
BITMAP
1860
3CF0
3CF0
1860
0000
0000
7FF8
7FF8
3FF0
0780
0780
0780
0780
0780
0780
0780
0780
0780
0780
0780
7FF8
FFFC
7FF8
ENDCHAR
STARTCHAR Eth
ENCODING 208
SWIDTH 600 0
DWIDTH 18 0
BBX 17 17 0 0
BITMAP
FFF800
FFFC00
3FFE00
380E00
380F00
380700
380700
FF8700
FF8780
7F0780
380700
380700
380F00
381E00
7FFE00
FFFC00
7FF000
ENDCHAR
STARTCHAR Ntilde
ENCODING 209
SWIDTH 600 0
DWIDTH 18 0
BBX 18 23 0 0
BITMAP
020400
0FCC00
1DFC00
187000
000000
000000
FC3FC0
FE3FC0
3E0F00
3F0700
3F0700
3F8700
3BC700
39C700
39E700
38F700
387700
387F00
383F00
381F00
7F1F00
FF0F00
7F0700
ENDCHAR
STARTCHAR Ograve
ENCODING 210
SWIDTH 600 0
DWIDTH 18 0
BBX 16 24 1 0
BITMAP
0600
0700
0380
01C0
00C0
0000
07C0
0FF0
3FFC
7C3E
781E
F00F
E007
E007
E007
E007
E007
E007
E007
700E
781E
3FFC
1FF8
0FF0
ENDCHAR
STARTCHAR Oacute
ENCODING 211
SWIDTH 600 0
DWIDTH 18 0
BBX 16 24 1 0
BITMAP
0060
00E0
01C0
0380
0300
0000
07C0
0FF0
3FFC
7C3E
781E
F00F
E007
E007
E007
E007
E007
E007
E007
700E
781E
3FFC
1FF8
0FF0
ENDCHAR
STARTCHAR Ocircumflex
ENCODING 212
SWIDTH 600 0
DWIDTH 18 0
BBX 16 23 1 0
BITMAP
03C0
07E0
1E78
1818
0000
07C0
0FF0
3FFC
7C3E
781E
F00F
E007
E007
E007
E007
E007
E007
E007
700E
781E
3FFC
1FF8
0FF0
ENDCHAR
STARTCHAR Otilde
ENCODING 213
SWIDTH 600 0
DWIDTH 18 0
BBX 16 23 1 0
BITMAP
0E08
1FD8
39F8
1060
0000
07C0
0FF0
3FFC
7C3E
781E
F00F
E007
E007
E007
E007
E007
E007
E007
700E
781E
3FFC
1FF8
0FF0
ENDCHAR
STARTCHAR Odieresis
ENCODING 214
SWIDTH 600 0
DWIDTH 18 0
BBX 16 23 1 0
BITMAP
0C30
1E78
1E78
0830
0000
07C0
0FF0
3FFC
7C3E
781E
F00F
E007
E007
E007
E007
E007
E007
E007
700E
781E
3FFC
1FF8
0FF0
ENDCHAR
STARTCHAR multiply
ENCODING 215
SWIDTH 600 0
DWIDTH 18 0
BBX 12 12 3 2
BITMAP
E070
F0F0
79E0
3FC0
1F80
0F00
1F80
3FC0
79E0
F0F0
E070
4020
ENDCHAR
STARTCHAR Oslash
ENCODING 216
SWIDTH 600 0
DWIDTH 18 0
BBX 18 21 0 -2
BITMAP
000180
03E3C0
0FFF80
1FFF00
3E1F00
3C1F00
783F80
703B80
707380
70F380
71E380
73C380
738380
770380
3F0700
3E0F00
3FFE00
3FFC00
7FF800
F00000
600000
ENDCHAR
STARTCHAR Ugrave
ENCODING 217
SWIDTH 600 0
DWIDTH 18 0
BBX 18 24 0 0
BITMAP
030000
038000
01C000
00E000
006000
000000
000000
FF3FC0
FF3FC0
3E0F00
380700
380700
380700
380700
380700
380700
380700
380700
380700
380700
1C0E00
1FFE00
0FFC00
07F800
ENDCHAR
STARTCHAR Uacute
ENCODING 218
SWIDTH 600 0
DWIDTH 18 0
BBX 18 24 0 0
BITMAP
003000
007000
00E000
01C000
018000
000000
000000
FF3FC0
FF3FC0
3E0F00
380700
380700
380700
380700
380700
380700
380700
380700
380700
380700
1C0E00
1FFE00
0FFC00
07F800
ENDCHAR
STARTCHAR Ucircumflex
ENCODING 219
SWIDTH 600 0
DWIDTH 18 0
BBX 18 23 0 0
BITMAP
01E000
07F800
0F3C00
0C0C00
000000
000000
FF3FC0
FF3FC0
3E0F00
380700
380700
380700
380700
380700
380700
380700
380700
380700
380700
1C0E00
1FFE00
0FFC00
07F800
ENDCHAR
STARTCHAR Udieresis
ENCODING 220
SWIDTH 600 0
DWIDTH 18 0
BBX 18 23 0 0
BITMAP
061800
0F3C00
0F3C00
061800
000000
000000
FF3FC0
FF3FC0
3E0F00
380700
380700
380700
380700
380700
380700
380700
380700
380700
380700
1C0E00
1FFE00
0FFC00
07F800
ENDCHAR
STARTCHAR Yacute
ENCODING 221
SWIDTH 600 0
DWIDTH 18 0
BBX 16 24 1 0
BITMAP
0020
00E0
01C0
0380
0300
0000
0000
FC3F
FC3F
781E
3C3C
1E78
0E70
0FF0
07E0
03C0
03C0
03C0
03C0
03C0
03C0
1FF8
1FF8
1FF8
ENDCHAR
STARTCHAR Thorn
ENCODING 222
SWIDTH 600 0
DWIDTH 18 0
BBX 16 17 0 0
BITMAP
FFE0
FFE0
3F80
1C00
1FF8
1FFE
1FFE
1C0F
1C07
1C0F
1FFE
1FFC
1FE0
1C00
7FC0
FFE0
7FC0
ENDCHAR
STARTCHAR germandbls
ENCODING 223
SWIDTH 600 0
DWIDTH 18 0
BBX 16 19 0 0
BITMAP
03C0
0FF0
1FF8
1E78
1C38
1C38
1C38
1DF8
1DF8
1DFC
1C3E
1C0E
1C07
1C07
1C47
1CE7
7EFE
FEFE
7E7C
ENDCHAR
STARTCHAR agrave
ENCODING 224
SWIDTH 600 0
DWIDTH 18 0
BBX 16 20 1 0
BITMAP
0C00
0F00
0780
03C0
00C0
0000
0000
3FF0
3FF8
3FF8
001C
03DC
1FFC
3FFC
781C
F01C
F03C
FFFF
7FFF
3FDF
ENDCHAR
STARTCHAR aacute
ENCODING 225
SWIDTH 600 0
DWIDTH 18 0
BBX 16 20 1 0
BITMAP
0060
00E0
01C0
0380
0300
0000
0000
3FF0
3FF8
3FF8
001C
03DC
1FFC
3FFC
781C
F01C
F03C
FFFF
7FFF
3FDF
ENDCHAR
STARTCHAR acircumflex
ENCODING 226
SWIDTH 600 0
DWIDTH 18 0
BBX 16 20 1 0
BITMAP
0100
03C0
0FE0
1E78
3818
0000
0000
3FF0
3FF8
3FF8
001C
03DC
1FFC
3FFC
781C
F01C
F03C
FFFF
7FFF
3FDF
ENDCHAR
STARTCHAR atilde
ENCODING 227
SWIDTH 600 0
DWIDTH 18 0
BBX 16 19 1 0
BITMAP
0408
1F98
3BF8
30F0
0000
0000
3FF0
3FF8
3FF8
001C
03DC
1FFC
3FFC
781C
F01C
F03C
FFFF
7FFF
3FDF
ENDCHAR
STARTCHAR adieresis
ENCODING 228
SWIDTH 600 0
DWIDTH 18 0
BBX 16 19 1 0
BITMAP
0C30
1C78
1C78
0C30
0000
0000
3FF0
3FF8
3FF8
001C
03DC
1FFC
3FFC
781C
F01C
F03C
FFFF
7FFF
3FDF
ENDCHAR
STARTCHAR aring
ENCODING 229
SWIDTH 600 0
DWIDTH 18 0
BBX 16 20 1 0
BITMAP
0180
07C0
06C0
06C0
07C0
0180
0000
3FF0
3FF8
3FF8
001C
03DC
1FFC
3FFC
781C
F01C
F03C
FFFF
7FFF
3FDF
ENDCHAR
STARTCHAR ae
ENCODING 230
SWIDTH 600 0
DWIDTH 18 0
BBX 18 13 0 0
BITMAP
3FBF00
7FFF80
3FFF80
00E3C0
06E1C0
3FFFC0
FFFFC0
F0FFC0
E0E000
E1E000
FFFFC0
FFFFC0
7FFF80
ENDCHAR
STARTCHAR ccedilla
ENCODING 231
SWIDTH 600 0
DWIDTH 18 0
BBX 15 20 2 -6
BITMAP
0100
1FFC
3FFC
7FFC
F01C
E01C
E00C
E000
E000
E000
F00E
7FFE
7FFE
1FF8
0300
03C0
00C0
0CE0
0FC0
0780
ENDCHAR
STARTCHAR egrave
ENCODING 232
SWIDTH 600 0
DWIDTH 18 0
BBX 16 20 1 0
BITMAP
0600
0700
0380
01C0
00C0
0000
0000
0FF0
3FF8
7FFC
781E
F00E
FFFE
FFFE
FFFF
F000
7800
7FFE
3FFE
0FFC
ENDCHAR
STARTCHAR eacute
ENCODING 233
SWIDTH 600 0
DWIDTH 18 0
BBX 16 20 1 0
BITMAP
0020
00E0
01C0
0380
0300
0000
0000
0FF0
3FF8
7FFC
781E
F00E
FFFE
FFFE
FFFF
F000
7800
7FFE
3FFE
0FFC
ENDCHAR
STARTCHAR ecircumflex
ENCODING 234
SWIDTH 600 0
DWIDTH 18 0
BBX 16 20 1 0
BITMAP
0100
03C0
0FE0
1E78
3818
0000
0000
0FF0
3FF8
7FFC
781E
F00E
FFFE
FFFE
FFFF
F000
7800
7FFE
3FFE
0FFC
ENDCHAR
STARTCHAR edieresis
ENCODING 235
SWIDTH 600 0
DWIDTH 18 0
BBX 16 19 1 0
BITMAP
0830
1C78
1C78
0C30
0000
0000
0FF0
3FF8
7FFC
781E
F00E
FFFE
FFFE
FFFF
F000
7800
7FFE
3FFE
0FFC
ENDCHAR
STARTCHAR igrave
ENCODING 236
SWIDTH 600 0
DWIDTH 18 0
BBX 14 20 2 0
BITMAP
1800
1E00
0F00
0780
0180
0000
0000
7F80
7F80
3F80
0780
0780
0780
0780
0780
0780
0780
FFFC
FFFC
FFFC
ENDCHAR
STARTCHAR iacute
ENCODING 237
SWIDTH 600 0
DWIDTH 18 0
BBX 14 20 2 0
BITMAP
0080
0380
0780
0F00
0C00
0000
0000
7F80
7F80
3F80
0780
0780
0780
0780
0780
0780
0780
FFFC
FFFC
FFFC
ENDCHAR
STARTCHAR icircumflex
ENCODING 238
SWIDTH 600 0
DWIDTH 18 0
BBX 14 20 2 0
BITMAP
0200
0780
1FC0
3CF0
7030
0000
0000
7F80
7F80
3F80
0780
0780
0780
0780
0780
0780
0780
FFFC
FFFC
FFFC
ENDCHAR
STARTCHAR idieresis
ENCODING 239
SWIDTH 600 0
DWIDTH 18 0
BBX 14 19 2 0
BITMAP
1860
3CF0
3CF0
1860
0000
0000
7F80
7F80
3F80
0780
0780
0780
0780
0780
0780
0780
FFFC
FFFC
FFFC
ENDCHAR
STARTCHAR eth
ENCODING 240
SWIDTH 600 0
DWIDTH 18 0
BBX 16 19 1 0
BITMAP
1E70
1FF0
07C0
0FF0
1C78
003C
0FFC
1FFE
3FFE
781E
700F
E00F
E007
E007
700E
781E
3FFC
1FFC
0FF0
ENDCHAR
STARTCHAR ntilde
ENCODING 241
SWIDTH 600 0
DWIDTH 18 0
BBX 16 19 1 0
BITMAP
0F18
1FF8
39F0
0000
0000
0000
FBF0
FFF8
FFFC
3C1C
381C
381C
381C
381C
381C
381C
FE3F
FE7F
FE3F
ENDCHAR
STARTCHAR ograve
ENCODING 242
SWIDTH 600 0
DWIDTH 18 0
BBX 16 20 1 0
BITMAP
0600
0700
0380
01C0
00C0
0000
0000
0FF0
1FF8
3FFC
781E
700E
E007
E007
E007
700E
781E
3FFC
1FF8
0FF0
ENDCHAR
STARTCHAR oacute
ENCODING 243
SWIDTH 600 0
DWIDTH 18 0
BBX 16 20 1 0
BITMAP
0060
00E0
01C0
0380
0300
0000
0000
0FF0
1FF8
3FFC
781E
700E
E007
E007
E007
700E
781E
3FFC
1FF8
0FF0
ENDCHAR
STARTCHAR ocircumflex
ENCODING 244
SWIDTH 600 0
DWIDTH 18 0
BBX 16 20 1 0
BITMAP
0100
03C0
0FE0
1E78
3818
0000
0000
0FF0
1FF8
3FFC
781E
700E
E007
E007
E007
700E
781E
3FFC
1FF8
0FF0
ENDCHAR
STARTCHAR otilde
ENCODING 245
SWIDTH 600 0
DWIDTH 18 0
BBX 16 19 1 0
BITMAP
0F18
1FF8
31F0
0000
0000
0000
0FF0
1FF8
3FFC
781E
700E
E007
E007
E007
700E
781E
3FFC
1FF8
0FF0
ENDCHAR
STARTCHAR odieresis
ENCODING 246
SWIDTH 600 0
DWIDTH 18 0
BBX 16 19 1 0
BITMAP
0C30
1E78
1E78
0C30
0000
0000
0FF0
1FF8
3FFC
781E
700E
E007
E007
E007
700E
781E
3FFC
1FF8
0FF0
ENDCHAR
STARTCHAR divide
ENCODING 247
SWIDTH 600 0
DWIDTH 18 0
BBX 16 15 1 1
BITMAP
01C0
03C0
03C0
03C0
0000
0000
7FFE
FFFF
7FFE
0000
0000
0180
03C0
03C0
03C0
ENDCHAR
STARTCHAR oslash
ENCODING 248
SWIDTH 600 0
DWIDTH 18 0
BBX 16 17 1 -2
BITMAP
0003
0007
0FFF
1FFE
3FFC
787E
70FE
E1E7
E3C7
E787
7F0E
7E1E
3FFC
7FF8
FFF0
E000
C000
ENDCHAR
STARTCHAR ugrave
ENCODING 249
SWIDTH 600 0
DWIDTH 18 0
BBX 17 20 0 0
BITMAP
030000
038000
01C000
00E000
006000
000000
000000
7C3E00
FC7E00
7C3E00
1C0E00
1C0E00
1C0E00
1C0E00
1C0E00
1C0E00
1C1E00
1FFF80
0FFF80
07EF80
ENDCHAR
STARTCHAR uacute
ENCODING 250
SWIDTH 600 0
DWIDTH 18 0
BBX 17 20 0 0
BITMAP
002000
007000
00E000
01C000
018000
000000
000000
7C3E00
FC7E00
7C3E00
1C0E00
1C0E00
1C0E00
1C0E00
1C0E00
1C0E00
1C1E00
1FFF80
0FFF80
07EF80
ENDCHAR
STARTCHAR ucircumflex
ENCODING 251
SWIDTH 600 0
DWIDTH 18 0
BBX 17 20 0 0
BITMAP
008000
01E000
07F000
0F3C00
1C0C00
000000
000000
7C3E00
FC7E00
7C3E00
1C0E00
1C0E00
1C0E00
1C0E00
1C0E00
1C0E00
1C1E00
1FFF80
0FFF80
07EF80
ENDCHAR
STARTCHAR udieresis
ENCODING 252
SWIDTH 600 0
DWIDTH 18 0
BBX 17 19 0 0
BITMAP
061800
0E3C00
0E3C00
061800
000000
000000
7C3E00
FC7E00
7C3E00
1C0E00
1C0E00
1C0E00
1C0E00
1C0E00
1C0E00
1C1E00
1FFF80
0FFF80
07EF80
ENDCHAR
STARTCHAR yacute
ENCODING 253
SWIDTH 600 0
DWIDTH 18 0
BBX 16 26 1 -6
BITMAP
0030
0070
00E0
01C0
0000
0000
0000
FC3F
FC3F
FC3F
781C
381C
3C38
1C38
1E70
0E70
0FE0
07E0
03C0
03C0
0380
0780
0700
FFC0
FFC0
FFC0
ENDCHAR
STARTCHAR thorn
ENCODING 254
SWIDTH 600 0
DWIDTH 18 0
BBX 17 25 0 -6
BITMAP
780000
F80000
F80000
380000
380000
380000
3BFC00
3FFE00
3FFF00
3E0780
3C0380
380380
380380
3C0380
3C0780
3F1F00
3FFE00
3BFC00
386000
380000
380000
380000
FF8000
FF8000
FF8000
ENDCHAR
STARTCHAR ydieresis
ENCODING 255
SWIDTH 600 0
DWIDTH 18 0
BBX 16 25 1 -6
BITMAP
0C30
1E78
1E78
0C30
0000
0000
FC3F
FC3F
FC3F
781C
381C
3C38
1C38
1E70
0E70
0FE0
07E0
03C0
03C0
0380
0780
0700
FFC0
FFC0
FFC0
ENDCHAR
STARTCHAR Amacron
ENCODING 256
SWIDTH 600 0
DWIDTH 18 0
BBX 20 22 -1 0
BITMAP
1FF800
1FFC00
000000
000000
000000
1FF000
1FF000
07F800
01F800
03FC00
039C00
079E00
070E00
070E00
0FFF00
0FFF00
1FFF80
1C0380
1C0380
7F0FE0
FF1FF0
7F0FE0
ENDCHAR
STARTCHAR amacron
ENCODING 257
SWIDTH 600 0
DWIDTH 18 0
BBX 16 18 1 0
BITMAP
1FF8
1FF8
0000
0000
0000
3FF0
3FF8
3FF8
001C
03DC
1FFC
3FFC
781C
F01C
F03C
FFFF
7FFF
3FDF
ENDCHAR
STARTCHAR Abreve
ENCODING 258
SWIDTH 600 0
DWIDTH 18 0
BBX 20 24 -1 0
BITMAP
040600
060600
07BE00
03FC00
006000
000000
000000
1FF000
1FF000
07F800
01F800
03FC00
039C00
079E00
070E00
070E00
0FFF00
0FFF00
1FFF80
1C0380
1C0380
7F0FE0
FF1FF0
7F0FE0
ENDCHAR
STARTCHAR abreve
ENCODING 259
SWIDTH 600 0
DWIDTH 18 0
BBX 16 20 1 0
BITMAP
1018
1818
1E78
0FE0
0180
0000
0000
3FF0
3FF8
3FF8
001C
03DC
1FFC
3FFC
781C
F01C
F03C
FFFF
7FFF
3FDF
ENDCHAR
STARTCHAR Aogonek
ENCODING 260
SWIDTH 600 0
DWIDTH 18 0
BBX 20 23 -1 -6
BITMAP
1FF000
1FF000
07F800
01F800
03FC00
039C00
079E00
070E00
070E00
0FFF00
0FFF00
1FFF80
1C0380
1C0380
7F0FE0
FF1FF0
7F0FE0
0001C0
000300
000700
000760
0007E0
0003C0
ENDCHAR
STARTCHAR aogonek
ENCODING 261
SWIDTH 600 0
DWIDTH 18 0
BBX 16 19 1 -6
BITMAP
3FF0
3FF8
3FF8
001C
03DC
1FFC
3FFC
781C
F01C
F03C
FFFF
7FFF
3FDF
000E
0018
0030
0033
003F
001E
ENDCHAR
STARTCHAR Cacute
ENCODING 262
SWIDTH 600 0
DWIDTH 18 0
BBX 16 24 1 0
BITMAP
0030
0070
00E0
01C0
0180
0000
03E0
0FFE
3FFE
3C3E
780E
F006
E006
E000
E000
E000
E000
E000
E000
7002
780F
3FFF
1FFE
0FF8
ENDCHAR
STARTCHAR cacute
ENCODING 263
SWIDTH 600 0
DWIDTH 18 0
BBX 15 20 2 0
BITMAP
0060
00E0
01C0
0380
0300
0000
0100
1FFC
3FFC
7FFC
F01C
E01C
E00C
E000
E000
E000
F00E
7FFE
7FFC
1FF8
ENDCHAR
STARTCHAR Ccircumflex
ENCODING 264
SWIDTH 600 0
DWIDTH 18 0
BBX 16 23 1 0
BITMAP
03C0
07F0
1E78
1818
0000
03E0
0FFE
3FFE
3C3E
780E
F006
E006
E000
E000
E000
E000
E000
E000
7002
780F
3FFF
1FFE
0FF8
ENDCHAR
STARTCHAR ccircumflex
ENCODING 265
SWIDTH 600 0
DWIDTH 18 0
BBX 15 20 2 0
BITMAP
0100
0780
0FE0
3CF0
3038
0000
0100
1FFC
3FFC
7FFC
F01C
E01C
E00C
E000
E000
E000
F00E
7FFE
7FFC
1FF8
ENDCHAR
STARTCHAR Cdotaccent
ENCODING 266
SWIDTH 600 0
DWIDTH 18 0
BBX 16 23 1 0
BITMAP
01C0
03C0
01C0
0000
0000
03E0
0FFE
3FFE
3C3E
780E
F006
E006
E000
E000
E000
E000
E000
E000
7002
780F
3FFF
1FFE
0FF8
ENDCHAR
STARTCHAR cdotaccent
ENCODING 267
SWIDTH 600 0
DWIDTH 18 0
BBX 15 19 2 0
BITMAP
0300
0380
0380
0300
0000
0100
1FFC
3FFC
7FFC
F01C
E01C
E00C
E000
E000
E000
F00E
7FFE
7FFC
1FF8
ENDCHAR
STARTCHAR Ccaron
ENCODING 268
SWIDTH 600 0
DWIDTH 18 0
BBX 16 24 1 0
BITMAP
1818
1E78
0FF0
03C0
0180
0000
07F6
1FFE
3FFE
7C1E
700E
F006
E006
E000
E000
E000
E000
E000
F000
7007
7C0F
3FFF
1FFE
07F8
ENDCHAR
STARTCHAR ccaron
ENCODING 269
SWIDTH 600 0
DWIDTH 18 0
BBX 15 20 2 0
BITMAP
3030
3CF0
1FE0
0780
0100
0000
0100
1FFC
3FFC
7FFC
F01C
E01C
E00C
E000
E000
E000
F00E
7FFE
7FFC
1FF8
ENDCHAR
STARTCHAR Dcaron
ENCODING 270
SWIDTH 600 0
DWIDTH 18 0
BBX 17 24 0 0
BITMAP
180C00
1E3C00
07F000
03E000
008000
000000
000000
FFF800
FFFC00
3FFE00
380E00
380F00
380700
380700
380700
380780
380780
380700
380700
380F00
381E00
7FFE00
FFFC00
7FF000
ENDCHAR
STARTCHAR dcaron
ENCODING 271
SWIDTH 600 0
DWIDTH 18 0
BBX 21 19 0 0
BITMAP
001E00
007E18
003E38
000E70
000EE0
010EC0
1FEE00
3FFE00
7EFE00
701E00
F01E00
E00E00
E00E00
E00E00
F01E00
783E00
7FFF80
3FFF80
1FEF80
ENDCHAR
STARTCHAR Dcroat
ENCODING 272
SWIDTH 600 0
DWIDTH 18 0
BBX 17 17 0 0
BITMAP
FFF800
FFFC00
3FFE00
380E00
380F00
380700
380700
FF8700
FF8780
7F0780
380700
380700
380F00
381E00
7FFE00
FFFC00
7FF000
ENDCHAR
STARTCHAR dcroat
ENCODING 273
SWIDTH 600 0
DWIDTH 18 0
BBX 18 19 0 0
BITMAP
001E00
003E00
003E00
000E00
000FC0
000FC0
0FFF80
1FFE00
3FFE00
781E00
700E00
F00E00
E00E00
E00E00
700E00
781E00
7FFF80
3FFFC0
0FFF80
ENDCHAR
STARTCHAR Emacron
ENCODING 274
SWIDTH 600 0
DWIDTH 18 0
BBX 17 22 0 0
BITMAP
0FFC00
0FFC00
000000
000000
000000
FFFF00
FFFF00
3FFF00
1C0700
1C0700
1CE600
1CE000
1FE000
1FE000
1FE000
1CE000
1C6300
1C0780
1C0780
7FFF80
FFFF80
7FFF80
ENDCHAR
STARTCHAR emacron
ENCODING 275
SWIDTH 600 0
DWIDTH 18 0
BBX 16 18 1 0
BITMAP
1FF8
1FF8
0000
0000
0000
0FF0
3FF8
7FFC
781E
F00E
FFFE
FFFE
FFFF
F000
7800
7FFE
3FFE
0FFC
ENDCHAR
STARTCHAR Ebreve
ENCODING 276
SWIDTH 600 0
DWIDTH 18 0
BBX 17 24 0 0
BITMAP
080C00
0C0C00
0F7C00
07F800
00C000
000000
000000
FFFF00
FFFF00
3FFF00
1C0700
1C0700
1CE600
1CE000
1FE000
1FE000
1FE000
1CE000
1C6300
1C0780
1C0780
7FFF80
FFFF80
7FFF80
ENDCHAR
STARTCHAR ebreve
ENCODING 277
SWIDTH 600 0
DWIDTH 18 0
BBX 16 20 1 0
BITMAP
1018
1818
1E78
0FE0
0180
0000
0000
0FF0
3FF8
7FFC
781E
F00E
FFFE
FFFE
FFFF
F000
7800
7FFE
3FFE
0FFC
ENDCHAR
STARTCHAR Edotaccent
ENCODING 278
SWIDTH 600 0
DWIDTH 18 0
BBX 17 22 0 0
BITMAP
00E000
01E000
00E000
000000
000000
FFFF00
FFFF00
3FFF00
1C0700
1C0700
1CE600
1CE000
1FE000
1FE000
1FE000
1CE000
1C6300
1C0780
1C0780
7FFF80
FFFF80
7FFF80
ENDCHAR
STARTCHAR edotaccent
ENCODING 279
SWIDTH 600 0
DWIDTH 18 0
BBX 16 19 1 0
BITMAP
0180
0380
0380
0180
0000
0000
0FF0
3FF8
7FFC
781E
F00E
FFFE
FFFE
FFFF
F000
7800
7FFE
3FFE
0FFC
ENDCHAR
STARTCHAR Eogonek
ENCODING 280
SWIDTH 600 0
DWIDTH 18 0
BBX 18 23 0 -6
BITMAP
FFFF00
FFFF00
3FFF00
1C0700
1C0700
1CE600
1CE000
1FE000
1FE000
1FE000
1CE000
1C6300
1C0780
1C0780
7FFF80
FFFF80
7FFF80
000700
000C00
001C00
001D80
001FC0
000F00
ENDCHAR
STARTCHAR eogonek
ENCODING 281
SWIDTH 600 0
DWIDTH 18 0
BBX 16 19 1 -6
BITMAP
0FF0
3FF8
7FFC
781E
F00E
FFFE
FFFE
FFFF
F000
7800
7FFE
3FFE
0FFC
0070
00E0
00C0
01DC
00FC
00F8
ENDCHAR
STARTCHAR Ecaron
ENCODING 282
SWIDTH 600 0
DWIDTH 18 0
BBX 17 24 0 0
BITMAP
0C0C00
0F3C00
07F800
01E000
00C000
000000
000000
FFFF00
FFFF00
3FFF00
1C0700
1C0700
1CE600
1CE000
1FE000
1FE000
1FE000
1CE000
1C6300
1C0780
1C0780
7FFF80
FFFF80
7FFF80
ENDCHAR
STARTCHAR ecaron
ENCODING 283
SWIDTH 600 0
DWIDTH 18 0
BBX 16 20 1 0
BITMAP
1818
1E78
0FF0
03C0
0100
0000
0000
0FF0
3FF8
7FFC
781E
F00E
FFFE
FFFE
FFFF
F000
7800
7FFE
3FFE
0FFC
ENDCHAR
STARTCHAR Gcircumflex
ENCODING 284
SWIDTH 600 0
DWIDTH 18 0
BBX 17 24 1 0
BITMAP
008000
03C000
07F000
1E7800
181C00
000000
03E600
0FFE00
3FFF00
3C1F00
780F00
F00600
E00000
E00000
E00000
E00000
E0FF80
E0FF80
E07F00
F00F00
780F00
3FFF00
3FFF00
0FF800
ENDCHAR
STARTCHAR gcircumflex
ENCODING 285
SWIDTH 600 0
DWIDTH 18 0
BBX 17 26 1 -6
BITMAP
010000
03C000
0FE000
1E7800
381800
000000
020000
1FFF00
3FFF80
7FFF00
703C00
E01C00
E01C00
E01C00
E01C00
F01C00
703C00
7FFC00
3FFC00
1FFC00
001C00
001C00
003C00
0FF800
1FF800
0FE000
ENDCHAR
STARTCHAR Gbreve
ENCODING 286
SWIDTH 600 0
DWIDTH 18 0
BBX 17 24 1 0
BITMAP
180C00
1C1C00
0F7800
07F000
008000
000000
03E600
0FFE00
3FFF00
3C1F00
780F00
F00600
E00000
E00000
E00000
E00000
E0FF80
E0FF80
E07F00
F00F00
780F00
3FFF00
3FFF00
0FF800
ENDCHAR
STARTCHAR gbreve
ENCODING 287
SWIDTH 600 0
DWIDTH 18 0
BBX 17 26 1 -6
BITMAP
101800
181800
1E7800
0FE000
018000
000000
020000
1FFF00
3FFF80
7FFF00
703C00
E01C00
E01C00
E01C00
E01C00
F01C00
703C00
7FFC00
3FFC00
1FFC00
001C00
001C00
003C00
0FF800
1FF800
0FE000
ENDCHAR
STARTCHAR Gdotaccent
ENCODING 288
SWIDTH 600 0
DWIDTH 18 0
BBX 17 23 1 0
BITMAP
018000
03C000
03C000
018000
000000
03E600
0FFE00
3FFF00
3C1F00
780F00
F00600
E00000
E00000
E00000
E00000
E0FF80
E0FF80
E07F00
F00F00
780F00
3FFF00
3FFF00
0FF800
ENDCHAR
STARTCHAR gdotaccent
ENCODING 289
SWIDTH 600 0
DWIDTH 18 0
BBX 17 25 1 -6
BITMAP
018000
038000
038000
018000
000000
020000
1FFF00
3FFF80
7FFF00
703C00
E01C00
E01C00
E01C00
E01C00
F01C00
703C00
7FFC00
3FFC00
1FFC00
001C00
001C00
003C00
0FF800
1FF800
0FE000
ENDCHAR
STARTCHAR Gcedilla
ENCODING 290
SWIDTH 600 0
DWIDTH 18 0
BBX 17 24 1 -6
BITMAP
03E600
0FFE00
3FFF00
3C1F00
780F00
F00600
E00000
E00000
E00000
E00000
E0FF80
E0FF80
E07F00
F00F00
780F00
3FFF00
3FFF00
0FF800
000000
01C000
01C000
018000
038000
010000
ENDCHAR
STARTCHAR gcommaaccent
ENCODING 291
SWIDTH 600 0
DWIDTH 18 0
BBX 17 26 1 -6
BITMAP
00C000
01C000
038000
070000
020000
000000
020000
1FFF00
3FFF80
7FFF00
703C00
E01C00
E01C00
E01C00
E01C00
F01C00
703C00
7FFC00
3FFC00
1FFC00
001C00
001C00
003C00
0FF800
1FF800
0FE000
ENDCHAR
STARTCHAR Hcircumflex
ENCODING 292
SWIDTH 600 0
DWIDTH 18 0
BBX 16 23 1 0
BITMAP
03C0
07F0
1E78
1818
0000
0000
FE7F
FE7F
3C1C
381C
381C
381C
381C
3FFC
3FFC
3FFC
381C
381C
381C
381C
FE7F
FE7F
FE7F
ENDCHAR
STARTCHAR hcircumflex
ENCODING 293
SWIDTH 600 0
DWIDTH 18 0
BBX 17 24 0 0
BITMAP
006000
01F000
03FC00
071E00
060600
3C0000
FC0000
7C0000
1C0000
1C0000
1C0000
1DF800
1FFC00
1FFE00
1E0E00
1C0E00
1C0E00
1C0E00
1C0E00
1C0E00
1C0E00
7F3F80
7F3F80
7F3F80
ENDCHAR
STARTCHAR Hbar
ENCODING 294
SWIDTH 600 0
DWIDTH 18 0
BBX 16 17 1 0
BITMAP
FE7F
FE7F
3C1C
381C
F81F
F81F
F81E
3FFC
3FFC
3FFC
381C
381C
381C
381C
FE7F
FE7F
FE7F
ENDCHAR
STARTCHAR hbar
ENCODING 295
SWIDTH 600 0
DWIDTH 18 0
BBX 17 19 0 0
BITMAP
7FC000
FFE000
7FE000
1C0000
1C0000
1C0000
1DF800
1FFC00
1FFE00
1E0E00
1C0E00
1C0E00
1C0E00
1C0E00
1C0E00
1C0E00
7F3F80
7F3F80
7F3F80
ENDCHAR
STARTCHAR Itilde
ENCODING 296
SWIDTH 600 0
DWIDTH 18 0
BBX 14 22 2 0
BITMAP
3F38
3FF0
21E0
0000
0000
7FF8
7FF8
3FF0
0780
0780
0780
0780
0780
0780
0780
0780
0780
0780
0780
7FF8
FFFC
7FF8
ENDCHAR
STARTCHAR itilde
ENCODING 297
SWIDTH 600 0
DWIDTH 18 0
BBX 14 19 2 0
BITMAP
1E10
3FF0
73E0
0000
0000
0000
7F80
7F80
3F80
0780
0780
0780
0780
0780
0780
0780
FFFC
FFFC
FFFC
ENDCHAR
STARTCHAR Imacron
ENCODING 298
SWIDTH 600 0
DWIDTH 18 0
BBX 14 22 2 0
BITMAP
3FF0
3FF0
0000
0000
0000
7FF8
7FF8
3FF0
0780
0780
0780
0780
0780
0780
0780
0780
0780
0780
0780
7FF8
FFFC
7FF8
ENDCHAR
STARTCHAR imacron
ENCODING 299
SWIDTH 600 0
DWIDTH 18 0
BBX 14 18 2 0
BITMAP
3FF0
3FF0
0000
0000
0000
7F80
7F80
3F80
0780
0780
0780
0780
0780
0780
0780
FFFC
FFFC
FFFC
ENDCHAR
STARTCHAR Ibreve
ENCODING 300
SWIDTH 600 0
DWIDTH 18 0
BBX 14 24 2 0
BITMAP
3010
3030
3EF0
0FE0
0100
0000
0000
7FF8
7FF8
3FF0
0780
0780
0780
0780
0780
0780
0780
0780
0780
0780
0780
7FF8
FFFC
7FF8
ENDCHAR
STARTCHAR ibreve
ENCODING 301
SWIDTH 600 0
DWIDTH 18 0
BBX 14 20 2 0
BITMAP
2030
3030
3CF0
1FC0
0300
0000
0000
7F80
7F80
3F80
0780
0780
0780
0780
0780
0780
0780
FFFC
FFFC
FFFC
ENDCHAR
STARTCHAR Iogonek
ENCODING 302
SWIDTH 600 0
DWIDTH 18 0
BBX 14 23 2 -6
BITMAP
7FF8
7FF8
3FF0
0780
0780
0780
0780
0780
0780
0780
0780
0780
0780
0780
7FF8
FFFC
7FF8
0070
00C0
01C0
01D8
01F8
00F0
ENDCHAR
STARTCHAR iogonek
ENCODING 303
SWIDTH 600 0
DWIDTH 18 0
BBX 14 25 2 -6
BITMAP
0700
0700
0700
0000
0000
0000
7F80
7F80
3F80
0780
0780
0780
0780
0780
0780
0780
FFFC
FFFC
FFFC
0070
00E0
00C0
00CC
00FC
0078
ENDCHAR
STARTCHAR Idotaccent
ENCODING 304
SWIDTH 600 0
DWIDTH 18 0
BBX 14 23 2 0
BITMAP
0700
0780
0700
0000
0000
0000
7FF8
7FF8
3FF0
0780
0780
0780
0780
0780
0780
0780
0780
0780
0780
0780
7FF8
FFFC
7FF8
ENDCHAR
STARTCHAR dotlessi
ENCODING 305
SWIDTH 600 0
DWIDTH 18 0
BBX 14 13 2 0
BITMAP
7F80
7F80
3F80
0780
0780
0780
0780
0780
0780
0780
FFFC
FFFC
FFFC
ENDCHAR
STARTCHAR IJ
ENCODING 306
SWIDTH 600 0
DWIDTH 18 0
BBX 20 17 -1 0
BITMAP
7F1FF0
7F1FF0
3E07C0
1C01C0
1C01C0
1C01C0
1C01C0
1C01C0
1C01C0
1DC1C0
1DC1C0
1DC1C0
1DC1C0
1DC3C0
7FFF80
FFFF80
7F7F00
ENDCHAR
STARTCHAR ij
ENCODING 307
SWIDTH 600 0
DWIDTH 18 0
BBX 17 25 0 -6
BITMAP
0E0E00
0E0E00
0E0E00
000000
000000
000000
7F3F80
7F7F80
3F3F80
070380
070380
070380
070380
070380
070380
070380
7FF380
FFF380
7FF380
000380
000380
000780
03FF00
03FE00
03FC00
ENDCHAR
STARTCHAR Jcircumflex
ENCODING 308
SWIDTH 600 0
DWIDTH 18 0
BBX 16 24 2 0
BITMAP
0020
00F0
01FC
079E
0606
0000
0000
0FFF
0FFF
03FE
0038
0038
0038
0038
0038
0038
C038
E038
E038
E038
E070
FFF0
FFE0
3FC0
ENDCHAR
STARTCHAR jcircumflex
ENCODING 309
SWIDTH 600 0
DWIDTH 18 0
BBX 11 26 3 -6
BITMAP
0400
0F00
3F80
79E0
E060
0000
0000
FFE0
FFE0
FFE0
00E0
00E0
00E0
00E0
00E0
00E0
00E0
00E0
00E0
00E0
00E0
00E0
01C0
FFC0
FF80
FE00
ENDCHAR
STARTCHAR Kcommaaccent
ENCODING 310
SWIDTH 600 0
DWIDTH 18 0
BBX 18 23 0 -6
BITMAP
FFBF80
FFBF80
3E1F00
1C3C00
1C7800
1CF000
1FE000
1FE000
1FF000
1EF800
1C7800
1C3C00
1C1C00
1C1E00
7F0FC0
FF8FC0
7F07C0
000000
01C000
01C000
018000
038000
010000
ENDCHAR
STARTCHAR kcommaaccent
ENCODING 311
SWIDTH 600 0
DWIDTH 18 0
BBX 16 25 1 -6
BITMAP
7800
F800
F800
3800
3800
3800
38FC
39FE
38FC
39E0
3FC0
3F80
3F80
3FC0
39E0
38F8
F87F
F87F
F87F
0000
0780
0700
0700
0600
0400
ENDCHAR
STARTCHAR kgreenlandic
ENCODING 312
SWIDTH 600 0
DWIDTH 18 0
BBX 14 13 2 0
BITMAP
F9FC
F9FC
F9FC
3BE0
3F80
3F00
3F00
3F80
3FC0
3BE0
F9FC
F9FC
F9FC
ENDCHAR
STARTCHAR Lacute
ENCODING 313
SWIDTH 600 0
DWIDTH 18 0
BBX 16 24 1 0
BITMAP
0180
0380
0700
0E00
0C00
0000
0000
FFC0
FFC0
7F80
0E00
0E00
0E00
0E00
0E00
0E00
0E03
0E07
0E07
0E07
0E07
FFFF
FFFF
FFFF
ENDCHAR
STARTCHAR lacute
ENCODING 314
SWIDTH 600 0
DWIDTH 18 0
BBX 14 24 2 0
BITMAP
0060
00E0
01C0
0380
0300
3F80
7F80
7F80
0780
0780
0780
0780
0780
0780
0780
0780
0780
0780
0780
0780
0780
FFFC
FFFC
FFFC
ENDCHAR
STARTCHAR Lcommaaccent
ENCODING 315
SWIDTH 600 0
DWIDTH 18 0
BBX 16 23 1 -6
BITMAP
FFC0
FFC0
7F80
0E00
0E00
0E00
0E00
0E00
0E00
0E03
0E07
0E07
0E07
0E07
FFFF
FFFF
FFFF
0000
01C0
0380
0380
0300
0300
ENDCHAR
STARTCHAR lcommaaccent
ENCODING 316
SWIDTH 600 0
DWIDTH 18 0
BBX 14 25 2 -6
BITMAP
3F80
7F80
7F80
0780
0780
0780
0780
0780
0780
0780
0780
0780
0780
0780
0780
0780
FFFC
FFFC
FFFC
0000
0700
0700
0600
0E00
0400
ENDCHAR
STARTCHAR Lcaron
ENCODING 317
SWIDTH 600 0
DWIDTH 18 0
BBX 16 18 1 0
BITMAP
0003
FFC7
FFCE
7F9C
0E18
0E00
0E00
0E00
0E00
0E00
0E03
0E07
0E07
0E07
0E07
FFFF
FFFF
FFFF
ENDCHAR
STARTCHAR lcaron
ENCODING 318
SWIDTH 600 0
DWIDTH 18 0
BBX 15 19 2 0
BITMAP
3F80
7F86
7F8E
079C
07B8
07B0
0780
0780
0780
0780
0780
0780
0780
0780
0780
0780
FFFC
FFFC
FFFC
ENDCHAR
STARTCHAR Ldot
ENCODING 319
SWIDTH 600 0
DWIDTH 18 0
BBX 16 17 1 0
BITMAP
FFC0
FFC0
7F80
0E18
0E3C
0E3C
0E18
0E00
0E00
0E03
0E07
0E07
0E07
0E07
FFFF
FFFF
FFFF
ENDCHAR
STARTCHAR ldot
ENCODING 320
SWIDTH 600 0
DWIDTH 18 0
BBX 15 19 2 0
BITMAP
3F80
7F80
7F80
0780
0780
078C
079E
079E
078C
0780
0780
0780
0780
0780
0780
0780
FFFC
FFFC
FFFC
ENDCHAR
STARTCHAR Lslash
ENCODING 321
SWIDTH 600 0
DWIDTH 18 0
BBX 17 17 0 0
BITMAP
7FE000
7FE000
3FC000
070000
071000
077800
07F800
07E000
1FC000
7F0100
FF0380
770380
070380
070380
7FFF80
7FFF80
7FFF80
ENDCHAR
STARTCHAR lslash
ENCODING 322
SWIDTH 600 0
DWIDTH 18 0
BBX 14 19 2 0
BITMAP
3F80
7F80
7F80
0780
0780
0780
07F0
07F0
07F0
1FC0
3F80
3F80
1780
0780
0780
0780
FFFC
FFFC
FFFC
ENDCHAR
STARTCHAR Nacute
ENCODING 323
SWIDTH 600 0
DWIDTH 18 0
BBX 18 24 0 0
BITMAP
001000
003800
007000
00E000
00C000
000000
000000
FC3FC0
FE3FC0
3E0F00
3F0700
3F0700
3F8700
3BC700
39C700
39E700
38F700
387700
387F00
383F00
381F00
7F1F00
FF0F00
7F0700
ENDCHAR
STARTCHAR nacute
ENCODING 324
SWIDTH 600 0
DWIDTH 18 0
BBX 16 20 1 0
BITMAP
0030
0070
01E0
01C0
0180
0000
0000
FBF0
FFF8
FFFC
3C1C
381C
381C
381C
381C
381C
381C
FE3F
FE7F
FE3F
ENDCHAR
STARTCHAR Ncommaaccent
ENCODING 325
SWIDTH 600 0
DWIDTH 18 0
BBX 18 23 0 -6
BITMAP
FC3FC0
FE3FC0
3E0F00
3F0700
3F0700
3F8700
3BC700
39C700
39E700
38F700
387700
387F00
383F00
381F00
7F1F00
FF0F00
7F0700
000000
01C000
01C000
018000
038000
010000
ENDCHAR
STARTCHAR ncommaaccent
ENCODING 326
SWIDTH 600 0
DWIDTH 18 0
BBX 16 19 1 -6
BITMAP
FBF0
FFF8
FFFC
3C1C
381C
381C
381C
381C
381C
381C
FE3F
FE7F
FE3F
0000
03C0
0380
0300
0300
0200
ENDCHAR
STARTCHAR Ncaron
ENCODING 327
SWIDTH 600 0
DWIDTH 18 0
BBX 18 24 0 0
BITMAP
0C0C00
0F3C00
07F800
01E000
00C000
000000
000000
FC3FC0
FE3FC0
3E0F00
3F0700
3F0700
3F8700
3BC700
39C700
39E700
38F700
387700
387F00
383F00
381F00
7F1F00
FF0F00
7F0700
ENDCHAR
STARTCHAR ncaron
ENCODING 328
SWIDTH 600 0
DWIDTH 18 0
BBX 16 20 1 0
BITMAP
1818
1E78
0FF0
03C0
0100
0000
0000
FBF0
FFF8
FFFC
3C1C
381C
381C
381C
381C
381C
381C
FE3F
FE7F
FE3F
ENDCHAR
STARTCHAR napostrophe
ENCODING 329
SWIDTH 600 0
DWIDTH 18 0
BBX 17 20 0 0
BITMAP
180000
380000
700000
E00000
C00000
000000
000000
7DF800
7FFC00
7FFE00
1E0E00
1C0E00
1C0E00
1C0E00
1C0E00
1C0E00
1C0E00
7F1F80
7F3F80
7F1F80
ENDCHAR
STARTCHAR Eng
ENCODING 330
SWIDTH 600 0
DWIDTH 18 0
BBX 16 23 1 -4
BITMAP
79F0
FFF8
FFFC
3E1E
380E
380E
380F
3807
3807
3807
3807
3807
3807
3807
3807
3807
FE0F
FE0E
FE0E
009E
01FC
01FC
0070
ENDCHAR
STARTCHAR eng
ENCODING 331
SWIDTH 600 0
DWIDTH 18 0
BBX 14 19 1 -6
BITMAP
FBF0
FFF8
FFFC
3C1C
381C
381C
381C
381C
381C
381C
FE1C
FE1C
FE1C
001C
001C
003C
03F8
07F8
03E0
ENDCHAR
STARTCHAR Omacron
ENCODING 332
SWIDTH 600 0
DWIDTH 18 0
BBX 16 22 1 0
BITMAP
1FF8
1FF8
0000
0000
07C0
0FF0
3FFC
7C3E
781E
F00F
E007
E007
E007
E007
E007
E007
E007
700E
781E
3FFC
1FF8
0FF0
ENDCHAR
STARTCHAR omacron
ENCODING 333
SWIDTH 600 0
DWIDTH 18 0
BBX 16 18 1 0
BITMAP
1FF8
1FF8
0000
0000
0000
0FF0
1FF8
3FFC
781E
700E
E007
E007
E007
700E
781E
3FFC
1FF8
0FF0
ENDCHAR
STARTCHAR Obreve
ENCODING 334
SWIDTH 600 0
DWIDTH 18 0
BBX 16 24 1 0
BITMAP
1018
1818
1EF8
0FF0
0180
0000
07C0
0FF0
3FFC
7C3E
781E
F00F
E007
E007
E007
E007
E007
E007
E007
700E
781E
3FFC
1FF8
0FF0
ENDCHAR
STARTCHAR obreve
ENCODING 335
SWIDTH 600 0
DWIDTH 18 0
BBX 16 20 1 0
BITMAP
1018
1818
1E78
0FE0
0180
0000
0000
0FF0
1FF8
3FFC
781E
700E
E007
E007
E007
700E
781E
3FFC
1FF8
0FF0
ENDCHAR
STARTCHAR Ohungarumlaut
ENCODING 336
SWIDTH 600 0
DWIDTH 18 0
BBX 16 24 1 0
BITMAP
0086
01CE
039C
0738
0630
0000
07C0
0FF0
3FFC
7C3E
781E
F00F
E007
E007
E007
E007
E007
E007
E007
700E
781E
3FFC
1FF8
0FF0
ENDCHAR
STARTCHAR ohungarumlaut
ENCODING 337
SWIDTH 600 0
DWIDTH 18 0
BBX 16 20 1 0
BITMAP
00C6
03CE
07BC
0638
0420
0000
0000
0FF0
1FF8
3FFC
781E
700E
E007
E007
E007
700E
781E
3FFC
1FF8
0FF0
ENDCHAR
STARTCHAR OE
ENCODING 338
SWIDTH 600 0
DWIDTH 18 0
BBX 19 17 -1 0
BITMAP
07FFE0
1FFFE0
3FFFE0
3C70E0
7870E0
7076E0
707600
E07F00
E07F00
F07F00
707600
707060
7870E0
3C70E0
1FFFE0
0FFFE0
03FFE0
ENDCHAR
STARTCHAR oe
ENCODING 339
SWIDTH 600 0
DWIDTH 18 0
BBX 18 13 0 0
BITMAP
3F3F00
7FFF80
7FFF80
F1F3C0
E1E1C0
E0FFC0
E0FFC0
E0FFC0
E1E000
F1E000
7FFFC0
7FFFC0
3F3F80
ENDCHAR
STARTCHAR Racute
ENCODING 340
SWIDTH 600 0
DWIDTH 18 0
BBX 18 24 0 0
BITMAP
006000
00E000
01C000
038000
030000
000000
000000
FFF800
FFFC00
3FFE00
1C0E00
1C0E00
1C0E00
1C1E00
1FFC00
1FF800
1FF000
1C7800
1C3C00
1C1E00
1C0F00
FF0FC0
FF87C0
FF03C0
ENDCHAR
STARTCHAR racute
ENCODING 341
SWIDTH 600 0
DWIDTH 18 0
BBX 15 20 2 0
BITMAP
0070
00E0
01C0
0380
0100
0000
0000
7CFC
FDFE
7FFE
1F84
1F00
1C00
1C00
1C00
1C00
1C00
FFF0
FFF8
FFF0
ENDCHAR
STARTCHAR Rcommaaccent
ENCODING 342
SWIDTH 600 0
DWIDTH 18 0
BBX 18 23 0 -6
BITMAP
FFF800
FFFC00
3FFE00
1C0E00
1C0E00
1C0E00
1C1E00
1FFC00
1FF800
1FF000
1C7800
1C3C00
1C1E00
1C0F00
FF0FC0
FF87C0
FF03C0
000000
01C000
038000
038000
030000
020000
ENDCHAR
STARTCHAR rcommaaccent
ENCODING 343
SWIDTH 600 0
DWIDTH 18 0
BBX 15 19 2 -6
BITMAP
7CFC
FDFE
7FFE
1F84
1F00
1C00
1C00
1C00
1C00
1C00
FFF0
FFF8
FFF0
0000
0F00
0E00
0C00
0C00
0800
ENDCHAR
STARTCHAR Rcaron
ENCODING 344
SWIDTH 600 0
DWIDTH 18 0
BBX 18 24 0 0
BITMAP
0C0C00
0F3C00
07F800
01E000
00C000
000000
000000
FFF800
FFFC00
3FFE00
1C0E00
1C0E00
1C0E00
1C1E00
1FFC00
1FF800
1FF000
1C7800
1C3C00
1C1E00
1C0F00
FF0FC0
FF87C0
FF03C0
ENDCHAR
STARTCHAR rcaron
ENCODING 345
SWIDTH 600 0
DWIDTH 18 0
BBX 15 20 2 0
BITMAP
3838
3C78
0FE0
07C0
0100
0000
0000
7CFC
FDFE
7FFE
1F84
1F00
1C00
1C00
1C00
1C00
1C00
FFF0
FFF8
FFF0
ENDCHAR
STARTCHAR Sacute
ENCODING 346
SWIDTH 600 0
DWIDTH 18 0
BBX 14 24 2 0
BITMAP
0060
00E0
03C0
0380
0200
0000
0FD8
3FF8
7FFC
787C
703C
F018
7018
7C00
3FE0
1FF0
03F8
003C
C01C
E01C
F03C
FFFC
FFF8
DFE0
ENDCHAR
STARTCHAR sacute
ENCODING 347
SWIDTH 600 0
DWIDTH 18 0
BBX 14 20 2 0
BITMAP
0040
00E0
01C0
0380
0300
0000
0000
1FF8
3FF8
7FF8
7038
7C00
7FE0
3FF8
03F8
603C
E03C
FFFC
FFF8
7FF0
ENDCHAR
STARTCHAR Scircumflex
ENCODING 348
SWIDTH 600 0
DWIDTH 18 0
BBX 14 24 2 0
BITMAP
0200
0F00
1FC0
7DE0
7070
0000
0FD8
3FF8
7FFC
787C
703C
F018
7018
7C00
3FE0
1FF0
03F8
003C
C01C
E01C
F03C
FFFC
FFF8
DFE0
ENDCHAR
STARTCHAR scircumflex
ENCODING 349
SWIDTH 600 0
DWIDTH 18 0
BBX 14 20 2 0
BITMAP
0200
0780
1FE0
3CF0
3030
0000
0000
1FF8
3FF8
7FF8
7038
7C00
7FE0
3FF8
03F8
603C
E03C
FFFC
FFF8
7FF0
ENDCHAR
STARTCHAR Scedilla
ENCODING 350
SWIDTH 600 0
DWIDTH 18 0
BBX 14 24 2 -6
BITMAP
0FD8
3FF8
7FFC
787C
703C
F018
7018
7C00
3FE0
1FF0
03F8
003C
C01C
E01C
F03C
FFFC
FFF8
DFE0
0300
03C0
00C0
0CC0
1FC0
0780
ENDCHAR
STARTCHAR scedilla
ENCODING 351
SWIDTH 600 0
DWIDTH 18 0
BBX 14 19 2 -6
BITMAP
1FF8
3FF8
7FF8
7038
7C10
7FE0
3FF8
03F8
603C
E03C
FFFC
FFF8
7FF0
0300
03C0
00C0
0CC0
1FC0
0780
ENDCHAR
STARTCHAR Scaron
ENCODING 352
SWIDTH 600 0
DWIDTH 18 0
BBX 14 24 2 0
BITMAP
3030
3CF0
1FE0
0780
0300
0000
0FD8
3FF8
7FFC
787C
703C
F018
7018
7C00
3FE0
1FF0
03F8
003C
C01C
E01C
F03C
FFFC
FFF8
DFE0
ENDCHAR
STARTCHAR scaron
ENCODING 353
SWIDTH 600 0
DWIDTH 18 0
BBX 14 20 2 0
BITMAP
3030
3CF0
1FE0
0780
0100
0000
0000
1FF8
3FF8
7FF8
7038
7C00
7FE0
3FF8
03F8
603C
E03C
FFFC
FFF8
7FF0
ENDCHAR
STARTCHAR uni0162
ENCODING 354
SWIDTH 600 0
DWIDTH 18 0
BBX 16 23 1 -6
BITMAP
FFFF
FFFF
FFFF
E387
E387
E387
E387
0380
0380
0380
0380
0380
0380
0380
1FF8
1FF8
1FF8
01C0
01E0
0060
0660
07E0
03C0
ENDCHAR
STARTCHAR uni0163
ENCODING 355
SWIDTH 600 0
DWIDTH 18 0
BBX 16 24 0 -6
BITMAP
0C00
1C00
1C00
1C00
1C00
7FFC
FFFC
7FF8
1C00
1C00
1C00
1C00
1C00
1C00
1E06
0FFF
0FFF
07FC
01C0
01E0
0070
0670
07E0
03C0
ENDCHAR
STARTCHAR Tcaron
ENCODING 356
SWIDTH 600 0
DWIDTH 18 0
BBX 16 24 1 0
BITMAP
1818
1E78
0FF0
03C0
0180
0000
0000
FFFF
FFFF
FFFF
E387
E387
E387
E387
0380
0380
0380
0380
0380
0380
0380
1FF8
1FF8
1FF8
ENDCHAR
STARTCHAR tcaron
ENCODING 357
SWIDTH 600 0
DWIDTH 18 0
BBX 18 19 0 0
BITMAP
000080
0C01C0
1C0380
1C0700
1C0600
1C0000
7FFC00
FFFC00
7FF800
1C0000
1C0000
1C0000
1C0000
1C0000
1C0000
1E0600
0FFF00
0FFF00
07FC00
ENDCHAR
STARTCHAR Tbar
ENCODING 358
SWIDTH 600 0
DWIDTH 18 0
BBX 16 17 1 0
BITMAP
FFFF
FFFF
FFFF
E387
E387
E387
E387
0380
0380
1FF8
1FF8
0FF0
0380
0380
1FF8
1FF8
1FF8
ENDCHAR
STARTCHAR tbar
ENCODING 359
SWIDTH 600 0
DWIDTH 18 0
BBX 16 18 0 0
BITMAP
0C00
1C00
1C00
1C00
1C00
7FFC
FFFC
7FF8
1C00
1C00
FF80
FF80
3F00
1C00
1E06
0FFF
0FFF
07FC
ENDCHAR
STARTCHAR Utilde
ENCODING 360
SWIDTH 600 0
DWIDTH 18 0
BBX 18 22 0 0
BITMAP
070400
0FEC00
1CFC00
083000
000000
FF3FC0
FF3FC0
3E0F00
380700
380700
380700
380700
380700
380700
380700
380700
380700
380700
1C0E00
1FFE00
0FFC00
07F800
ENDCHAR
STARTCHAR utilde
ENCODING 361
SWIDTH 600 0
DWIDTH 18 0
BBX 17 19 0 0
BITMAP
078C00
0FFC00
18F800
000000
000000
000000
7C3E00
FC7E00
7C3E00
1C0E00
1C0E00
1C0E00
1C0E00
1C0E00
1C0E00
1C1E00
1FFF80
0FFF80
07EF80
ENDCHAR
STARTCHAR Umacron
ENCODING 362
SWIDTH 600 0
DWIDTH 18 0
BBX 18 22 0 0
BITMAP
0FFC00
0FFC00
000000
000000
000000
FF3FC0
FF3FC0
3E0F00
380700
380700
380700
380700
380700
380700
380700
380700
380700
380700
1C0E00
1FFE00
0FFC00
07F800
ENDCHAR
STARTCHAR umacron
ENCODING 363
SWIDTH 600 0
DWIDTH 18 0
BBX 17 18 0 0
BITMAP
0FFC00
0FFC00
000000
000000
000000
7C3E00
FC7E00
7C3E00
1C0E00
1C0E00
1C0E00
1C0E00
1C0E00
1C0E00
1C1E00
1FFF80
0FFF80
07EF80
ENDCHAR
STARTCHAR Ubreve
ENCODING 364
SWIDTH 600 0
DWIDTH 18 0
BBX 18 24 0 0
BITMAP
0C0400
0C0C00
0FBC00
03F800
004000
000000
000000
FF3FC0
FF3FC0
3E0F00
380700
380700
380700
380700
380700
380700
380700
380700
380700
380700
1C0E00
1FFE00
0FFC00
07F800
ENDCHAR
STARTCHAR ubreve
ENCODING 365
SWIDTH 600 0
DWIDTH 18 0
BBX 17 20 0 0
BITMAP
080C00
0C0C00
0F3C00
07F800
01E000
000000
000000
7C3E00
FC7E00
7C3E00
1C0E00
1C0E00
1C0E00
1C0E00
1C0E00
1C0E00
1C1E00
1FFF80
0FFF80
07EF80
ENDCHAR
STARTCHAR Uring
ENCODING 366
SWIDTH 600 0
DWIDTH 18 0
BBX 18 24 0 0
BITMAP
01E000
03E000
033000
03F000
01E000
000000
000000
FF3FC0
FF3FC0
3E0F00
380700
380700
380700
380700
380700
380700
380700
380700
380700
380700
1C0E00
1FFE00
0FFC00
07F800
ENDCHAR
STARTCHAR uring
ENCODING 367
SWIDTH 600 0
DWIDTH 18 0
BBX 17 20 0 0
BITMAP
01E000
03F000
033000
03F000
01E000
000000
000000
7C3E00
FC7E00
7C3E00
1C0E00
1C0E00
1C0E00
1C0E00
1C0E00
1C0E00
1C1E00
1FFF80
0FFF80
07EF80
ENDCHAR
STARTCHAR Uhungarumlaut
ENCODING 368
SWIDTH 600 0
DWIDTH 18 0
BBX 18 24 0 0
BITMAP
004200
00E700
01CE00
039C00
071800
000000
000000
FF3FC0
FF3FC0
3E0F00
380700
380700
380700
380700
380700
380700
380700
380700
380700
380700
1C0E00
1FFE00
0FFC00
07F800
ENDCHAR
STARTCHAR uhungarumlaut
ENCODING 369
SWIDTH 600 0
DWIDTH 18 0
BBX 17 20 0 0
BITMAP
004300
01E700
03CE00
079C00
021800
000000
000000
7C3E00
FC7E00
7C3E00
1C0E00
1C0E00
1C0E00
1C0E00
1C0E00
1C0E00
1C1E00
1FFF80
0FFF80
07EF80
ENDCHAR
STARTCHAR Uogonek
ENCODING 370
SWIDTH 600 0
DWIDTH 18 0
BBX 18 23 0 -6
BITMAP
FF3FC0
FF3FC0
3E0F00
380700
380700
380700
380700
380700
380700
380700
380700
380700
380700
1C0E00
1FFE00
0FFC00
03F800
003000
006000
00E000
00EC00
007E00
007C00
ENDCHAR
STARTCHAR uogonek
ENCODING 371
SWIDTH 600 0
DWIDTH 18 0
BBX 17 19 0 -6
BITMAP
7C3E00
FC7E00
7C3E00
1C0E00
1C0E00
1C0E00
1C0E00
1C0E00
1C0E00
1C1E00
1FFF80
0FFF80
07EF80
000E00
001C00
001800
001B80
001F80
000F00
ENDCHAR
STARTCHAR Wcircumflex
ENCODING 372
SWIDTH 600 0
DWIDTH 18 0
BBX 18 23 0 0
BITMAP
01E000
07F800
0F3C00
0C0C00
000000
000000
FF3FC0
FF3FC0
7C0F80
700380
71E380
79E380
39F700
3BF700
3BF700
3BFF00
3F3F00
3F3F00
3F3F00
3E1F00
1E1E00
1E1E00
1C0E00
ENDCHAR
STARTCHAR wcircumflex
ENCODING 373
SWIDTH 600 0
DWIDTH 18 0
BBX 18 19 0 0
BITMAP
00C000
03F000
07F800
0E1C00
080400
000000
FC0FC0
FE1FC0
7C0F80
39E700
39E700
39E700
1FFF00
1FFE00
1FFE00
1F3E00
0F3E00
0F1C00
0E1C00
ENDCHAR
STARTCHAR Ycircumflex
ENCODING 374
SWIDTH 600 0
DWIDTH 18 0
BBX 16 23 1 0
BITMAP
03C0
07E0
1E78
1818
0000
0000
FC3F
FC3F
781E
3C3C
1E78
0E70
0FF0
07E0
03C0
03C0
03C0
03C0
03C0
03C0
1FF8
1FF8
1FF8
ENDCHAR
STARTCHAR ycircumflex
ENCODING 375
SWIDTH 600 0
DWIDTH 18 0
BBX 16 25 1 -6
BITMAP
0180
07E0
1FF8
1C38
0000
0000
FC3F
FC3F
FC3F
781C
381C
3C38
1C38
1E70
0E70
0FE0
07E0
03C0
03C0
0380
0780
0700
FFC0
FFC0
FFC0
ENDCHAR
STARTCHAR Ydieresis
ENCODING 376
SWIDTH 600 0
DWIDTH 18 0
BBX 16 22 1 0
BITMAP
1C38
1E78
1C38
0000
0000
FC3F
FC3F
781E
3C3C
1E78
0E70
0FF0
07E0
03C0
03C0
03C0
03C0
03C0
03C0
1FF8
1FF8
1FF8
ENDCHAR
STARTCHAR Zacute
ENCODING 377
SWIDTH 600 0
DWIDTH 18 0
BBX 14 24 2 0
BITMAP
0060
00E0
03C0
0380
0200
0000
0000
7FF8
7FF8
7FF8
70F0
70F0
71E0
23C0
0780
0700
0F00
1E1C
3C1C
781C
701C
FFFC
FFFC
FFFC
ENDCHAR
STARTCHAR zacute
ENCODING 378
SWIDTH 600 0
DWIDTH 18 0
BBX 13 20 3 0
BITMAP
00C0
01C0
0380
0700
0600
0000
0000
FFF0
FFF0
FFF0
E1E0
E3C0
0780
0F00
1E00
3C10
7830
FFF8
FFF8
FFF8
ENDCHAR
STARTCHAR Zdotaccent
ENCODING 379
SWIDTH 600 0
DWIDTH 18 0
BBX 14 23 2 0
BITMAP
0300
0780
0780
0300
0000
0000
7FF8
7FF8
7FF8
70F0
70F0
71E0
23C0
0780
0700
0F00
1E1C
3C1C
781C
701C
FFFC
FFFC
FFFC
ENDCHAR
STARTCHAR zdotaccent
ENCODING 380
SWIDTH 600 0
DWIDTH 18 0
BBX 13 19 3 0
BITMAP
0600
0700
0700
0600
0000
0000
FFF0
FFF0
FFF0
E1E0
E3C0
0780
0F00
1E00
3C10
7830
FFF8
FFF8
FFF8
ENDCHAR
STARTCHAR Zcaron
ENCODING 381
SWIDTH 600 0
DWIDTH 18 0
BBX 14 24 2 0
BITMAP
3030
3CF0
1FE0
0780
0300
0000
0000
7FF8
7FF8
7FF8
70F0
70F0
71E0
23C0
0780
0700
0F00
1E1C
3C1C
781C
701C
FFFC
FFFC
FFFC
ENDCHAR
STARTCHAR zcaron
ENCODING 382
SWIDTH 600 0
DWIDTH 18 0
BBX 13 20 3 0
BITMAP
6060
79E0
3FC0
0F00
0400
0000
0000
FFF0
FFF0
FFF0
E1E0
E3C0
0780
0F00
1E00
3C10
7830
FFF8
FFF8
FFF8
ENDCHAR
STARTCHAR longs
ENCODING 383
SWIDTH 600 0
DWIDTH 18 0
BBX 15 19 2 0
BITMAP
00E8
03FE
07FE
0F8C
0E00
0E00
7E00
7E00
7E00
0E00
0E00
0E00
0E00
0E00
0E00
0E00
7FF8
FFF8
7FF8
ENDCHAR
STARTCHAR uni0180
ENCODING 384
SWIDTH 600 0
DWIDTH 18 0
BBX 17 19 0 0
BITMAP
7F8000
FFC000
FFC000
380000
380000
380000
3BFC00
3FFE00
3FBF00
3E0780
3C0380
380380
380380
380380
3C0380
3E0700
FFFF00
FFFE00
FBFC00
ENDCHAR
STARTCHAR uni0181
ENCODING 385
SWIDTH 600 0
DWIDTH 18 0
BBX 19 17 -1 0
BITMAP
7FFE00
FFFF00
FFFF80
EE0380
EE0380
6E0380
0E0F80
0FFF00
0FFF80
0FFFC0
0E01C0
0E01E0
0E00E0
0E01E0
3FFFC0
3FFF80
3FFF00
ENDCHAR
STARTCHAR uni0182
ENCODING 386
SWIDTH 600 0
DWIDTH 18 0
BBX 16 17 1 0
BITMAP
FFFF
FFFF
3FFF
3807
3807
3806
3800
3FFC
3FFE
3FFF
3807
3807
3807
380F
FFFF
FFFE
FFFC
ENDCHAR
STARTCHAR uni0183
ENCODING 387
SWIDTH 600 0
DWIDTH 18 0
BBX 17 19 0 0
BITMAP
7FFE00
FFFF00
FFFF00
380000
380000
380000
3BFC00
3FFE00
3FBF00
3E0780
3C0380
380380
380380
380380
3C0380
3E0700
FFFF00
FFFE00
FBFC00
ENDCHAR
STARTCHAR uni0184
ENCODING 388
SWIDTH 600 0
DWIDTH 18 0
BBX 16 18 1 0
BITMAP
3F00
3F00
3E00
7C00
F800
F800
3800
3FF0
3FFC
3FFE
380F
3807
3807
3807
3807
7FFE
FFFC
FFF8
ENDCHAR
STARTCHAR uni0185
ENCODING 389
SWIDTH 600 0
DWIDTH 18 0
BBX 17 18 0 0
BITMAP
1B8000
3F8000
3F0000
7C0000
F86000
FBFC00
3FFE00
3F0F00
3C0780
3C0380
380380
380380
380380
3C0380
3C0700
7F1F00
FFFE00
FBFC00
ENDCHAR
STARTCHAR uni0186
ENCODING 390
SWIDTH 600 0
DWIDTH 18 0
BBX 16 18 1 0
BITMAP
0FC0
3FF0
FFFC
F03C
E01E
000F
0007
0007
0007
0007
0007
0007
600F
F00E
F01E
FFFC
FFF8
6FF0
ENDCHAR
STARTCHAR uni0187
ENCODING 391
SWIDTH 600 0
DWIDTH 18 0
BBX 19 20 1 0
BITMAP
0003C0
0007E0
03E7E0
0FFE00
3FFE00
3C3E00
780E00
F00600
E00600
E00000
E00000
E00000
E00000
E00000
E00000
700200
780F00
3FFF00
1FFE00
0FF800
ENDCHAR
STARTCHAR uni0188
ENCODING 392
SWIDTH 600 0
DWIDTH 18 0
BBX 18 16 2 0
BITMAP
000F80
000FC0
011FC0
1FFC00
3FFC00
7FFC00
F01C00
E01C00
E00C00
E00000
E00000
E00000
F00E00
7FFE00
7FFC00
1FF800
ENDCHAR
STARTCHAR uni0189
ENCODING 393
SWIDTH 600 0
DWIDTH 18 0
BBX 17 17 0 0
BITMAP
FFF800
FFFC00
3FFE00
380E00
380F00
380700
380700
FF8700
FF8780
7F0780
380700
380700
380F00
381E00
7FFE00
FFFC00
7FF000
ENDCHAR
STARTCHAR uni018A
ENCODING 394
SWIDTH 600 0
DWIDTH 18 0
BBX 20 17 -3 0
BITMAP
7FFF00
7FFF80
FFFFC0
F701C0
7701E0
3700E0
0700E0
0700E0
0700F0
0700F0
0700E0
0700E0
0701E0
0703C0
0FFFC0
1FFF80
0FFE00
ENDCHAR
STARTCHAR uni018B
ENCODING 395
SWIDTH 600 0
DWIDTH 18 0
BBX 16 17 1 0
BITMAP
FFFF
FFFF
FFFE
E01C
E01C
601C
001C
3FFC
7FFC
FFFC
E01C
E01C
E01C
F01C
FFFF
7FFF
3FFF
ENDCHAR
STARTCHAR uni018C
ENCODING 396
SWIDTH 600 0
DWIDTH 18 0
BBX 17 19 1 0
BITMAP
3FFE00
7FFE00
7FFE00
000E00
000E00
010E00
1FEE00
3FFE00
7EFE00
701E00
E01E00
E00E00
E00E00
E00E00
F01E00
783E00
7FFF80
3FFF80
1FEF80
ENDCHAR
STARTCHAR uni018D
ENCODING 397
SWIDTH 600 0
DWIDTH 18 0
BBX 16 20 1 -6
BITMAP
01C0
0FF0
3FFC
3E7C
781E
F00E
E007
E007
E007
700E
781E
3FFC
1FFC
0FFE
003E
600E
FC0E
FFFE
7FFC
63F8
ENDCHAR
STARTCHAR uni018E
ENCODING 398
SWIDTH 600 0
DWIDTH 18 0
BBX 16 17 1 0
BITMAP
FFFF
FFFF
FFFE
E01C
E01C
E71C
071C
07FC
07FC
07FC
071C
731C
701C
701C
7FFF
7FFF
7FFF
ENDCHAR
STARTCHAR uni018f
ENCODING 399
SWIDTH 600 0
DWIDTH 18 0
BBX 16 18 1 0
BITMAP
0FC0
3FF0
7FFC
F03C
E00E
400E
0007
0007
FFFF
FFFF
C007
E007
E006
F00E
701E
3C7C
3FF8
0FF0
ENDCHAR
STARTCHAR uni0190
ENCODING 400
SWIDTH 600 0
DWIDTH 18 0
BBX 14 18 2 0
BITMAP
0FD8
3FFC
7FFC
787C
703C
F018
7018
7C00
7FE0
3FE0
7FC0
F000
E00C
E01C
F03C
FFFC
7FFC
1FEC
ENDCHAR
STARTCHAR uni0191
ENCODING 401
SWIDTH 600 0
DWIDTH 18 0
BBX 20 21 -3 -4
BITMAP
1FFFF0
1FFFF0
07FFF0
0380F0
038060
038C60
039C00
03FC00
03FC00
03FC00
039C00
038C00
038000
038000
038000
038000
078000
4F0000
FF0000
FE0000
380000
ENDCHAR
STARTCHAR florin
ENCODING 402
SWIDTH 600 0
DWIDTH 18 0
BBX 14 23 2 -4
BITMAP
00FC
01FC
03FC
0380
0380
0380
0380
3FF0
3FF0
3FF0
0380
0380
0380
0380
0380
0380
0380
0380
0700
4F00
FF00
FE00
7000
ENDCHAR
STARTCHAR uni0193
ENCODING 403
SWIDTH 600 0
DWIDTH 18 0
BBX 19 20 1 0
BITMAP
0003C0
0007E0
03E7E0
0FFF40
3FFF00
3C1F00
780F00
F00600
E00000
E00000
E00000
E00000
E0FF80
E0FF80
E07F00
F00F00
780F00
3FFF00
3FFF00
0FF800
ENDCHAR
STARTCHAR uni0194
ENCODING 404
SWIDTH 600 0
DWIDTH 18 0
BBX 16 19 1 -1
BITMAP
781E
FC3F
FC3F
381C
1C38
1E78
0E70
07E0
03C0
03C0
03C0
07E0
0FE0
0E70
0E70
0E70
07E0
07E0
0180
ENDCHAR
STARTCHAR uni0195
ENCODING 405
SWIDTH 600 0
DWIDTH 18 0
BBX 19 19 -1 0
BITMAP
7C0000
FC0000
FC0000
1C0000
1C0000
1C0000
1FE3E0
1FF3E0
1FF3E0
1C78E0
1C38E0
1C38E0
1C38E0
1C38E0
1C38E0
1C38E0
7E3FE0
FF3FE0
7E1FC0
ENDCHAR
STARTCHAR uni0196
ENCODING 406
SWIDTH 600 0
DWIDTH 18 0
BBX 13 17 3 0
BITMAP
FF00
FF00
3F00
0F00
0F00
0F00
0F00
0F00
0F00
0F00
0F00
0F00
0700
0700
07F8
03F8
01F8
ENDCHAR
STARTCHAR uni0197
ENCODING 407
SWIDTH 600 0
DWIDTH 18 0
BBX 14 17 2 0
BITMAP
7FF8
7FF8
3FF0
0780
0780
0780
0780
7FF8
FFFC
7FF8
0780
0780
0780
0780
7FF8
FFFC
7FF8
ENDCHAR
STARTCHAR uni0198
ENCODING 408
SWIDTH 600 0
DWIDTH 18 0
BBX 19 18 0 0
BITMAP
7E1F00
FF3FC0
FF3FE0
181EE0
183CE0
18F3E0
19E3C0
1BC100
1FC000
1FF000
1EF000
1C3800
183C00
181C00
181E00
7F0F80
FF0FC0
7F0780
ENDCHAR
STARTCHAR uni0199
ENCODING 409
SWIDTH 600 0
DWIDTH 18 0
BBX 16 19 1 0
BITMAP
07E0
0FE0
1FE0
1C00
3C00
3800
38FC
39FE
38FC
39E0
3FC0
3F80
3F80
3FC0
39E0
38F8
F87F
F87F
F87F
ENDCHAR
STARTCHAR uni019A
ENCODING 410
SWIDTH 600 0
DWIDTH 18 0
BBX 14 19 2 0
BITMAP
3F80
7F80
7F80
0780
0780
0780
0780
0780
0780
7FF8
FFFC
7FF8
0780
0780
0780
0780
FFFC
FFFC
FFFC
ENDCHAR
STARTCHAR uni019B
ENCODING 411
SWIDTH 600 0
DWIDTH 18 0
BBX 16 19 1 0
BITMAP
7C00
FEF0
FFF0
07E0
1F80
3F80
3BC0
07C0
07E0
0FE0
0E70
1E70
1C38
3C3C
381C
781E
FC3F
FC3F
FC3F
ENDCHAR
STARTCHAR uni019C
ENCODING 412
SWIDTH 600 0
DWIDTH 18 0
BBX 20 17 -1 0
BITMAP
F9F7F0
F9F7F0
3871C0
3871C0
3871C0
3871C0
3871C0
3871C0
3871C0
3871C0
3871C0
3871C0
3871C0
38F3C0
3FFFE0
1FFFF0
0FBFE0
ENDCHAR
STARTCHAR uni019D
ENCODING 413
SWIDTH 600 0
DWIDTH 18 0
BBX 22 21 -4 -4
BITMAP
0FC3FC
0FE3FC
03E0F0
03F070
03F070
03F870
03BC70
039C70
039E70
038F70
038770
0387F0
0383F0
0381F0
0381F0
0380F0
038070
678000
FF0000
FE0000
380000
ENDCHAR
STARTCHAR uni019E
ENCODING 414
SWIDTH 600 0
DWIDTH 18 0
BBX 16 19 1 -6
BITMAP
FBF0
FFF8
FFFC
3C1C
381C
381C
381C
381C
381C
381C
FE1C
FE1C
FE1C
001C
001C
001C
003F
007F
003F
ENDCHAR
STARTCHAR uni019F
ENCODING 415
SWIDTH 600 0
DWIDTH 18 0
BBX 16 18 1 0
BITMAP
07C0
0FF0
3FFC
7C3E
781E
F00F
E007
E007
FFFF
FFFF
FFFF
E007
E007
700E
781E
3FFC
1FF8
0FF0
ENDCHAR
STARTCHAR Ohorn
ENCODING 416
SWIDTH 600 0
DWIDTH 18 0
BBX 17 20 1 0
BITMAP
000300
000780
07C380
0FFF80
3FFF80
7C3F00
781E00
F00F00
E00700
E00700
E00700
E00700
E00700
E00700
E00700
700E00
781E00
3FFC00
1FF800
0FF000
ENDCHAR
STARTCHAR ohorn
ENCODING 417
SWIDTH 600 0
DWIDTH 18 0
BBX 17 15 1 0
BITMAP
000700
000780
0FF380
1FFF80
3FFF00
781E00
700E00
E00700
E00700
E00700
700E00
781E00
3FFC00
1FF800
0FF000
ENDCHAR
STARTCHAR uni01A2
ENCODING 418
SWIDTH 600 0
DWIDTH 18 0
BBX 20 19 0 0
BITMAP
000E00
0FBF00
1FFF80
3FF380
78F380
707380
F03B80
E03B80
E03B80
E03B80
E03B80
E03B80
E03B80
E03B80
707B80
707380
7FF7E0
3FEFF0
1FC7E0
ENDCHAR
STARTCHAR uni01A3
ENCODING 419
SWIDTH 600 0
DWIDTH 18 0
BBX 21 15 -1 0
BITMAP
000600
011F80
1FFFC0
3FFDC0
7FF9C0
703DC0
E01DC0
E01DC0
E01DC0
E01DC0
F01DC0
703DC0
7FFBF0
3FF7F8
1FE3F0
ENDCHAR
STARTCHAR uni01A4
ENCODING 420
SWIDTH 600 0
DWIDTH 18 0
BBX 18 17 -2 0
BITMAP
7FFE00
FFFF00
FFFF80
E703C0
E701C0
6701C0
0703C0
070780
07FF80
07FF00
07FC00
070000
070000
070000
1FF000
3FF800
1FF000
ENDCHAR
STARTCHAR uni01A5
ENCODING 421
SWIDTH 600 0
DWIDTH 18 0
BBX 17 25 0 -6
BITMAP
07C000
0FE000
1FE000
3C0000
380000
380000
3BFC00
3FFE00
3FFF00
3C0780
3C0380
380380
380380
3C0380
3C0780
3F1F00
3FFE00
3BFC00
386000
380000
380000
380000
FF8000
FF8000
FF8000
ENDCHAR
STARTCHAR uni01A6
ENCODING 422
SWIDTH 600 0
DWIDTH 18 0
BBX 16 23 1 -6
BITMAP
FE00
FE00
3C00
3800
3FF0
3FF8
3FFC
381C
381C
3FFC
3FF8
3FF0
3870
3878
FE38
FF38
FE38
0018
001C
001C
001F
001F
000F
ENDCHAR
STARTCHAR uni01A7
ENCODING 423
SWIDTH 600 0
DWIDTH 18 0
BBX 14 18 2 0
BITMAP
6FC0
FFF0
FFF8
F878
F038
603C
6038
00F8
1FF0
3FE0
7F00
F000
E00C
E01C
F03C
FFFC
7FFC
1FEC
ENDCHAR
STARTCHAR uni01A8
ENCODING 424
SWIDTH 600 0
DWIDTH 18 0
BBX 14 13 2 0
BITMAP
7FE0
7FF0
7FF8
7038
20F8
1FF8
7FF0
7F00
F018
F03C
FFFC
7FFC
3FF8
ENDCHAR
STARTCHAR uni01A9
ENCODING 425
SWIDTH 600 0
DWIDTH 18 0
BBX 14 17 2 0
BITMAP
FFFC
FFFC
FFFC
781C
3C1C
1C1C
1E08
0F00
0F00
0F00
1E1C
3C1C
781C
701C
FFFC
FFFC
FFFC
ENDCHAR
STARTCHAR uni01aa
ENCODING 426
SWIDTH 600 0
DWIDTH 18 0
BBX 14 22 2 -4
BITMAP
7C00
FE00
EF00
CF00
FF00
FF80
3B80
0380
0380
0380
0380
0380
0380
0380
0380
0380
0380
0380
03C0
01FC
00FC
0010
ENDCHAR
STARTCHAR uni01AB
ENCODING 427
SWIDTH 600 0
DWIDTH 18 0
BBX 16 24 0 -6
BITMAP
0C00
1C00
1C00
1C00
1C00
7FFC
FFFC
7FF8
1C00
1C00
1C00
1C00
1C00
1C00
1E06
0FFF
0FFF
07FF
0007
0007
000F
01FE
01FC
00F8
ENDCHAR
STARTCHAR uni01AC
ENCODING 428
SWIDTH 600 0
DWIDTH 18 0
BBX 17 17 0 0
BITMAP
7FFF80
FFFF80
FFFF80
E1C380
F1C380
61C380
01C380
01C000
01C000
01C000
01C000
01C000
01C000
01C000
0FFC00
0FFC00
0FFC00
ENDCHAR
STARTCHAR uni01AD
ENCODING 429
SWIDTH 600 0
DWIDTH 18 0
BBX 16 19 0 0
BITMAP
03F0
07F0
0FF0
0E00
1E00
1C00
7FFC
FFFC
7FF8
1C00
1C00
1C00
1C00
1C00
1C00
1E06
0FFF
0FFF
07FC
ENDCHAR
STARTCHAR uni01AE
ENCODING 430
SWIDTH 600 0
DWIDTH 18 0
BBX 16 21 1 -4
BITMAP
FFFF
FFFF
FFFF
E387
E387
E387
E387
0380
0380
0380
0380
0380
0380
0380
0380
0380
01C0
01E4
00FE
00FE
0018
ENDCHAR
STARTCHAR Uhorn
ENCODING 431
SWIDTH 600 0
DWIDTH 18 0
BBX 18 21 0 0
BITMAP
000180
000380
0001C0
0003C0
FF3FC0
FF3F80
7C1F00
380700
380700
380700
380700
380700
380700
380700
380700
380700
380E00
3C1E00
1FFE00
0FFC00
07F000
ENDCHAR
STARTCHAR uhorn
ENCODING 432
SWIDTH 600 0
DWIDTH 18 0
BBX 18 17 0 0
BITMAP
000100
000380
0003C0
0001C0
F87FC0
F87FC0
787F80
380E00
380E00
380E00
380E00
380E00
380E00
1C1E00
1FFF00
1FFF80
0FEF00
ENDCHAR
STARTCHAR uni01b1
ENCODING 433
SWIDTH 600 0
DWIDTH 18 0
BBX 15 19 2 -1
BITMAP
FEFE
FEFE
FEFE
CECE
CECE
FEF4
7EF8
783C
E01C
E00C
E00E
E00E
E00E
E01C
F01C
783C
3FF8
1FF0
0780
ENDCHAR
STARTCHAR uni01b2
ENCODING 434
SWIDTH 600 0
DWIDTH 18 0
BBX 16 19 1 -1
BITMAP
7C1E
FE1F
FE1F
381C
381C
381C
381C
381C
381C
381C
381C
381C
381C
381C
381C
3C3C
1FF8
0FF0
0080
ENDCHAR
STARTCHAR uni01B3
ENCODING 435
SWIDTH 600 0
DWIDTH 18 0
BBX 19 17 -2 0
BITMAP
7F87E0
FF87E0
FF03C0
F78780
73CF00
71CE00
01FE00
00FC00
007800
007800
007800
007800
007800
007800
03FF00
03FF00
03FF00
ENDCHAR
STARTCHAR uni01B4
ENCODING 436
SWIDTH 600 0
DWIDTH 18 0
BBX 19 22 1 -6
BITMAP
0001C0
0001E0
0000E0
FC3FE0
FC3FE0
FC3F80
781C00
381C00
3C3800
1C3800
1E7000
0E7000
0FE000
07E000
03C000
03C000
038000
078000
070000
FFC000
FFC000
FFC000
ENDCHAR
STARTCHAR uni01B5
ENCODING 437
SWIDTH 600 0
DWIDTH 18 0
BBX 14 17 2 0
BITMAP
7FF8
7FF8
7FF8
70F0
70F0
01E0
03C0
7FF0
FFF0
7FF0
1E00
3C18
781C
701C
FFFC
FFFC
FFFC
ENDCHAR
STARTCHAR uni01B6
ENCODING 438
SWIDTH 600 0
DWIDTH 18 0
BBX 13 13 3 0
BITMAP
FFF0
FFF0
FFF0
E1E0
E3C0
3F80
7FE0
7FC0
3C10
7830
FFF8
FFF8
FFF8
ENDCHAR
STARTCHAR uni01B7
ENCODING 439
SWIDTH 600 0
DWIDTH 18 0
BBX 16 19 1 -2
BITMAP
3FFC
3FFC
3FFC
3878
3878
00F0
01E0
03F8
07FC
03FE
000F
0007
0007
E007
F80F
7FFE
3FFC
0FF8
0080
ENDCHAR
STARTCHAR uni01B8
ENCODING 440
SWIDTH 600 0
DWIDTH 18 0
BBX 16 19 1 -2
BITMAP
3FFC
3FFC
3FFC
1E1C
0F0C
0700
0780
1FE0
3FE0
7FE0
7000
E000
E000
F007
701F
7FFE
3FFC
1FF0
0100
ENDCHAR
STARTCHAR uni01b9
ENCODING 441
SWIDTH 600 0
DWIDTH 18 0
BBX 12 18 2 -5
BITMAP
FFE0
FFE0
3C00
1E00
0F00
1F80
3FC0
7FC0
7080
7000
E000
E000
6000
7000
7070
39F0
3FE0
1F80
ENDCHAR
STARTCHAR uni01ba
ENCODING 442
SWIDTH 600 0
DWIDTH 18 0
BBX 12 19 2 -6
BITMAP
7FF0
7FF0
03C0
0780
0F00
1FC0
3FE0
3DE0
1060
0060
00E0
1FE0
7FC0
FF00
E060
E070
FFF0
7FE0
3F80
ENDCHAR
STARTCHAR uni01BB
ENCODING 443
SWIDTH 600 0
DWIDTH 18 0
BBX 14 18 2 0
BITMAP
0F80
3FE0
7FF0
7878
F038
E038
0038
0078
3FF8
7FF8
3FF8
0F80
1F00
7E08
F81C
FFFC
FFFC
FFFC
ENDCHAR
STARTCHAR uni01bc
ENCODING 444
SWIDTH 600 0
DWIDTH 18 0
BBX 14 19 2 -1
BITMAP
7FE0
FFF0
FFF0
3000
3000
3300
3FE0
3FF0
3878
0038
001C
001C
001C
001C
E038
F878
7FF0
3FE0
0780
ENDCHAR
STARTCHAR uni01bd
ENCODING 445
SWIDTH 600 0
DWIDTH 18 0
BBX 11 14 2 -1
BITMAP
FFE0
FFE0
7000
7000
7F00
7FC0
7FE0
20E0
0060
00E0
60E0
7FE0
3FC0
0F00
ENDCHAR
STARTCHAR uni01be
ENCODING 446
SWIDTH 600 0
DWIDTH 18 0
BBX 12 19 3 -1
BITMAP
0F80
1FC0
1F80
0600
0600
7FE0
7FE0
7FE0
0700
07C0
03E0
00F0
0070
6030
E070
E070
FFE0
7FC0
0E00
ENDCHAR
STARTCHAR uni01bf
ENCODING 447
SWIDTH 600 0
DWIDTH 18 0
BBX 17 20 0 -6
BITMAP
007C00
FBFF00
FFFF80
7F0380
3E0380
380380
380700
380F00
381E00
383C00
38F800
39E000
3BC000
3F8000
3F0000
3C0000
380000
7F0000
FF8000
FF8000
ENDCHAR
STARTCHAR uni01C0
ENCODING 448
SWIDTH 600 0
DWIDTH 18 0
BBX 4 24 7 -5
BITMAP
40
60
F0
F0
F0
F0
F0
F0
F0
F0
F0
F0
F0
F0
F0
F0
F0
F0
F0
F0
F0
F0
60
20
ENDCHAR
STARTCHAR uni01C1
ENCODING 449
SWIDTH 600 0
DWIDTH 18 0
BBX 8 24 5 -5
BITMAP
82
E7
E7
E7
E7
E7
E7
E7
E7
E7
E7
E7
E7
E7
E7
E7
E7
E7
E7
E7
E7
E7
E7
C0
ENDCHAR
STARTCHAR uni01c2
ENCODING 450
SWIDTH 600 0
DWIDTH 18 0
BBX 16 23 1 -4
BITMAP
0180
0180
0180
0180
0180
0180
0180
FFFF
FFFF
7FFE
0180
FFFF
FFFF
FFFF
0180
0180
0180
0180
0180
0180
0180
0180
0180
ENDCHAR
STARTCHAR uni01C3
ENCODING 451
SWIDTH 600 0
DWIDTH 18 0
BBX 4 19 7 0
BITMAP
F0
F0
F0
F0
F0
F0
F0
F0
F0
F0
F0
F0
60
00
00
20
F0
F0
F0
ENDCHAR
STARTCHAR uni01c4
ENCODING 452
SWIDTH 600 0
DWIDTH 18 0
BBX 18 24 0 0
BITMAP
00C0C0
01E3C0
007F80
003E00
000800
000000
7C3F80
FF3F80
FFBF80
77B380
71F380
71F700
71F700
71C600
71CE00
71CE00
71DD80
71DDC0
71F9C0
71F9C0
73F1C0
7FFFC0
FF7FC0
FE7FC0
ENDCHAR
STARTCHAR uni01c5
ENCODING 453
SWIDTH 600 0
DWIDTH 18 0
BBX 18 20 0 0
BITMAP
01C1C0
00F780
787F00
FF1C00
FF8000
738000
71C000
71FF80
71FF80
71F380
71F700
71F700
71CE00
71DE00
71DC00
71FDC0
73F9C0
7FFFC0
FF7FC0
FE7FC0
ENDCHAR
STARTCHAR uni01c6
ENCODING 454
SWIDTH 600 0
DWIDTH 18 0
BBX 18 22 0 0
BITMAP
008000
01E1C0
00F780
0F3F00
1F1C00
0F0000
030000
030000
1B0000
7F7F80
7F7F80
E77780
E77700
E36E00
E30E00
E31C00
E33C00
E33980
E77980
77FF80
7FFF80
3FFF80
ENDCHAR
STARTCHAR uni01C7
ENCODING 455
SWIDTH 600 0
DWIDTH 18 0
BBX 18 17 0 0
BITMAP
FE1FC0
FE1FC0
380780
380700
380700
380700
380700
380700
380700
39C700
39C700
39C700
39C700
39C700
FFFF00
FFFE00
FFFC00
ENDCHAR
STARTCHAR uni01C8
ENCODING 456
SWIDTH 600 0
DWIDTH 18 0
BBX 16 25 1 -6
BITMAP
001C
001C
FF1C
FF00
3C00
3800
38FF
38FF
38FF
3807
3807
3867
38E7
38E7
38E7
38E7
FFE7
FFE7
FFE7
0007
0007
000F
07FE
07FC
07F8
ENDCHAR
STARTCHAR uni01C9
ENCODING 457
SWIDTH 600 0
DWIDTH 18 0
BBX 16 25 1 -6
BITMAP
7E3C
FE3C
FE3C
0E00
0E00
0E00
0EFF
0EFF
0EFF
0E07
0E07
0E07
0E07
0E07
0E07
0E07
FFC7
FFC7
FFC7
0007
000E
000E
07FE
0FFC
07F0
ENDCHAR
STARTCHAR uni01ca
ENCODING 458
SWIDTH 600 0
DWIDTH 18 0
BBX 20 19 -1 -1
BITMAP
79F3C0
F9FFF0
7DFFF0
3C61C0
3E61C0
3E61C0
3E61C0
3F61C0
3F61C0
3F6DC0
3BEDC0
3BEDC0
3BEDC0
39EDC0
39EDC0
7CEDC0
7EEF80
7EEF80
000200
ENDCHAR
STARTCHAR uni01CB
ENCODING 459
SWIDTH 600 0
DWIDTH 18 0
BBX 17 25 0 -6
BITMAP
000380
000380
F9FB80
FDF800
7CF000
3CE000
3EE780
3EE780
3FE780
3FE380
3FE380
3BE380
3BE380
3BE380
39E380
39E380
7CE380
FEE380
7CE380
000380
000380
000780
01FF80
03FF00
01FC00
ENDCHAR
STARTCHAR uni01CC
ENCODING 460
SWIDTH 600 0
DWIDTH 18 0
BBX 17 25 0 -6
BITMAP
000780
000780
000780
000000
000000
010000
7FCF80
FFDF80
7FEF80
38E380
38E380
38E380
38E380
38E380
38E380
38E380
FEF380
FEFB80
FEF380
000380
000380
000780
03FF00
03FE00
03FC00
ENDCHAR
STARTCHAR uni01CD
ENCODING 461
SWIDTH 600 0
DWIDTH 18 0
BBX 20 24 -1 0
BITMAP
0C0C00
0F3C00
07F800
01E000
00C000
000000
000000
1FF000
1FF000
07F800
01F800
03FC00
039C00
079E00
070E00
070E00
0FFF00
0FFF00
1FFF80
1C0380
1C0380
7F0FE0
FF1FF0
7F0FE0
ENDCHAR
STARTCHAR uni01CE
ENCODING 462
SWIDTH 600 0
DWIDTH 18 0
BBX 16 19 1 0
BITMAP
1838
1EF8
07E0
0380
0000
0000
3FF0
3FF8
3FF8
001C
03DC
1FFC
3FFC
781C
F01C
F03C
FFFF
7FFF
3FDF
ENDCHAR
STARTCHAR uni01CF
ENCODING 463
SWIDTH 600 0
DWIDTH 18 0
BBX 14 24 2 0
BITMAP
3030
3C70
1FE0
0780
0100
0000
0000
7FF8
7FF8
3FF0
0780
0780
0780
0780
0780
0780
0780
0780
0780
0780
0780
7FF8
FFFC
7FF8
ENDCHAR
STARTCHAR uni01D0
ENCODING 464
SWIDTH 600 0
DWIDTH 18 0
BBX 14 20 2 0
BITMAP
3030
3CF0
1FE0
0780
0200
0000
0000
7F80
7F80
3F80
0780
0780
0780
0780
0780
0780
0780
FFFC
FFFC
FFFC
ENDCHAR
STARTCHAR uni01D1
ENCODING 465
SWIDTH 600 0
DWIDTH 18 0
BBX 16 24 1 0
BITMAP
1818
1E78
0FF0
03C0
0180
0000
07C0
0FF0
3FFC
7C3E
781E
F00F
E007
E007
E007
E007
E007
E007
E007
700E
781E
3FFC
1FF8
0FF0
ENDCHAR
STARTCHAR uni01D2
ENCODING 466
SWIDTH 600 0
DWIDTH 18 0
BBX 16 20 1 0
BITMAP
1818
1E78
0FF0
03C0
0100
0000
0000
0FF0
1FF8
3FFC
781E
700E
E007
E007
E007
700E
781E
3FFC
1FF8
0FF0
ENDCHAR
STARTCHAR uni01D3
ENCODING 467
SWIDTH 600 0
DWIDTH 18 0
BBX 18 24 0 0
BITMAP
0C0C00
0F3C00
07F800
01E000
00C000
000000
000000
FF3FC0
FF3FC0
3E0F00
380700
380700
380700
380700
380700
380700
380700
380700
380700
380700
1C0E00
1FFE00
0FFC00
07F800
ENDCHAR
STARTCHAR uni01D4
ENCODING 468
SWIDTH 600 0
DWIDTH 18 0
BBX 17 20 0 0
BITMAP
0C0C00
0F3C00
07F800
01E000
008000
000000
000000
7C3E00
FC7E00
7C3E00
1C0E00
1C0E00
1C0E00
1C0E00
1C0E00
1C0E00
1C1E00
1FFF80
0FFF80
07EF80
ENDCHAR
STARTCHAR uni01D5
ENCODING 469
SWIDTH 600 0
DWIDTH 18 0
BBX 18 24 0 0
BITMAP
0FFC00
0FFC00
000000
000000
061800
0F3C00
0F3C00
061800
000000
7F3F80
FF3FC0
7F3F80
380700
380700
380700
380700
380700
380700
380700
380700
1C0E00
1FFE00
0FFC00
07F800
ENDCHAR
STARTCHAR uni01D6
ENCODING 470
SWIDTH 600 0
DWIDTH 18 0
BBX 17 23 0 0
BITMAP
0FFC00
0FFC00
07F800
000000
061800
0E3C00
0E3C00
061800
000000
000000
7C3E00
FC7E00
7C3E00
1C0E00
1C0E00
1C0E00
1C0E00
1C0E00
1C0E00
1C1E00
1FFF80
0FFF80
07EF80
ENDCHAR
STARTCHAR uni01D7
ENCODING 471
SWIDTH 600 0
DWIDTH 18 0
BBX 18 24 0 0
BITMAP
001800
007800
00F000
00C000
061800
0F3C00
0F3C00
061800
000000
7F3F80
FF3FC0
7F3F80
380700
380700
380700
380700
380700
380700
380700
380700
1C0E00
1FFE00
0FFC00
07F800
ENDCHAR
STARTCHAR uni01D8
ENCODING 472
SWIDTH 600 0
DWIDTH 18 0
BBX 17 24 0 0
BITMAP
001800
003800
007000
00E000
00C000
061800
0E3C00
0E3C00
061800
000000
000000
7C3E00
FC7E00
7C3E00
1C0E00
1C0E00
1C0E00
1C0E00
1C0E00
1C0E00
1C1E00
1FFF80
0FFF80
07EF80
ENDCHAR
STARTCHAR uni01D9
ENCODING 473
SWIDTH 600 0
DWIDTH 18 0
BBX 18 24 0 0
BITMAP
0C0C00
0F1C00
07F800
01E000
0CCC00
1E1E00
1E1E00
0C0C00
000000
7F3F80
FF3FC0
7F3F80
380700
380700
380700
380700
380700
380700
380700
380700
1C0E00
1FFE00
0FFC00
07F800
ENDCHAR
STARTCHAR uni01DA
ENCODING 474
SWIDTH 600 0
DWIDTH 18 0
BBX 17 24 0 0
BITMAP
0C0C00
0F3C00
07F800
01E000
00C000
061800
0E3C00
0E3C00
061800
000000
000000
7C3E00
FC7E00
7C3E00
1C0E00
1C0E00
1C0E00
1C0E00
1C0E00
1C0E00
1C1E00
1FFF80
0FFF80
07EF80
ENDCHAR
STARTCHAR uni01DB
ENCODING 475
SWIDTH 600 0
DWIDTH 18 0
BBX 18 24 0 0
BITMAP
060000
070000
038000
01C000
00C000
1C0E00
1E0E00
0C0E00
000000
7F3F80
FF3FC0
7F3F80
380700
380700
380700
380700
380700
380700
380700
380700
1C0E00
1FFE00
0FFC00
07F800
ENDCHAR
STARTCHAR uni01DC
ENCODING 476
SWIDTH 600 0
DWIDTH 18 0
BBX 17 24 0 0
BITMAP
040000
0F0000
078000
01C000
00C000
061800
0E3C00
0E3C00
061800
000000
000000
7C3E00
FC7E00
7C3E00
1C0E00
1C0E00
1C0E00
1C0E00
1C0E00
1C0E00
1C1E00
1FFF80
0FFF80
07EF80
ENDCHAR
STARTCHAR uni01DD
ENCODING 477
SWIDTH 600 0
DWIDTH 18 0
BBX 16 13 1 0
BITMAP
3FF0
FFF8
FFFC
001E
000E
FFFE
FFFF
FFFE
F00E
781E
7FFC
3FF8
0FF0
ENDCHAR
STARTCHAR uni01DE
ENCODING 478
SWIDTH 600 0
DWIDTH 18 0
BBX 20 24 -1 0
BITMAP
0FFC00
0FFE00
000000
000000
071C00
071C00
071C00
020800
000000
0FF000
1FF000
0FF800
01F800
03BC00
039C00
079E00
070E00
0FFF00
0FFF00
1FFF80
1C0380
3E07C0
FF0FF0
7F0FE0
ENDCHAR
STARTCHAR uni01DF
ENCODING 479
SWIDTH 600 0
DWIDTH 18 0
BBX 16 23 1 0
BITMAP
1FF0
3FF8
1FF0
0000
0C30
1C78
1C78
0C30
0000
0000
3FF0
3FF8
3FF8
001C
03DC
1FFC
3FFC
781C
F01C
F03C
FFFF
7FFF
3FDF
ENDCHAR
STARTCHAR uni01E0
ENCODING 480
SWIDTH 600 0
DWIDTH 18 0
BBX 20 24 -1 0
BITMAP
07FE00
07FE00
000000
000000
00E000
00F000
00E000
000000
000000
0FF000
1FF000
0FF800
01F800
03BC00
039C00
079E00
070E00
0FFF00
0FFF00
1FFF80
1C0380
3E07C0
FF0FF0
7F0FE0
ENDCHAR
STARTCHAR uni01E1
ENCODING 481
SWIDTH 600 0
DWIDTH 18 0
BBX 16 22 1 0
BITMAP
1FF8
1FF8
0000
0180
0380
0380
0180
0000
0000
3FF0
3FF8
3FF8
001C
03DC
1FFC
3FFC
781C
F01C
F03C
FFFF
7FFF
3FDF
ENDCHAR
STARTCHAR uni01E2
ENCODING 482
SWIDTH 600 0
DWIDTH 18 0
BBX 19 22 -1 0
BITMAP
01FF80
01FF80
000000
000000
000000
0FFFE0
0FFFE0
03FFE0
03F0E0
07F0E0
0776E0
077700
077F00
0E7F00
0FFF00
0FF600
1FF060
1C70E0
1C70E0
7EFFE0
FFFFE0
7EFFE0
ENDCHAR
STARTCHAR uni01E3
ENCODING 483
SWIDTH 600 0
DWIDTH 18 0
BBX 18 18 0 0
BITMAP
07FE00
0FFE00
000000
000000
000000
3FBF00
7FFF80
3FFF80
00E3C0
06E1C0
3FFFC0
FFFFC0
F0FFC0
E0E000
E1E000
FFFFC0
FFFFC0
7FFF80
ENDCHAR
STARTCHAR uni01E4
ENCODING 484
SWIDTH 600 0
DWIDTH 18 0
BBX 18 18 0 0
BITMAP
03F600
0FFF00
1FFF00
3E1F00
780F00
700600
700000
E00000
E00000
E1FE00
E1FE00
E0FE00
700FC0
700FC0
780F80
3FFE00
1FFE00
0FF800
ENDCHAR
STARTCHAR uni01E5
ENCODING 485
SWIDTH 600 0
DWIDTH 18 0
BBX 17 20 1 -6
BITMAP
020000
1FFF00
3FFF80
7FFF00
703C00
E01C00
E01C00
E01C00
E01C00
F01C00
703C00
7FFC00
3FFC00
1FFC00
001F00
001F80
003F00
0FF800
1FF800
0FE000
ENDCHAR
STARTCHAR Gcaron
ENCODING 486
SWIDTH 600 0
DWIDTH 18 0
BBX 17 24 1 0
BITMAP
181800
1E7800
0FF000
03C000
018000
000000
03E600
0FFE00
3FFF00
3C1F00
780F00
F00600
E00000
E00000
E00000
E00000
E0FF80
E0FF80
E07F00
F00F00
780F00
3FFF00
3FFF00
0FF800
ENDCHAR
STARTCHAR gcaron
ENCODING 487
SWIDTH 600 0
DWIDTH 18 0
BBX 17 26 1 -6
BITMAP
181800
1E7800
0FF000
03C000
010000
000000
020000
1FFF00
3FFF80
7FFF00
703C00
E01C00
E01C00
E01C00
E01C00
F01C00
703C00
7FFC00
3FFC00
1FFC00
001C00
001C00
003C00
0FF800
1FF800
0FE000
ENDCHAR
STARTCHAR uni01E8
ENCODING 488
SWIDTH 600 0
DWIDTH 18 0
BBX 18 24 0 0
BITMAP
0C0C00
0F3C00
07F800
01E000
00C000
000000
000000
FFBF80
FFBF80
3E1F00
1C3C00
1C7800
1CF000
1FE000
1FE000
1FF000
1EF800
1C7800
1C3C00
1C1C00
1C1E00
7F0FC0
FF8FC0
7F07C0
ENDCHAR
STARTCHAR uni01E9
ENCODING 489
SWIDTH 600 0
DWIDTH 18 0
BBX 16 24 1 0
BITMAP
0808
1E3C
0FF8
03E0
01C0
7800
F800
F800
3800
3800
3800
38FC
39FE
38FC
39E0
3FC0
3F80
3F80
3FC0
39E0
38F8
F87F
F87F
F87F
ENDCHAR
STARTCHAR uni01EA
ENCODING 490
SWIDTH 600 0
DWIDTH 18 0
BBX 16 24 1 -6
BITMAP
07C0
0FF0
3FFC
7C3E
781E
F00F
E007
E007
E007
E007
E007
E007
E007
700E
781E
3FFC
1FF8
0FF0
0380
0700
0E00
0EC0
0FC0
0780
ENDCHAR
STARTCHAR uni01EB
ENCODING 491
SWIDTH 600 0
DWIDTH 18 0
BBX 16 19 1 -6
BITMAP
0FF0
1FF8
3FFC
781E
700E
E007
E007
E007
700E
781E
3FFC
1FF8
0FF0
0380
0700
0E00
0EC0
0FC0
0780
ENDCHAR
STARTCHAR uni01EC
ENCODING 492
SWIDTH 600 0
DWIDTH 18 0
BBX 16 28 1 -6
BITMAP
1FF8
1FF8
0000
0000
07C0
0FF0
3FFC
7C3E
781E
F00F
E007
E007
E007
E007
E007
E007
E007
700E
781E
3FFC
1FF8
0FF0
0380
0700
0E00
0EC0
0FC0
0780
ENDCHAR
STARTCHAR uni01ED
ENCODING 493
SWIDTH 600 0
DWIDTH 18 0
BBX 16 24 1 -6
BITMAP
1FF8
1FF8
0000
0000
0000
0FF0
1FF8
3FFC
781E
700E
E007
E007
E007
700E
781E
3FFC
1FF8
0FF0
0380
0700
0E00
0EC0
0FC0
0780
ENDCHAR
STARTCHAR uni01EE
ENCODING 494
SWIDTH 600 0
DWIDTH 18 0
BBX 16 26 1 -2
BITMAP
1818
1E78
0FF0
03C0
0180
0000
0000
3FFC
3FFC
3FFC
3878
3878
00F0
01E0
03F8
07FC
03FE
000F
0007
0007
E007
F80F
7FFE
3FFC
0FF8
0080
ENDCHAR
STARTCHAR uni01ef
ENCODING 495
SWIDTH 600 0
DWIDTH 18 0
BBX 11 25 3 -5
BITMAP
6060
79E0
3FC0
0F00
0400
0000
0000
FFE0
FFE0
03C0
0780
0F00
1F00
3F80
7BC0
21E0
00E0
00E0
00E0
00E0
00E0
E1C0
F3C0
7F80
3F00
ENDCHAR
STARTCHAR jcaron
ENCODING 496
SWIDTH 600 0
DWIDTH 18 0
BBX 11 26 3 -6
BITMAP
6060
79E0
3FC0
0F00
0400
0000
0000
FFE0
FFE0
FFE0
00E0
00E0
00E0
00E0
00E0
00E0
00E0
00E0
00E0
00E0
00E0
00E0
01C0
FFC0
FF80
FE00
ENDCHAR
STARTCHAR uni01f1
ENCODING 497
SWIDTH 600 0
DWIDTH 18 0
BBX 18 18 0 0
BITMAP
7C3F80
FF3F80
FFBF80
77B380
71F380
71F700
71F700
71C600
71CE00
71CE00
71DD80
71DDC0
71F9C0
71F9C0
73F1C0
7FFFC0
FF7FC0
FE7FC0
ENDCHAR
STARTCHAR uni01f2
ENCODING 498
SWIDTH 600 0
DWIDTH 18 0
BBX 18 18 0 0
BITMAP
780000
FF0000
FF8000
738000
71C000
71FF80
71FF80
71F380
71F700
71F700
71CE00
71DE00
71DC00
71FDC0
73F9C0
7FFFC0
FF7FC0
FE7FC0
ENDCHAR
STARTCHAR uni01f3
ENCODING 499
SWIDTH 600 0
DWIDTH 18 0
BBX 17 19 0 0
BITMAP
0F0000
1F0000
0F0000
030000
030000
1B0000
7F7F80
7F7F80
E77780
E77700
E36E00
E30E00
E31C00
E33C00
E33980
E77980
77FF80
7FFF80
3FFF80
ENDCHAR
STARTCHAR uni01F4
ENCODING 500
SWIDTH 600 0
DWIDTH 18 0
BBX 17 24 1 0
BITMAP
001000
007800
00F000
01C000
008000
000000
03E600
0FFE00
3FFF00
3C1F00
780F00
F00600
E00000
E00000
E00000
E00000
E0FF80
E0FF80
E07F00
F00F00
780F00
3FFF00
3FFF00
0FF800
ENDCHAR
STARTCHAR uni01F5
ENCODING 501
SWIDTH 600 0
DWIDTH 18 0
BBX 17 26 1 -6
BITMAP
002000
00E000
01E000
038000
030000
000000
020000
1FFF00
3FFF80
7FFF00
703C00
E01C00
E01C00
E01C00
E01C00
F01C00
703C00
7FFC00
3FFC00
1FFC00
001C00
001C00
003C00
0FF800
1FF800
0FE000
ENDCHAR
STARTCHAR uni01F6
ENCODING 502
SWIDTH 600 0
DWIDTH 18 0
BBX 16 17 1 0
BITMAP
F9E0
F9E0
39C0
39C7
39DF
39DF
39CF
3FC7
3FC7
3FC7
39C7
39C7
39C7
39CF
F9FE
F9FE
F9F8
ENDCHAR
STARTCHAR uni01f7
ENCODING 503
SWIDTH 600 0
DWIDTH 18 0
BBX 17 24 0 -6
BITMAP
787E00
FBFF00
FFFF80
1F0380
1E0380
1C0380
180380
180700
180F00
181E00
183C00
187800
18F000
19E000
1BC000
1F8000
1F0000
1E0000
1C0000
180000
180000
7F0000
FF8000
7F8000
ENDCHAR
STARTCHAR uni01F8
ENCODING 504
SWIDTH 600 0
DWIDTH 18 0
BBX 18 24 0 0
BITMAP
060000
070000
038000
01C000
00C000
000000
000000
FC3FC0
FE3FC0
3E0F00
3F0700
3F0700
3F8700
3BC700
39C700
39E700
38F700
387700
387F00
383F00
381F00
7F1F00
FF0F00
7F0700
ENDCHAR
STARTCHAR uni01F9
ENCODING 505
SWIDTH 600 0
DWIDTH 18 0
BBX 16 20 1 0
BITMAP
0800
1C00
0F00
0780
0180
0000
0000
FBF0
FFF8
FFFC
3C1C
381C
381C
381C
381C
381C
381C
FE3F
FE7F
FE3F
ENDCHAR
STARTCHAR Aringacute
ENCODING 506
SWIDTH 600 0
DWIDTH 18 0
BBX 20 24 -1 0
BITMAP
003000
007000
00E000
01C000
018000
00F000
01F800
019800
01F800
00F000
000000
1FF000
1FF800
01F800
03BC00
039C00
071E00
070E00
0FFF00
0FFF00
1C0380
3C0380
FF0FF0
7F0FE0
ENDCHAR
STARTCHAR aringacute
ENCODING 507
SWIDTH 600 0
DWIDTH 18 0
BBX 16 24 1 0
BITMAP
0030
0070
00E0
01C0
0180
0100
07C0
06C0
06C0
07C0
0380
0000
1FE0
3FF8
3FF8
001C
07FC
3FFC
7FFC
701C
E03C
F9FE
7FFF
3FDF
ENDCHAR
STARTCHAR AEacute
ENCODING 508
SWIDTH 600 0
DWIDTH 18 0
BBX 19 24 -1 0
BITMAP
000300
000700
000E00
001C00
001800
000000
000000
0FFFE0
0FFFE0
03FFE0
03F0E0
07F0E0
0776E0
077700
077F00
0E7F00
0FFF00
0FF600
1FF060
1C70E0
1C70E0
7EFFE0
FFFFE0
7EFFE0
ENDCHAR
STARTCHAR aeacute
ENCODING 509
SWIDTH 600 0
DWIDTH 18 0
BBX 18 20 0 0
BITMAP
000800
001C00
003800
007000
006000
000000
000000
3FBF00
7FFF80
3FFF80
00E3C0
06E1C0
3FFFC0
FFFFC0
F0FFC0
E0E000
E1E000
FFFFC0
FFFFC0
7FFF80
ENDCHAR
STARTCHAR Oslashacute
ENCODING 510
SWIDTH 600 0
DWIDTH 18 0
BBX 18 26 0 -2
BITMAP
001800
003800
007000
00E000
00C000
000180
03E3C0
0FFF80
1FFF00
3E1F00
3C1F00
783F80
703B80
707380
70F380
71E380
73C380
738380
770380
3F0700
3E0F00
3FFE00
3FFC00
7FF800
F00000
600000
ENDCHAR
STARTCHAR oslashacute
ENCODING 511
SWIDTH 600 0
DWIDTH 18 0
BBX 16 22 1 -2
BITMAP
0030
0070
00E0
01C0
0180
0003
0007
0FFF
1FFE
3FFC
787E
70FE
E1E7
E3C7
E787
7F0E
7E1E
3FFC
7FF8
FFF0
E000
C000
ENDCHAR
STARTCHAR uni0200
ENCODING 512
SWIDTH 600 0
DWIDTH 18 0
BBX 20 24 -1 0
BITMAP
210000
7B8000
3DE000
0EF000
063000
000000
000000
1FF000
1FF000
07F800
01F800
03FC00
039C00
079E00
070E00
070E00
0FFF00
0FFF00
1FFF80
1C0380
1C0380
7F0FE0
FF1FF0
7F0FE0
ENDCHAR
STARTCHAR uni0201
ENCODING 513
SWIDTH 600 0
DWIDTH 18 0
BBX 16 20 1 0
BITMAP
18C0
1EE0
0F78
0738
0108
0000
0000
3FF0
3FF8
3FF8
001C
03DC
1FFC
3FFC
781C
F01C
F03C
FFFF
7FFF
3FDF
ENDCHAR
STARTCHAR uni0202
ENCODING 514
SWIDTH 600 0
DWIDTH 18 0
BBX 20 24 -1 0
BITMAP
006000
03FC00
079E00
060600
040600
000000
000000
1FF000
1FF000
07F800
01F800
03FC00
039C00
079E00
070E00
070E00
0FFF00
0FFF00
1FFF80
1C0380
1C0380
7F0FE0
FF1FF0
7F0FE0
ENDCHAR
STARTCHAR uni0203
ENCODING 515
SWIDTH 600 0
DWIDTH 18 0
BBX 16 20 1 0
BITMAP
0380
0FF0
1E78
1818
1818
0000
0000
3FF0
3FF8
3FF8
001C
03DC
1FFC
3FFC
781C
F01C
F03C
FFFF
7FFF
3FDF
ENDCHAR
STARTCHAR uni0204
ENCODING 516
SWIDTH 600 0
DWIDTH 18 0
BBX 17 24 0 0
BITMAP
318000
39C000
1EE000
0F7000
073800
000000
000000
FFFF00
FFFF00
3FFF00
1C0700
1C0700
1CE600
1CE000
1FE000
1FE000
1FE000
1CE000
1C6300
1C0780
1C0780
7FFF80
FFFF80
7FFF80
ENDCHAR
STARTCHAR uni0205
ENCODING 517
SWIDTH 600 0
DWIDTH 18 0
BBX 16 20 1 0
BITMAP
6300
7BC0
3DE0
0CE0
0020
0000
0000
0FF0
3FF8
7FFC
781E
F00E
FFFE
FFFE
FFFF
F000
7800
7FFE
3FFE
0FFC
ENDCHAR
STARTCHAR uni0206
ENCODING 518
SWIDTH 600 0
DWIDTH 18 0
BBX 17 24 0 0
BITMAP
00C000
07F800
0F3C00
0C0C00
0C0C00
000000
000000
FFFF00
FFFF00
3FFF00
1C0700
1C0700
1CE600
1CE000
1FE000
1FE000
1FE000
1CE000
1C6300
1C0780
1C0780
7FFF80
FFFF80
7FFF80
ENDCHAR
STARTCHAR uni0207
ENCODING 519
SWIDTH 600 0
DWIDTH 18 0
BBX 16 20 1 0
BITMAP
0380
0FE0
1C70
3818
1018
0000
0000
0FF0
3FF8
7FFC
781E
F00E
FFFE
FFFE
FFFF
F000
7800
7FFE
3FFE
0FFC
ENDCHAR
STARTCHAR uni0208
ENCODING 520
SWIDTH 600 0
DWIDTH 18 0
BBX 14 24 2 0
BITMAP
C600
E700
7B80
39C0
1CC0
0000
0000
7FF8
7FF8
3FF0
0780
0780
0780
0780
0780
0780
0780
0780
0780
0780
0780
7FF8
FFFC
7FF8
ENDCHAR
STARTCHAR uni0209
ENCODING 521
SWIDTH 600 0
DWIDTH 18 0
BBX 14 20 2 0
BITMAP
E700
7780
39C0
1CE0
0840
0000
0000
7F80
7F80
3F80
0780
0780
0780
0780
0780
0780
0780
FFFC
FFFC
FFFC
ENDCHAR
STARTCHAR uni020A
ENCODING 522
SWIDTH 600 0
DWIDTH 18 0
BBX 14 24 2 0
BITMAP
0300
1FE0
3CF0
3030
3030
0000
0000
7FF8
7FF8
3FF0
0780
0780
0780
0780
0780
0780
0780
0780
0780
0780
0780
7FF8
FFFC
7FF8
ENDCHAR
STARTCHAR uni020B
ENCODING 523
SWIDTH 600 0
DWIDTH 18 0
BBX 14 20 2 0
BITMAP
0780
1FE0
3870
3030
2030
0000
0000
7F80
7F80
3F80
0780
0780
0780
0780
0780
0780
0780
FFFC
FFFC
FFFC
ENDCHAR
STARTCHAR uni020C
ENCODING 524
SWIDTH 600 0
DWIDTH 18 0
BBX 16 24 1 0
BITMAP
6300
7380
39C0
1CE0
0E60
0000
07C0
0FF0
3FFC
7C3E
781E
F00F
E007
E007
E007
E007
E007
E007
E007
700E
781E
3FFC
1FF8
0FF0
ENDCHAR
STARTCHAR uni020D
ENCODING 525
SWIDTH 600 0
DWIDTH 18 0
BBX 16 20 1 0
BITMAP
7380
3BC0
1CE0
0E70
0420
0000
0000
0FF0
1FF8
3FFC
781E
700E
E007
E007
E007
700E
781E
3FFC
1FF8
0FF0
ENDCHAR
STARTCHAR uni020E
ENCODING 526
SWIDTH 600 0
DWIDTH 18 0
BBX 16 23 1 0
BITMAP
0FE0
1FF8
1818
1818
0000
07C0
0FF0
3FFC
7C3E
781E
F00F
E007
E007
E007
E007
E007
E007
E007
700E
781E
3FFC
1FF8
0FF0
ENDCHAR
STARTCHAR uni020F
ENCODING 527
SWIDTH 600 0
DWIDTH 18 0
BBX 16 20 1 0
BITMAP
0180
0FF0
1E78
1818
1818
0000
0000
0FF0
1FF8
3FFC
781E
700E
E007
E007
E007
700E
781E
3FFC
1FF8
0FF0
ENDCHAR
STARTCHAR uni0210
ENCODING 528
SWIDTH 600 0
DWIDTH 18 0
BBX 18 24 0 0
BITMAP
330000
3BC000
1DE000
0E7000
063000
000000
000000
FFF800
FFFC00
3FFE00
1C0E00
1C0E00
1C0E00
1C1E00
1FFC00
1FF800
1FF000
1C7800
1C3C00
1C1E00
1C0F00
FF0FC0
FF87C0
FF03C0
ENDCHAR
STARTCHAR uni0211
ENCODING 529
SWIDTH 600 0
DWIDTH 18 0
BBX 15 21 2 0
BITMAP
4200
E700
7380
39C0
1CE0
0000
0000
0000
7CFC
FDFE
7FFE
1F84
1F00
1C00
1C00
1C00
1C00
1C00
FFF0
FFF8
FFF0
ENDCHAR
STARTCHAR uni0212
ENCODING 530
SWIDTH 600 0
DWIDTH 18 0
BBX 18 24 0 0
BITMAP
018000
07F000
0F7800
1C1C00
180C00
000000
000000
FFF800
FFFC00
3FFE00
1C0E00
1C0E00
1C0E00
1C1E00
1FFC00
1FF800
1FF000
1C7800
1C3C00
1C1E00
1C0F00
FF0FC0
FF87C0
FF03C0
ENDCHAR
STARTCHAR uni0213
ENCODING 531
SWIDTH 600 0
DWIDTH 18 0
BBX 15 20 2 0
BITMAP
0780
1FE0
3C70
3038
3010
0000
0000
7CFC
FDFE
7FFE
1F84
1F00
1C00
1C00
1C00
1C00
1C00
FFF0
FFF8
FFF0
ENDCHAR
STARTCHAR uni0214
ENCODING 532
SWIDTH 600 0
DWIDTH 18 0
BBX 18 24 0 0
BITMAP
318000
39C000
1EE000
0E7000
073000
000000
000000
FF3FC0
FF3FC0
3E0F00
380700
380700
380700
380700
380700
380700
380700
380700
380700
380700
1C0E00
1FFE00
0FFC00
07F800
ENDCHAR
STARTCHAR uni0215
ENCODING 533
SWIDTH 600 0
DWIDTH 18 0
BBX 17 20 0 0
BITMAP
398000
3DE000
0EF000
063000
020000
000000
000000
7C3E00
FC7E00
7C3E00
1C0E00
1C0E00
1C0E00
1C0E00
1C0E00
1C0E00
1C1E00
1FFF80
0FFF80
07EF80
ENDCHAR
STARTCHAR uni0216
ENCODING 534
SWIDTH 600 0
DWIDTH 18 0
BBX 18 24 0 0
BITMAP
00C000
07F800
0F3C00
0C0C00
0C0C00
000000
000000
FF3FC0
FF3FC0
3E0F00
380700
380700
380700
380700
380700
380700
380700
380700
380700
380700
1C0E00
1FFE00
0FFC00
07F800
ENDCHAR
STARTCHAR uni0217
ENCODING 535
SWIDTH 600 0
DWIDTH 18 0
BBX 17 20 0 0
BITMAP
00C000
07F000
0F3800
0C0C00
080C00
000000
000000
7C3E00
FC7E00
7C3E00
1C0E00
1C0E00
1C0E00
1C0E00
1C0E00
1C0E00
1C1E00
1FFF80
0FFF80
07EF80
ENDCHAR
STARTCHAR Scommaaccent
ENCODING 536
SWIDTH 600 0
DWIDTH 18 0
BBX 14 24 2 -6
BITMAP
0FD8
3FF8
7FFC
787C
703C
F018
7018
7C00
3FE0
1FF0
03F8
003C
C01C
E01C
F03C
FFFC
FFF8
DFE0
0000
0380
0300
0700
0600
0600
ENDCHAR
STARTCHAR scommaaccent
ENCODING 537
SWIDTH 600 0
DWIDTH 18 0
BBX 14 19 2 -6
BITMAP
1FF8
3FF8
7FF8
7038
7C00
7FE0
3FF8
03F8
603C
E03C
FFFC
FFF8
7FF0
0000
0700
0700
0600
0600
0400
ENDCHAR
STARTCHAR uni021A
ENCODING 538
SWIDTH 600 0
DWIDTH 18 0
BBX 16 23 1 -6
BITMAP
FFFF
FFFF
FFFF
E387
E387
E387
E387
0380
0380
0380
0380
0380
0380
0380
1FF8
1FF8
1FF8
0000
03C0
0380
0300
0300
0200
ENDCHAR
STARTCHAR uni021B
ENCODING 539
SWIDTH 600 0
DWIDTH 18 0
BBX 16 24 0 -6
BITMAP
0C00
1C00
1C00
1C00
1C00
7FFC
FFFC
7FF8
1C00
1C00
1C00
1C00
1C00
1C00
1E06
0FFF
0FFF
07FC
0000
0380
0380
0300
0700
0200
ENDCHAR
STARTCHAR uni021c
ENCODING 540
SWIDTH 600 0
DWIDTH 18 0
BBX 13 19 3 -1
BITMAP
5F80
FFE0
FFE0
E070
E070
C070
4070
00F0
03E0
07F0
0FF8
0E38
0038
0038
0038
00F0
3FE0
FFC0
FE00
ENDCHAR
STARTCHAR uni021d
ENCODING 541
SWIDTH 600 0
DWIDTH 18 0
BBX 13 18 3 -4
BITMAP
0F00
FFC0
FFE0
F0F0
E070
C0F0
03E0
0FF0
1FF0
3C38
1838
0070
00F0
03E0
0FC0
1F00
3E00
3800
ENDCHAR
STARTCHAR uni021E
ENCODING 542
SWIDTH 600 0
DWIDTH 18 0
BBX 16 24 1 0
BITMAP
1818
1E78
0FF0
03C0
0180
0000
0000
FE7F
FE7F
3C1C
381C
381C
381C
381C
3FFC
3FFC
3FFC
381C
381C
381C
381C
FE7F
FE7F
FE7F
ENDCHAR
STARTCHAR uni021F
ENCODING 543
SWIDTH 600 0
DWIDTH 18 0
BBX 17 23 0 0
BITMAP
080400
0E1C00
07F800
03F000
3CC000
FC0000
7C0000
1C0000
1C0000
1C0000
1DF800
1FFC00
1FFE00
1E0E00
1C0E00
1C0E00
1C0E00
1C0E00
1C0E00
1C0E00
7F3F80
7F3F80
7F3F80
ENDCHAR
STARTCHAR uni0220
ENCODING 544
SWIDTH 600 0
DWIDTH 18 0
BBX 18 25 0 -6
BITMAP
7DF800
7FFC00
7FFE00
1E1E00
1C0E00
1C0E00
1C0700
1C0700
1C0700
1C0700
1C0700
1C0700
1C0700
1C0700
1C0700
1C0700
7E0700
FF0700
7E0700
000700
000700
000700
001F80
003FC0
001F80
ENDCHAR
STARTCHAR uni0224
ENCODING 548
SWIDTH 600 0
DWIDTH 18 0
BBX 14 23 2 -6
BITMAP
7FF8
7FF8
7FF8
70F0
70F0
71E0
23C0
0780
0700
0F00
1E1C
3C1C
781C
701C
FFFC
FFFC
FFFC
001C
001C
0038
07F8
07F0
03E0
ENDCHAR
STARTCHAR uni0225
ENCODING 549
SWIDTH 600 0
DWIDTH 18 0
BBX 13 19 3 -6
BITMAP
FFF0
FFF0
FFF0
E1E0
E3C0
0780
0F00
1E00
3C00
7830
FFF8
FFF8
FFF8
0038
0070
0070
0FF0
0FE0
07C0
ENDCHAR
STARTCHAR uni0226
ENCODING 550
SWIDTH 600 0
DWIDTH 18 0
BBX 20 23 -1 0
BITMAP
006000
00E000
00F000
006000
000000
000000
1FF000
1FF000
07F800
01F800
03FC00
039C00
079E00
070E00
070E00
0FFF00
0FFF00
1FFF80
1C0380
1C0380
7F0FE0
FF1FF0
7F0FE0
ENDCHAR
STARTCHAR uni0227
ENCODING 551
SWIDTH 600 0
DWIDTH 18 0
BBX 16 19 1 0
BITMAP
0180
0380
0380
0180
0000
0000
3FF0
3FF8
3FF8
001C
03DC
1FFC
3FFC
781C
F01C
F03C
FFFF
7FFF
3FDF
ENDCHAR
STARTCHAR uni0228
ENCODING 552
SWIDTH 600 0
DWIDTH 18 0
BBX 17 23 0 -6
BITMAP
FFFF00
FFFF00
3FFF00
1C0700
1C0700
1CE600
1CE000
1FE000
1FE000
1FE000
1CE000
1C6300
1C0780
1C0780
7FFF80
FFFF80
7FFF80
00E000
00F000
003800
031800
03F000
01E000
ENDCHAR
STARTCHAR uni0229
ENCODING 553
SWIDTH 600 0
DWIDTH 18 0
BBX 16 19 1 -6
BITMAP
0FF0
3FF8
7FFC
781E
F00E
FFFE
FFFE
FFFF
F000
7800
7FFE
3FFE
0FFC
0180
01E0
0060
0660
0FE0
03C0
ENDCHAR
STARTCHAR uni022A
ENCODING 554
SWIDTH 600 0
DWIDTH 18 0
BBX 16 24 1 0
BITMAP
1FF8
1FF8
0000
0000
0C30
1E78
1E78
0C30
0000
0FE0
1FF8
3E7C
781E
F00F
E007
E007
E007
E007
E007
F00F
700E
7C3E
1FF8
0FF0
ENDCHAR
STARTCHAR uni022B
ENCODING 555
SWIDTH 600 0
DWIDTH 18 0
BBX 16 23 1 0
BITMAP
1FF8
1FF8
0FF0
0000
0C30
1E78
1E78
0C30
0000
0000
0FF0
1FF8
3FFC
781E
700E
E007
E007
E007
700E
781E
3FFC
1FF8
0FF0
ENDCHAR
STARTCHAR uni022C
ENCODING 556
SWIDTH 600 0
DWIDTH 18 0
BBX 16 24 1 0
BITMAP
1FF8
1FF8
0000
0408
0F1C
1FF8
30F0
0000
0000
0FE0
1FF8
3E7C
781E
F00F
E007
E007
E007
E007
E007
F00F
700E
7C3E
1FF8
0FF0
ENDCHAR
STARTCHAR uni022D
ENCODING 557
SWIDTH 600 0
DWIDTH 18 0
BBX 16 23 1 0
BITMAP
1FF8
1FF8
0000
0000
0F18
1FF8
31F0
0000
0000
0000
0FF0
1FF8
3FFC
781E
700E
E007
E007
E007
700E
781E
3FFC
1FF8
0FF0
ENDCHAR
STARTCHAR uni022E
ENCODING 558
SWIDTH 600 0
DWIDTH 18 0
BBX 16 23 1 0
BITMAP
0180
03C0
03C0
0180
0000
07C0
0FF0
3FFC
7C3E
781E
F00F
E007
E007
E007
E007
E007
E007
E007
700E
781E
3FFC
1FF8
0FF0
ENDCHAR
STARTCHAR uni022F
ENCODING 559
SWIDTH 600 0
DWIDTH 18 0
BBX 16 19 1 0
BITMAP
0180
03C0
03C0
0180
0000
0000
0FF0
1FF8
3FFC
781E
700E
E007
E007
E007
700E
781E
3FFC
1FF8
0FF0
ENDCHAR
STARTCHAR uni0230
ENCODING 560
SWIDTH 600 0
DWIDTH 18 0
BBX 16 24 1 0
BITMAP
1FF8
1FF8
0000
0000
03C0
03C0
0180
0000
0000
0FE0
1FF8
3E7C
781E
F00F
E007
E007
E007
E007
E007
F00F
700E
7C3E
1FF8
0FF0
ENDCHAR
STARTCHAR uni0231
ENCODING 561
SWIDTH 600 0
DWIDTH 18 0
BBX 16 23 1 0
BITMAP
0FF0
1FF8
1FF8
0000
0180
03C0
03C0
0180
0000
0000
0FF0
1FF8
3FFC
781E
700E
E007
E007
E007
700E
781E
3FFC
1FF8
0FF0
ENDCHAR
STARTCHAR uni0232
ENCODING 562
SWIDTH 600 0
DWIDTH 18 0
BBX 16 22 1 0
BITMAP
1FF8
1FF8
0000
0000
0000
FC3F
FC3F
781E
3C3C
1E78
0E70
0FF0
07E0
03C0
03C0
03C0
03C0
03C0
03C0
1FF8
1FF8
1FF8
ENDCHAR
STARTCHAR uni0233
ENCODING 563
SWIDTH 600 0
DWIDTH 18 0
BBX 16 24 1 -6
BITMAP
1FF8
1FF8
0000
0000
0000
FC3F
FC3F
FC3F
781C
381C
3C38
1C38
1E70
0E70
0FE0
07E0
03C0
03C0
0380
0780
0700
FFC0
FFC0
FFC0
ENDCHAR
STARTCHAR dotlessj
ENCODING 567
SWIDTH 600 0
DWIDTH 18 0
BBX 11 19 3 -6
BITMAP
FFE0
FFE0
FFE0
00E0
00E0
00E0
00E0
00E0
00E0
00E0
00E0
00E0
00E0
00E0
00E0
01C0
FFC0
FF80
FE00
ENDCHAR
STARTCHAR uni0250
ENCODING 592
SWIDTH 600 0
DWIDTH 18 0
BBX 16 14 1 0
BITMAP
0020
7FFC
FFFE
7FDF
1C07
1C07
1C1F
1FFE
1FF8
1C00
1C00
1FFC
0FFE
07FC
ENDCHAR
STARTCHAR uni0251
ENCODING 593
SWIDTH 600 0
DWIDTH 18 0
BBX 17 14 1 0
BITMAP
010E00
1FEE00
3FFE00
7EFE00
701E00
E01E00
E00E00
E00E00
E00E00
F01E00
703E00
7FFF80
3FFF80
1FEF80
ENDCHAR
STARTCHAR uni0252
ENCODING 594
SWIDTH 600 0
DWIDTH 18 0
BBX 17 14 1 0
BITMAP
00F800
FBFE00
FFFF00
3F0F00
3C0780
3C0380
380380
380380
3C0380
3C0380
3E0F80
3FFF00
3FFE00
19F800
ENDCHAR
STARTCHAR uni0253
ENCODING 595
SWIDTH 600 0
DWIDTH 18 0
BBX 17 19 0 0
BITMAP
07C000
0FE000
1FE000
3C0000
380000
380000
3BFC00
3FFE00
3FBF00
3E0780
3C0380
380380
380380
380380
3C0380
3E0700
FFFF00
FFFE00
FBFC00
ENDCHAR
STARTCHAR uni0254
ENCODING 596
SWIDTH 600 0
DWIDTH 18 0
BBX 15 14 2 0
BITMAP
0100
FFE0
FFF8
FFFC
F03C
E01E
600E
000E
000E
000E
C01C
FFFC
FFF8
7FF0
ENDCHAR
STARTCHAR uni0256
ENCODING 598
SWIDTH 600 0
DWIDTH 18 0
BBX 21 25 1 -6
BITMAP
003E00
007E00
003E00
000E00
000E00
010E00
1FEE00
3FFE00
7EFE00
701E00
E01E00
E00E00
E00E00
E00E00
F01E00
703E00
7FFE00
3FFE00
1FEE00
000E00
000E00
000F00
0007F8
0003F8
0001F0
ENDCHAR
STARTCHAR uni0257
ENCODING 599
SWIDTH 600 0
DWIDTH 18 0
BBX 21 19 1 0
BITMAP
0001F0
0007F8
0007F8
000F00
000E00
010E00
1FEE00
3FFE00
7EFE00
701E00
E01E00
E00E00
E00E00
E00E00
F01E00
783E00
7FFF80
3FFF80
1FEF80
ENDCHAR
STARTCHAR uni0258
ENCODING 600
SWIDTH 600 0
DWIDTH 18 0
BBX 15 13 1 0
BITMAP
0FF0
3FF8
7FFC
781E
F00E
FFFE
FFFE
FFFE
000E
401E
FFFC
FFF8
3FF0
ENDCHAR
STARTCHAR uni0259
ENCODING 601
SWIDTH 600 0
DWIDTH 18 0
BBX 16 13 1 0
BITMAP
3FF0
FFF8
FFFC
001E
000E
FFFE
FFFF
FFFE
F00E
781E
7FFC
3FF8
0FF0
ENDCHAR
STARTCHAR uni025B
ENCODING 603
SWIDTH 600 0
DWIDTH 18 0
BBX 14 13 2 0
BITMAP
1FF8
3FF8
7FF8
7038
7C00
7FC0
3FC0
7FC0
F018
F03C
FFFC
7FFC
3FF8
ENDCHAR
STARTCHAR uni025C
ENCODING 604
SWIDTH 600 0
DWIDTH 18 0
BBX 14 13 2 0
BITMAP
7FE0
7FF0
7FF8
7038
20F8
0FF8
0FF0
0FF8
603C
E03C
FFFC
FFF8
7FF0
ENDCHAR
STARTCHAR uni025F
ENCODING 607
SWIDTH 600 0
DWIDTH 18 0
BBX 13 19 4 -6
BITMAP
FFE0
FFE0
FFE0
00E0
00E0
00E0
00E0
00E0
00E0
00E0
FFF8
FFF8
FFF8
00E0
01E0
01C0
FFC0
FF80
FE00
ENDCHAR
STARTCHAR uni0260
ENCODING 608
SWIDTH 600 0
DWIDTH 18 0
BBX 20 25 1 -6
BITMAP
0003E0
0007F0
000FF0
000E00
001C00
021C00
1FFC00
3FFC00
7FFC00
703C00
E01C00
E01C00
E01C00
E01C00
F01C00
703C00
7FFC00
3FFC00
1FFC00
001C00
001C00
003C00
0FF800
1FF800
0FE000
ENDCHAR
STARTCHAR uni0261
ENCODING 609
SWIDTH 600 0
DWIDTH 18 0
BBX 14 20 1 -6
BITMAP
020C
1FFC
3FFC
7FFC
703C
E01C
E01C
E01C
E01C
F01C
703C
7FFC
3FFC
1FFC
001C
001C
003C
0FF8
1FF8
0FE0
ENDCHAR
STARTCHAR uni0265
ENCODING 613
SWIDTH 600 0
DWIDTH 18 0
BBX 17 19 0 -6
BITMAP
7E3F80
FF3F80
7E3F80
1C0E00
1C0E00
1C0E00
1C0E00
1C0E00
1C0E00
1C1E00
1FFE00
1FFE00
0FEE00
000E00
000E00
000E00
000F80
000F80
000F00
ENDCHAR
STARTCHAR uni0266
ENCODING 614
SWIDTH 600 0
DWIDTH 18 0
BBX 16 19 1 0
BITMAP
07C0
1FE0
1FC0
3C00
3800
3800
3BF0
3FF8
3FFC
3C1C
381C
381C
381C
381C
381C
381C
FE7F
FE7F
FE7F
ENDCHAR
STARTCHAR uni0267
ENCODING 615
SWIDTH 600 0
DWIDTH 18 0
BBX 14 25 1 -6
BITMAP
07C0
1FE0
1FC0
3C00
3800
3800
3BF0
3FF8
3FFC
3C1C
381C
381C
381C
381C
381C
381C
FE1C
FE1C
FE1C
001C
001C
003C
07F8
07F8
03E0
ENDCHAR
STARTCHAR uni0268
ENCODING 616
SWIDTH 600 0
DWIDTH 18 0
BBX 14 19 2 0
BITMAP
0700
0700
0700
0000
0000
0000
7F80
7F80
3F80
0780
0780
1FE0
7FF8
7FF8
0780
0780
FFFC
FFFC
FFFC
ENDCHAR
STARTCHAR uni0269
ENCODING 617
SWIDTH 600 0
DWIDTH 18 0
BBX 13 13 3 0
BITMAP
FF00
FF00
7F00
0F00
0F00
0F00
0F00
0F00
0700
0700
07F8
03F8
01F8
ENDCHAR
STARTCHAR uni026A
ENCODING 618
SWIDTH 600 0
DWIDTH 18 0
BBX 12 13 3 0
BITMAP
7FE0
FFF0
7FE0
0F00
0F00
0F00
0F00
0F00
0F00
0F00
7FE0
FFF0
7FE0
ENDCHAR
STARTCHAR uni026B
ENCODING 619
SWIDTH 600 0
DWIDTH 18 0
BBX 14 19 2 0
BITMAP
3F80
7F80
7F80
0780
0780
0780
0780
0F80
3F8C
7F9C
FFFC
E7F8
C7F0
07C0
0780
0780
FFFC
FFFC
FFFC
ENDCHAR
STARTCHAR uni026D
ENCODING 621
SWIDTH 600 0
DWIDTH 18 0
BBX 13 25 3 -6
BITMAP
7F00
FF00
FF00
0F00
0F00
0F00
0F00
0F00
0F00
0F00
0F00
0F00
0F00
0F00
0F00
0F00
0F00
0F00
0F00
0F00
0700
0700
07F8
03F8
01F0
ENDCHAR
STARTCHAR uni026F
ENCODING 623
SWIDTH 600 0
DWIDTH 18 0
BBX 20 13 -1 0
BITMAP
79F7E0
F9F7F0
79F3E0
3871C0
3871C0
3871C0
3871C0
3871C0
3871C0
38F3C0
3FFFE0
1FFFF0
0FBFE0
ENDCHAR
STARTCHAR uni0270
ENCODING 624
SWIDTH 600 0
DWIDTH 18 0
BBX 20 19 -1 -6
BITMAP
79F7E0
F9F7F0
79F3E0
3871C0
3871C0
3871C0
3871C0
3871C0
3871C0
38F3C0
3FFFC0
1FFFC0
0FBFC0
0001C0
0001C0
0001C0
0001E0
0001F0
0001E0
ENDCHAR
STARTCHAR uni0271
ENCODING 625
SWIDTH 600 0
DWIDTH 18 0
BBX 18 19 -1 -6
BITMAP
7FDF80
FFFF80
7FFFC0
3C71C0
3871C0
3871C0
3871C0
3871C0
3871C0
3871C0
7E79C0
FE79C0
7E79C0
0001C0
0001C0
0003C0
007F80
007F00
003E00
ENDCHAR
STARTCHAR uni0272
ENCODING 626
SWIDTH 600 0
DWIDTH 18 0
BBX 20 19 -3 -6
BITMAP
0FBF00
0FFF80
0FFFC0
03C1C0
0381C0
0381C0
0381C0
0381C0
0381C0
0381C0
0383F0
0387F0
0383F0
038000
038000
070000
FF0000
FE0000
7C0000
ENDCHAR
STARTCHAR uni0273
ENCODING 627
SWIDTH 600 0
DWIDTH 18 0
BBX 20 19 1 -6
BITMAP
FBF000
FFF800
FFFC00
3C1C00
381C00
381C00
381C00
381C00
381C00
381C00
FE1C00
FE1C00
FE1C00
001C00
001E00
000E00
000FF0
0007F0
0003E0
ENDCHAR
STARTCHAR uni0274
ENCODING 628
SWIDTH 600 0
DWIDTH 18 0
BBX 14 13 2 0
BITMAP
F8FC
FCFC
7CFC
3E38
3F38
3F38
3BB8
3BF8
39F8
38F8
FCF8
FC78
FC38
ENDCHAR
STARTCHAR uni0275
ENCODING 629
SWIDTH 600 0
DWIDTH 18 0
BBX 16 13 1 0
BITMAP
0FF0
1FF8
3FFC
781E
700E
FFFF
FFFF
FFFF
700E
781E
3FFC
1FF8
0FF0
ENDCHAR
STARTCHAR uni0279
ENCODING 633
SWIDTH 600 0
DWIDTH 18 0
BBX 15 13 2 0
BITMAP
1FFE
3FFE
1FFE
00E0
00E0
00E0
00E0
00E0
01E0
43E0
FFFC
FFFC
7CFC
ENDCHAR
STARTCHAR uni027A
ENCODING 634
SWIDTH 600 0
DWIDTH 18 0
BBX 15 19 2 0
BITMAP
1FFE
3FFE
1FFE
00E0
00E0
00E0
00E0
00E0
00E0
00E0
00E0
00E0
00E0
00E0
01E0
43E0
FFFC
FFFC
7CFC
ENDCHAR
STARTCHAR uni027B
ENCODING 635
SWIDTH 600 0
DWIDTH 18 0
BBX 17 19 2 -6
BITMAP
1FFE00
3FFE00
1FFE00
00E000
00E000
00E000
00E000
00E000
01E000
43E000
FFE000
FFE000
7CE000
00E000
007000
007000
007F80
003F80
001F00
ENDCHAR
STARTCHAR uni027C
ENCODING 636
SWIDTH 600 0
DWIDTH 18 0
BBX 15 19 2 -6
BITMAP
7CFC
FDFE
7FFE
1F84
1F00
1C00
1C00
1C00
1C00
1C00
1C00
1C00
1C00
1C00
1C00
1C00
FFF0
FFF8
FFF0
ENDCHAR
STARTCHAR uni027D
ENCODING 637
SWIDTH 600 0
DWIDTH 18 0
BBX 15 19 2 -6
BITMAP
7CFC
FDFE
7FFE
1F84
1F00
1C00
1C00
1C00
1C00
1C00
1C00
1C00
1C00
1C00
1E00
0E00
0FF0
07F0
03E0
ENDCHAR
STARTCHAR uni027E
ENCODING 638
SWIDTH 600 0
DWIDTH 18 0
BBX 13 13 2 0
BITMAP
03F0
0FF0
0FF0
1E00
1C00
1C00
1C00
1C00
1C00
1C00
FFF0
FFF8
FFF0
ENDCHAR
STARTCHAR uni027F
ENCODING 639
SWIDTH 600 0
DWIDTH 18 0
BBX 13 19 2 -6
BITMAP
FE00
FF00
7F00
0780
0380
0380
0380
0380
0380
0380
0380
0380
0380
0380
0380
0380
FFF0
FFF8
FFF0
ENDCHAR
STARTCHAR uni0280
ENCODING 640
SWIDTH 600 0
DWIDTH 18 0
BBX 14 13 2 0
BITMAP
7F80
FFE0
7FE0
38F0
3870
3FF0
3FE0
3FC0
3BE0
38E0
7CF8
FE7C
7C78
ENDCHAR
STARTCHAR uni0281
ENCODING 641
SWIDTH 600 0
DWIDTH 18 0
BBX 14 13 2 0
BITMAP
7C78
FE7C
7CF8
38E0
3FE0
3FC0
3FE0
3BF0
3870
38F0
7FE0
FFE0
7F80
ENDCHAR
STARTCHAR uni0282
ENCODING 642
SWIDTH 600 0
DWIDTH 18 0
BBX 14 19 2 -6
BITMAP
1FF8
3FF8
7FF8
7038
7C10
7FE0
3FF8
03F8
603C
E03C
FFFC
FFF8
FFF0
E000
E000
7000
7F80
3F80
1F00
ENDCHAR
STARTCHAR uni0283
ENCODING 643
SWIDTH 600 0
DWIDTH 18 0
BBX 14 23 2 -4
BITMAP
00FC
01FC
03FC
0380
0380
0380
0380
0380
0380
0380
0380
0380
0380
0380
0380
0380
0380
0380
0700
4F00
FF00
FE00
7000
ENDCHAR
STARTCHAR uni0284
ENCODING 644
SWIDTH 600 0
DWIDTH 18 0
BBX 17 25 1 -6
BITMAP
001F00
007F80
007F80
00F000
00E000
00E000
00E000
00E000
00E000
00E000
00E000
00E000
00E000
00E000
00E000
FFF800
FFF800
FFF800
00E000
00E000
00E000
01E000
FFC000
FF8000
FF0000
ENDCHAR
STARTCHAR uni0285
ENCODING 645
SWIDTH 600 0
DWIDTH 18 0
BBX 14 23 2 -4
BITMAP
FC00
FE00
FF00
0700
0700
0380
0380
0380
0380
0380
0380
0380
0380
0380
0380
0380
0380
0380
0380
03CC
01FC
01FC
0038
ENDCHAR
STARTCHAR uni0287
ENCODING 647
SWIDTH 600 0
DWIDTH 18 0
BBX 16 18 0 0
BITMAP
0780
3FF0
7FF0
F878
0038
0038
0038
0038
0038
0038
0038
1FFF
3FFF
1FFE
0038
0038
0038
0038
ENDCHAR
STARTCHAR uni0288
ENCODING 648
SWIDTH 600 0
DWIDTH 18 0
BBX 16 24 0 -6
BITMAP
0C00
1C00
1C00
1C00
1C00
7FFC
FFFC
7FF8
1C00
1C00
1C00
1C00
1C00
1C00
1C00
1C00
1C00
1C00
1C00
1C00
1E0F
0FFF
0FFE
03F0
ENDCHAR
STARTCHAR uni0289
ENCODING 649
SWIDTH 600 0
DWIDTH 18 0
BBX 17 13 0 0
BITMAP
7C3E00
FC7E00
7C3E00
1C0E00
1C0E00
3FFF00
FFFF80
FFFF80
1C0E00
1C1E00
1FFF80
0FFF80
07EF80
ENDCHAR
STARTCHAR uni028C
ENCODING 652
SWIDTH 600 0
DWIDTH 18 0
BBX 18 13 0 0
BITMAP
01E000
01E000
03F000
03F000
077800
073800
0E3C00
0E1C00
1C1E00
1C0E00
FF3FC0
FF3FC0
FF3FC0
ENDCHAR
STARTCHAR uni028D
ENCODING 653
SWIDTH 600 0
DWIDTH 18 0
BBX 18 13 0 0
BITMAP
0E1C00
0E3C00
1F3C00
1F3E00
1FFE00
1FFE00
3FFE00
39E700
39E700
39E700
FC0FC0
FE1FC0
FC0FC0
ENDCHAR
STARTCHAR uni028E
ENCODING 654
SWIDTH 600 0
DWIDTH 18 0
BBX 16 19 1 0
BITMAP
03FF
03FF
03FF
00E0
01E0
01C0
03C0
03E0
07E0
07F0
0E70
0E78
1C38
3C3C
381C
781E
FC3F
FC3F
FC3F
ENDCHAR
STARTCHAR uni0290
ENCODING 656
SWIDTH 600 0
DWIDTH 18 0
BBX 18 19 3 -6
BITMAP
FFF000
FFF000
FFF000
E1E000
E3C000
078000
0F0000
1E0000
3C1000
783000
FFF800
FFF800
FFF800
003800
003800
003800
003FC0
001FC0
0007C0
ENDCHAR
STARTCHAR uni0291
ENCODING 657
SWIDTH 600 0
DWIDTH 18 0
BBX 13 16 3 -3
BITMAP
FFF0
FFF0
FFE0
E1C0
C380
0700
0FF0
1FF8
3FF8
7BB8
FFF8
FFF8
FFE0
0380
0380
0180
ENDCHAR
STARTCHAR uni0292
ENCODING 658
SWIDTH 600 0
DWIDTH 18 0
BBX 12 18 2 -5
BITMAP
7FF0
7FF0
03C0
0780
0F00
1F80
3FC0
3FE0
10E0
00E0
0060
0060
0060
00E0
E0E0
F9C0
7FC0
3F80
ENDCHAR
STARTCHAR uni0293
ENCODING 659
SWIDTH 600 0
DWIDTH 18 0
BBX 11 19 3 -6
BITMAP
FFE0
FFE0
0780
0F00
1E00
3F00
7F80
7FC0
21C0
00C0
00C0
00C0
7CC0
7FC0
EFC0
EF80
7F80
7F80
0180
ENDCHAR
STARTCHAR uni0294
ENCODING 660
SWIDTH 600 0
DWIDTH 18 0
BBX 13 18 3 0
BITMAP
1F80
7FE0
FFF0
F0F0
E070
E038
0070
00F0
03F0
07E0
0780
0700
0700
0700
0700
3FC0
3FC0
1FC0
ENDCHAR
STARTCHAR uni0295
ENCODING 661
SWIDTH 600 0
DWIDTH 18 0
BBX 13 18 3 0
BITMAP
0F80
3FF0
7FF8
7078
E038
E030
E000
F000
7E00
3F00
0F00
0700
0700
0700
0700
1FC0
1FE0
1FC0
ENDCHAR
STARTCHAR uni0296
ENCODING 662
SWIDTH 600 0
DWIDTH 18 0
BBX 13 17 3 0
BITMAP
1FC0
1FC0
0F80
0700
0700
0700
0700
1F00
7F00
7800
F000
E020
E030
F078
7FF8
7FF8
1FE0
ENDCHAR
STARTCHAR uni0297
ENCODING 663
SWIDTH 600 0
DWIDTH 18 0
BBX 16 24 1 -6
BITMAP
03E0
0FFE
3FFE
3C3E
780E
F006
E006
E000
E000
E000
E000
E000
E000
E000
E000
E000
E000
E000
F000
7007
7C0F
3FFE
1FFC
07F0
ENDCHAR
STARTCHAR uni0298
ENCODING 664
SWIDTH 600 0
DWIDTH 18 0
BBX 16 18 1 0
BITMAP
07C0
0FF0
3FFC
7C3E
781E
F00F
E007
E007
E3C7
E3C7
E187
E007
E007
700E
781E
3FFC
1FF8
0FF0
ENDCHAR
STARTCHAR uni0299
ENCODING 665
SWIDTH 600 0
DWIDTH 18 0
BBX 15 13 1 0
BITMAP
7FF0
FFF8
187C
181C
183C
1FF8
1FFC
187E
180E
180E
7FFE
FFFC
7FF0
ENDCHAR
STARTCHAR uni029a
ENCODING 666
SWIDTH 600 0
DWIDTH 18 0
BBX 14 15 2 -1
BITMAP
0780
1FF0
3FF8
7838
701C
781C
3FDC
3FDC
7F9C
F01C
E01C
7038
7FF8
3FF0
0300
ENDCHAR
STARTCHAR uni029b
ENCODING 667
SWIDTH 600 0
DWIDTH 18 0
BBX 18 17 0 -1
BITMAP
000200
000F80
011FC0
1FFDC0
3FFDC0
783C00
701C00
E00000
E00000
E1FC00
E1FE00
E1FC00
701C00
781C00
3FFC00
1FF800
018000
ENDCHAR
STARTCHAR uni029C
ENCODING 668
SWIDTH 600 0
DWIDTH 18 0
BBX 14 13 2 0
BITMAP
F8FC
FCFC
F87C
7038
7038
7FF8
7FF8
7FF8
7038
7038
F87C
FCFC
F87C
ENDCHAR
STARTCHAR uni029d
ENCODING 669
SWIDTH 600 0
DWIDTH 18 0
BBX 13 25 4 -6
BITMAP
0380
0380
0380
0380
0000
0000
FFC0
FFC0
00C0
00C0
00C0
00C0
00C0
00C0
00C0
00C0
1FF8
7FF8
FFF8
E0C0
C1C0
E1C0
FF80
7F00
0C00
ENDCHAR
STARTCHAR uni029E
ENCODING 670
SWIDTH 600 0
DWIDTH 18 0
BBX 16 19 1 -6
BITMAP
FE1F
FF1F
FE1F
0F1C
079C
03FC
01FC
01FC
03FC
079C
3F1C
7F9C
3F1C
001C
001C
001C
001F
001F
001C
ENDCHAR
STARTCHAR uni029F
ENCODING 671
SWIDTH 600 0
DWIDTH 18 0
BBX 14 13 2 0
BITMAP
FF80
FF80
FF00
1C00
1C00
1C00
1C00
1C0C
1C1C
1C1C
FFFC
FFFC
FFFC
ENDCHAR
STARTCHAR uni02A0
ENCODING 672
SWIDTH 600 0
DWIDTH 18 0
BBX 21 25 1 -6
BITMAP
0001F0
0007F8
0007F8
000F00
000E00
010E00
1FEE00
3FFE00
7FFE00
701E00
E01E00
E00E00
E00E00
E00E00
F01E00
7C7E00
3FFE00
1FEE00
030E00
000E00
000E00
000E00
007F80
00FF80
007F80
ENDCHAR
STARTCHAR uni02A1
ENCODING 673
SWIDTH 600 0
DWIDTH 18 0
BBX 13 18 3 0
BITMAP
1F80
7FE0
FFF0
F0F0
E070
E038
0070
00F0
03F0
07E0
0780
FF00
FF00
3F00
0700
3FC0
3FC0
1FC0
ENDCHAR
STARTCHAR uni02A2
ENCODING 674
SWIDTH 600 0
DWIDTH 18 0
BBX 13 18 3 0
BITMAP
0F80
3FF0
7FF8
7078
E038
E030
E000
F000
7E00
3F00
0F00
07F0
07F0
07E0
0700
1FC0
1FE0
1FC0
ENDCHAR
STARTCHAR uni02b0
ENCODING 688
SWIDTH 600 0
DWIDTH 18 0
BBX 11 13 3 11
BITMAP
F000
F000
7000
7600
7F80
7FC0
70C0
70C0
70C0
70C0
70C0
FBE0
FBE0
ENDCHAR
STARTCHAR uni02b1
ENCODING 689
SWIDTH 600 0
DWIDTH 18 0
BBX 12 13 3 11
BITMAP
1E00
3F00
3800
3700
3F80
3FC0
38C0
30C0
30C0
30C0
30C0
79F0
F9F0
ENDCHAR
STARTCHAR uni02b2
ENCODING 690
SWIDTH 600 0
DWIDTH 18 0
BBX 8 17 5 7
BITMAP
0E
0E
0E
0E
7F
FF
03
03
03
03
03
03
03
03
07
FE
FC
ENDCHAR
STARTCHAR uni02b3
ENCODING 691
SWIDTH 600 0
DWIDTH 18 0
BBX 10 10 4 11
BITMAP
0100
F7C0
FFC0
3C00
3800
3000
3000
3000
FF00
FF00
ENDCHAR
STARTCHAR uni02b4
ENCODING 692
SWIDTH 600 0
DWIDTH 18 0
BBX 10 9 2 11
BITMAP
3FC0
3FC0
0300
0300
0300
0700
CF00
FFC0
7BC0
ENDCHAR
STARTCHAR uni02b5
ENCODING 693
SWIDTH 600 0
DWIDTH 18 0
BBX 12 13 3 7
BITMAP
3FC0
3FC0
0300
0300
0300
0700
CF00
FF00
FB00
0300
0320
03F0
01E0
ENDCHAR
STARTCHAR uni02b6
ENCODING 694
SWIDTH 600 0
DWIDTH 18 0
BBX 12 12 2 11
BITMAP
FC70
7C70
30E0
31C0
3380
3F80
3FC0
30E0
30E0
30C0
FFC0
FF80
ENDCHAR
STARTCHAR uni02b7
ENCODING 695
SWIDTH 600 0
DWIDTH 18 0
BBX 12 10 3 11
BITMAP
70E0
F9F0
F6E0
66E0
7FE0
3FC0
3FC0
3FC0
39C0
1980
ENDCHAR
STARTCHAR uni02b8
ENCODING 696
SWIDTH 600 0
DWIDTH 18 0
BBX 12 14 3 7
BITMAP
30E0
F9F0
79E0
38C0
39C0
1D80
1F80
0F00
0F00
0600
0E00
3E00
7F00
7E00
ENDCHAR
STARTCHAR primemod
ENCODING 697
SWIDTH 600 0
DWIDTH 18 0
BBX 6 7 6 13
BITMAP
7C
78
78
70
E0
E0
40
ENDCHAR
STARTCHAR uni02ba
ENCODING 698
SWIDTH 600 0
DWIDTH 18 0
BBX 10 7 4 13
BITMAP
7FC0
7F80
F700
E700
EE00
CE00
C400
ENDCHAR
STARTCHAR commaturnedmod
ENCODING 699
SWIDTH 600 0
DWIDTH 18 0
BBX 6 5 6 15
BITMAP
C0
E0
78
3C
1C
ENDCHAR
STARTCHAR apostrophe
ENCODING 700
SWIDTH 600 0
DWIDTH 18 0
BBX 6 5 6 15
BITMAP
08
1C
78
F0
E0
ENDCHAR
STARTCHAR uni02bd
ENCODING 701
SWIDTH 600 0
DWIDTH 18 0
BBX 6 7 6 13
BITMAP
F0
78
78
38
1C
1C
08
ENDCHAR
STARTCHAR uni02BE
ENCODING 702
SWIDTH 600 0
DWIDTH 18 0
BBX 3 5 8 15
BITMAP
C0
E0
60
60
C0
ENDCHAR
STARTCHAR uni02BF
ENCODING 703
SWIDTH 600 0
DWIDTH 18 0
BBX 3 5 7 15
BITMAP
60
C0
C0
E0
60
ENDCHAR
STARTCHAR uni02c0
ENCODING 704
SWIDTH 600 0
DWIDTH 18 0
BBX 8 12 5 11
BITMAP
3C
FF
E7
C3
03
0F
1E
1C
18
18
18
18
ENDCHAR
STARTCHAR uni02c1
ENCODING 705
SWIDTH 600 0
DWIDTH 18 0
BBX 8 12 5 11
BITMAP
3E
7F
F7
C3
E0
F0
7C
1C
1C
1C
1C
18
ENDCHAR
STARTCHAR uni02c2
ENCODING 706
SWIDTH 600 0
DWIDTH 18 0
BBX 8 7 5 17
BITMAP
03
0F
3F
FC
3F
0F
03
ENDCHAR
STARTCHAR uni02c3
ENCODING 707
SWIDTH 600 0
DWIDTH 18 0
BBX 8 7 5 17
BITMAP
C0
F0
FC
3F
7C
F0
E0
ENDCHAR
STARTCHAR uni02c4
ENCODING 708
SWIDTH 600 0
DWIDTH 18 0
BBX 8 7 5 17
BITMAP
10
18
3C
7E
7E
E7
C2
ENDCHAR
STARTCHAR uni02c5
ENCODING 709
SWIDTH 600 0
DWIDTH 18 0
BBX 8 7 5 17
BITMAP
43
E7
7E
7E
3C
18
10
ENDCHAR
STARTCHAR circumflex
ENCODING 710
SWIDTH 600 0
DWIDTH 18 0
BBX 10 5 4 15
BITMAP
0C00
1E00
7F80
F3C0
C0C0
ENDCHAR
STARTCHAR caron
ENCODING 711
SWIDTH 600 0
DWIDTH 18 0
BBX 10 5 4 15
BITMAP
0040
E1C0
FF80
3F00
0C00
ENDCHAR
STARTCHAR linevert
ENCODING 712
SWIDTH 600 0
DWIDTH 18 0
BBX 2 6 8 14
BITMAP
C0
C0
C0
C0
C0
C0
ENDCHAR
STARTCHAR uni02c9
ENCODING 713
SWIDTH 600 0
DWIDTH 18 0
BBX 10 3 4 16
BITMAP
FFC0
FFC0
7F80
ENDCHAR
STARTCHAR uni02ca
ENCODING 714
SWIDTH 600 0
DWIDTH 18 0
BBX 5 5 7 15
BITMAP
08
18
78
F0
C0
ENDCHAR
STARTCHAR uni02cb
ENCODING 715
SWIDTH 600 0
DWIDTH 18 0
BBX 5 5 5 15
BITMAP
C0
E0
70
38
18
ENDCHAR
STARTCHAR uni02cc
ENCODING 716
SWIDTH 600 0
DWIDTH 18 0
BBX 2 6 8 -6
BITMAP
C0
C0
C0
C0
C0
C0
ENDCHAR
STARTCHAR uni02cd
ENCODING 717
SWIDTH 600 0
DWIDTH 18 0
BBX 10 2 4 -3
BITMAP
FFC0
FFC0
ENDCHAR
STARTCHAR uni02ce
ENCODING 718
SWIDTH 600 0
DWIDTH 18 0
BBX 5 5 7 -6
BITMAP
C0
E0
70
38
18
ENDCHAR
STARTCHAR uni02cf
ENCODING 719
SWIDTH 600 0
DWIDTH 18 0
BBX 5 5 6 -6
BITMAP
18
38
70
E0
C0
ENDCHAR
STARTCHAR uni02D0
ENCODING 720
SWIDTH 600 0
DWIDTH 18 0
BBX 6 13 6 0
BITMAP
FC
78
78
30
30
00
00
00
30
30
78
78
FC
ENDCHAR
STARTCHAR uni02D1
ENCODING 721
SWIDTH 600 0
DWIDTH 18 0
BBX 6 5 6 8
BITMAP
FC
78
78
30
30
ENDCHAR
STARTCHAR ringhalfrightcentered
ENCODING 722
SWIDTH 600 0
DWIDTH 18 0
BBX 3 5 8 6
BITMAP
C0
E0
60
E0
C0
ENDCHAR
STARTCHAR ringhalfleftcentered
ENCODING 723
SWIDTH 600 0
DWIDTH 18 0
BBX 3 6 7 6
BITMAP
60
E0
C0
C0
E0
20
ENDCHAR
STARTCHAR uni02d4
ENCODING 724
SWIDTH 600 0
DWIDTH 18 0
BBX 5 4 6 16
BITMAP
30
30
F8
F8
ENDCHAR
STARTCHAR uni02d5
ENCODING 725
SWIDTH 600 0
DWIDTH 18 0
BBX 5 4 7 16
BITMAP
F8
F8
60
60
ENDCHAR
STARTCHAR uni02d6
ENCODING 726
SWIDTH 600 0
DWIDTH 18 0
BBX 6 6 6 15
BITMAP
30
30
FC
FC
30
30
ENDCHAR
STARTCHAR uni02d7
ENCODING 727
SWIDTH 600 0
DWIDTH 18 0
BBX 6 2 6 16
BITMAP
FC
FC
ENDCHAR
STARTCHAR breve
ENCODING 728
SWIDTH 600 0
DWIDTH 18 0
BBX 10 5 4 15
BITMAP
8040
C0C0
E1C0
7F80
1E00
ENDCHAR
STARTCHAR dotaccent
ENCODING 729
SWIDTH 600 0
DWIDTH 18 0
BBX 4 4 7 16
BITMAP
60
F0
F0
60
ENDCHAR
STARTCHAR ring
ENCODING 730
SWIDTH 600 0
DWIDTH 18 0
BBX 6 5 6 15
BITMAP
78
FC
CC
FC
78
ENDCHAR
STARTCHAR ogonek
ENCODING 731
SWIDTH 600 0
DWIDTH 18 0
BBX 7 6 7 -6
BITMAP
38
70
60
EE
7E
7C
ENDCHAR
STARTCHAR tilde
ENCODING 732
SWIDTH 600 0
DWIDTH 18 0
BBX 11 3 4 16
BITMAP
FCE0
FFC0
8780
ENDCHAR
STARTCHAR hungarumlaut
ENCODING 733
SWIDTH 600 0
DWIDTH 18 0
BBX 10 5 4 15
BITMAP
1840
39C0
7380
E700
C600
ENDCHAR
STARTCHAR uni02de
ENCODING 734
SWIDTH 600 0
DWIDTH 18 0
BBX 8 6 5 7
BITMAP
30
F0
F8
FF
1F
0F
ENDCHAR
STARTCHAR uni02df
ENCODING 735
SWIDTH 600 0
DWIDTH 18 0
BBX 4 5 7 15
BITMAP
F0
F0
F0
F0
10
ENDCHAR
STARTCHAR uni02e0
ENCODING 736
SWIDTH 600 0
DWIDTH 18 0
BBX 12 14 3 7
BITMAP
70E0
F9F0
78E0
30C0
39C0
1980
1F80
0F00
0F00
0600
0F00
0F00
0F00
0600
ENDCHAR
STARTCHAR uni02e1
ENCODING 737
SWIDTH 600 0
DWIDTH 18 0
BBX 10 13 4 11
BITMAP
7C00
7C00
0C00
0C00
0C00
0C00
0C00
0C00
0C00
0C00
0C00
FFC0
FFC0
ENDCHAR
STARTCHAR uni02e2
ENCODING 738
SWIDTH 600 0
DWIDTH 18 0
BBX 10 10 4 11
BITMAP
1F00
7F80
7380
7180
7E00
1F80
E180
E1C0
FF80
7F00
ENDCHAR
STARTCHAR uni02e3
ENCODING 739
SWIDTH 600 0
DWIDTH 18 0
BBX 11 9 3 11
BITMAP
7FE0
79E0
1F80
0F00
0F00
1F80
39C0
F9E0
F9E0
ENDCHAR
STARTCHAR uni02e4
ENCODING 740
SWIDTH 600 0
DWIDTH 18 0
BBX 8 13 5 11
BITMAP
08
7F
FF
E3
C1
E0
78
3C
1C
1C
1C
3E
3E
ENDCHAR
STARTCHAR uni02e5
ENCODING 741
SWIDTH 600 0
DWIDTH 18 0
BBX 13 25 1 -1
BITMAP
FFF8
FFF8
FFF8
0018
0018
0018
0018
0018
0018
0018
0018
0018
0018
0018
0018
0018
0018
0018
0018
0018
0018
0018
0018
0018
0018
ENDCHAR
STARTCHAR uni02e6
ENCODING 742
SWIDTH 600 0
DWIDTH 18 0
BBX 13 25 1 -1
BITMAP
0018
0018
0018
0018
FFF8
FFF8
0018
0018
0018
0018
0018
0018
0018
0018
0018
0018
0018
0018
0018
0018
0018
0018
0018
0018
0018
ENDCHAR
STARTCHAR uni02e7
ENCODING 743
SWIDTH 600 0
DWIDTH 18 0
BBX 13 25 1 -1
BITMAP
0018
0018
0018
0018
0018
0018
0018
0018
0018
0018
0018
FFF8
FFF8
0018
0018
0018
0018
0018
0018
0018
0018
0018
0018
0018
0018
ENDCHAR
STARTCHAR uni02e8
ENCODING 744
SWIDTH 600 0
DWIDTH 18 0
BBX 13 25 1 -1
BITMAP
0018
0018
0018
0018
0018
0018
0018
0018
0018
0018
0018
0018
0018
0018
0018
0018
0018
FFF8
FFF8
0018
0018
0018
0018
0018
0018
ENDCHAR
STARTCHAR uni02e9
ENCODING 745
SWIDTH 600 0
DWIDTH 18 0
BBX 13 25 1 -1
BITMAP
0018
0018
0018
0018
0018
0018
0018
0018
0018
0018
0018
0018
0018
0018
0018
0018
0018
0018
0018
0018
0018
0018
FFF8
FFF8
7FF8
ENDCHAR
STARTCHAR uni02ea
ENCODING 746
SWIDTH 600 0
DWIDTH 18 0
BBX 14 22 2 -1
BITMAP
E000
E000
E000
E000
E000
E000
E000
E000
E000
E000
E000
E000
E000
E000
E000
E000
E000
E000
E000
FFFC
FFFC
FFF8
ENDCHAR
STARTCHAR uni02eb
ENCODING 747
SWIDTH 600 0
DWIDTH 18 0
BBX 14 13 2 -1
BITMAP
C000
E000
E000
E000
E000
FFF8
FFFC
FFF8
E000
E000
E000
E000
C000
ENDCHAR
STARTCHAR uni02ec
ENCODING 748
SWIDTH 600 0
DWIDTH 18 0
BBX 10 5 4 -6
BITMAP
C0C0
F3C0
7F80
1E00
0C00
ENDCHAR
STARTCHAR uni02ed
ENCODING 749
SWIDTH 600 0
DWIDTH 18 0
BBX 16 7 1 15
BITMAP
FFFF
FFFF
7FFE
0000
7FFE
FFFF
FFFF
ENDCHAR
STARTCHAR uni02EE
ENCODING 750
SWIDTH 600 0
DWIDTH 18 0
BBX 11 9 3 10
BITMAP
79E0
79E0
78E0
38E0
71C0
71C0
6180
E180
C300
ENDCHAR
STARTCHAR uni02ef
ENCODING 751
SWIDTH 600 0
DWIDTH 18 0
BBX 8 7 5 -6
BITMAP
43
E7
7E
7E
3C
18
10
ENDCHAR
STARTCHAR uni02f0
ENCODING 752
SWIDTH 600 0
DWIDTH 18 0
BBX 8 7 5 -6
BITMAP
10
18
3C
7E
7E
E7
C2
ENDCHAR
STARTCHAR uni02f1
ENCODING 753
SWIDTH 600 0
DWIDTH 18 0
BBX 8 7 5 -6
BITMAP
03
0F
3F
FC
3F
0F
03
ENDCHAR
STARTCHAR uni02f2
ENCODING 754
SWIDTH 600 0
DWIDTH 18 0
BBX 8 7 5 -5
BITMAP
C0
F0
FC
3F
FC
F0
C0
ENDCHAR
STARTCHAR uni02f3
ENCODING 755
SWIDTH 600 0
DWIDTH 18 0
BBX 6 5 6 -5
BITMAP
78
FC
CC
FC
78
ENDCHAR
STARTCHAR uni02f4
ENCODING 756
SWIDTH 600 0
DWIDTH 18 0
BBX 5 5 7 7
BITMAP
C0
E0
70
38
18
ENDCHAR
STARTCHAR uni02f5
ENCODING 757
SWIDTH 600 0
DWIDTH 18 0
BBX 9 5 5 7
BITMAP
CC00
EE00
7700
3B80
1980
ENDCHAR
STARTCHAR uni02f6
ENCODING 758
SWIDTH 600 0
DWIDTH 18 0
BBX 5 5 6 6
BITMAP
18
38
70
E0
C0
ENDCHAR
STARTCHAR uni02f7
ENCODING 759
SWIDTH 600 0
DWIDTH 18 0
BBX 11 3 4 -5
BITMAP
FCE0
FFC0
8780
ENDCHAR
STARTCHAR uni02f8
ENCODING 760
SWIDTH 600 0
DWIDTH 18 0
BBX 4 13 7 10
BITMAP
F0
F0
F0
60
00
00
00
00
00
20
F0
F0
F0
ENDCHAR
STARTCHAR uni02F9
ENCODING 761
SWIDTH 600 0
DWIDTH 18 0
BBX 6 5 6 16
BITMAP
F8
FC
F8
E0
E0
ENDCHAR
STARTCHAR uni02FA
ENCODING 762
SWIDTH 600 0
DWIDTH 18 0
BBX 6 5 6 16
BITMAP
FC
FC
7C
1C
1C
ENDCHAR
STARTCHAR uni02fb
ENCODING 763
SWIDTH 600 0
DWIDTH 18 0
BBX 6 5 6 -2
BITMAP
E0
E0
F8
FC
F8
ENDCHAR
STARTCHAR uni02fc
ENCODING 764
SWIDTH 600 0
DWIDTH 18 0
BBX 5 5 8 -2
BITMAP
18
38
F8
F8
F8
ENDCHAR
STARTCHAR uni02fd
ENCODING 765
SWIDTH 600 0
DWIDTH 18 0
BBX 12 5 3 -6
BITMAP
C030
E070
FFF0
FFF0
FFF0
ENDCHAR
STARTCHAR uni02fe
ENCODING 766
SWIDTH 600 0
DWIDTH 18 0
BBX 11 5 3 -6
BITMAP
C000
E000
FFE0
FFE0
FFE0
ENDCHAR
STARTCHAR uni02ff
ENCODING 767
SWIDTH 600 0
DWIDTH 18 0
BBX 16 7 1 -6
BITMAP
0600
1F00
7FFF
FFFF
7FFF
1F00
0600
ENDCHAR
STARTCHAR gravecomb
ENCODING 768
SWIDTH 0 0
DWIDTH 0 0
BBX 5 5 -13 15
BITMAP
C0
E0
70
38
18
ENDCHAR
STARTCHAR acutecomb
ENCODING 769
SWIDTH 0 0
DWIDTH 0 0
BBX 5 5 -10 15
BITMAP
10
38
70
E0
C0
ENDCHAR
STARTCHAR circumflexcmb
ENCODING 770
SWIDTH 0 0
DWIDTH 0 0
BBX 10 5 -14 15
BITMAP
0400
1E00
3F80
F3C0
C0C0
ENDCHAR
STARTCHAR tildecomb
ENCODING 771
SWIDTH 0 0
DWIDTH 0 0
BBX 11 3 -14 16
BITMAP
FCE0
FFC0
8780
ENDCHAR
STARTCHAR macroncmb
ENCODING 772
SWIDTH 0 0
DWIDTH 0 0
BBX 10 3 -14 16
BITMAP
FFC0
FFC0
7F80
ENDCHAR
STARTCHAR overlinecmb
ENCODING 773
SWIDTH 0 0
DWIDTH 0 0
BBX 14 3 -16 16
BITMAP
FFFC
FFFC
7FF8
ENDCHAR
STARTCHAR brevecmb
ENCODING 774
SWIDTH 0 0
DWIDTH 0 0
BBX 10 5 -14 15
BITMAP
8040
C0C0
E1C0
7F80
1E00
ENDCHAR
STARTCHAR dotaccentcmb
ENCODING 775
SWIDTH 0 0
DWIDTH 0 0
BBX 4 4 -11 16
BITMAP
60
F0
F0
60
ENDCHAR
STARTCHAR diaeresiscomb
ENCODING 776
SWIDTH 0 0
DWIDTH 0 0
BBX 10 4 -14 16
BITMAP
6180
F3C0
F3C0
6180
ENDCHAR
STARTCHAR hookabovecomb
ENCODING 777
SWIDTH 0 0
DWIDTH 0 0
BBX 6 5 -12 15
BITMAP
78
CC
CC
18
30
ENDCHAR
STARTCHAR ringcmb
ENCODING 778
SWIDTH 0 0
DWIDTH 0 0
BBX 6 5 -12 15
BITMAP
78
FC
CC
FC
78
ENDCHAR
STARTCHAR hungarumlautcmb
ENCODING 779
SWIDTH 0 0
DWIDTH 0 0
BBX 10 5 -14 15
BITMAP
1840
39C0
7380
E700
C600
ENDCHAR
STARTCHAR caroncmb
ENCODING 780
SWIDTH 0 0
DWIDTH 0 0
BBX 10 5 -14 15
BITMAP
0040
E1C0
FF80
3F00
0C00
ENDCHAR
STARTCHAR verticallineabovecmb
ENCODING 781
SWIDTH 0 0
DWIDTH 0 0
BBX 2 5 -10 16
BITMAP
C0
C0
C0
C0
C0
ENDCHAR
STARTCHAR linevertdblnosp
ENCODING 782
SWIDTH 0 0
DWIDTH 0 0
BBX 8 6 -13 15
BITMAP
E3
E3
E3
E3
E3
40
ENDCHAR
STARTCHAR dblgravecmb
ENCODING 783
SWIDTH 0 0
DWIDTH 0 0
BBX 10 5 -14 15
BITMAP
C600
E700
7380
39C0
18C0
ENDCHAR
STARTCHAR candrabinducmb
ENCODING 784
SWIDTH 0 0
DWIDTH 0 0
BBX 10 6 -14 15
BITMAP
1E00
9E40
CCC0
E1C0
7F80
1E00
ENDCHAR
STARTCHAR breveinvnosp
ENCODING 785
SWIDTH 0 0
DWIDTH 0 0
BBX 10 5 -14 14
BITMAP
0C00
7F80
F3C0
C0C0
C0C0
ENDCHAR
STARTCHAR commaturnedabovecmb
ENCODING 786
SWIDTH 0 0
DWIDTH 0 0
BBX 5 5 -11 14
BITMAP
C0
E0
78
38
08
ENDCHAR
STARTCHAR commaabovecmb
ENCODING 787
SWIDTH 0 0
DWIDTH 0 0
BBX 5 4 -11 15
BITMAP
18
38
70
E0
ENDCHAR
STARTCHAR commareversedabovecmb
ENCODING 788
SWIDTH 0 0
DWIDTH 0 0
BBX 5 6 -12 14
BITMAP
F0
F0
70
78
38
18
ENDCHAR
STARTCHAR commaaboverightcmb
ENCODING 789
SWIDTH 0 0
DWIDTH 0 0
BBX 5 4 -11 15
BITMAP
18
38
F0
E0
ENDCHAR
STARTCHAR gravebelowcmb
ENCODING 790
SWIDTH 0 0
DWIDTH 0 0
BBX 6 5 -13 -6
BITMAP
C0
F0
78
1C
08
ENDCHAR
STARTCHAR acutebelowcmb
ENCODING 791
SWIDTH 0 0
DWIDTH 0 0
BBX 5 5 -12 -6
BITMAP
18
38
70
E0
C0
ENDCHAR
STARTCHAR uni0318
ENCODING 792
SWIDTH 0 0
DWIDTH 0 0
BBX 4 5 -11 -6
BITMAP
10
70
F0
10
10
ENDCHAR
STARTCHAR uni0319
ENCODING 793
SWIDTH 0 0
DWIDTH 0 0
BBX 4 5 -10 -6
BITMAP
80
80
F0
E0
80
ENDCHAR
STARTCHAR uni031a
ENCODING 794
SWIDTH 0 0
DWIDTH 0 0
BBX 6 5 -3 16
BITMAP
FC
FC
7C
1C
18
ENDCHAR
STARTCHAR horncmb
ENCODING 795
SWIDTH 0 0
DWIDTH 0 0
BBX 5 7 -5 14
BITMAP
30
78
78
F8
F8
F0
40
ENDCHAR
STARTCHAR ringhalfleftbelowcmb
ENCODING 796
SWIDTH 0 0
DWIDTH 0 0
BBX 3 5 -11 -5
BITMAP
60
E0
C0
E0
60
ENDCHAR
STARTCHAR uni031d
ENCODING 797
SWIDTH 0 0
DWIDTH 0 0
BBX 5 4 -11 -6
BITMAP
60
60
F8
F8
ENDCHAR
STARTCHAR uni031e
ENCODING 798
SWIDTH 0 0
DWIDTH 0 0
BBX 5 4 -11 -5
BITMAP
F8
F8
60
60
ENDCHAR
STARTCHAR uni031f
ENCODING 799
SWIDTH 0 0
DWIDTH 0 0
BBX 6 6 -12 -6
BITMAP
30
30
FC
F8
30
20
ENDCHAR
STARTCHAR minusbelowcmb
ENCODING 800
SWIDTH 0 0
DWIDTH 0 0
BBX 6 2 -12 -4
BITMAP
F8
FC
ENDCHAR
STARTCHAR uni0321
ENCODING 801
SWIDTH 0 0
DWIDTH 0 0
BBX 9 6 -16 -6
BITMAP
0780
0700
0700
FF00
FE00
7800
ENDCHAR
STARTCHAR hookretroflexbelowcmb
ENCODING 802
SWIDTH 0 0
DWIDTH 0 0
BBX 9 6 -11 -6
BITMAP
F000
7000
7000
7F80
3F80
1F00
ENDCHAR
STARTCHAR dotbelowcomb
ENCODING 803
SWIDTH 0 0
DWIDTH 0 0
BBX 4 4 -11 -5
BITMAP
60
F0
F0
60
ENDCHAR
STARTCHAR dieresisbelowcmb
ENCODING 804
SWIDTH 0 0
DWIDTH 0 0
BBX 10 4 -14 -5
BITMAP
6180
F1C0
F1C0
6180
ENDCHAR
STARTCHAR ringbelowcmb
ENCODING 805
SWIDTH 0 0
DWIDTH 0 0
BBX 6 5 -12 -6
BITMAP
78
7C
CC
7C
38
ENDCHAR
STARTCHAR commasubnosp
ENCODING 806
SWIDTH 0 0
DWIDTH 0 0
BBX 4 5 -11 -6
BITMAP
70
70
60
C0
40
ENDCHAR
STARTCHAR cedillacmb
ENCODING 807
SWIDTH 0 0
DWIDTH 0 0
BBX 7 6 -13 -6
BITMAP
18
1E
06
66
FE
3C
ENDCHAR
STARTCHAR ogonekcmb
ENCODING 808
SWIDTH 0 0
DWIDTH 0 0
BBX 7 6 -11 -6
BITMAP
38
70
60
EE
7E
7C
ENDCHAR
STARTCHAR verticallinebelowcmb
ENCODING 809
SWIDTH 0 0
DWIDTH 0 0
BBX 2 5 -10 -5
BITMAP
C0
C0
C0
C0
C0
ENDCHAR
STARTCHAR bridgebelowcmb
ENCODING 810
SWIDTH 0 0
DWIDTH 0 0
BBX 9 5 -13 -6
BITMAP
FF80
FF80
C380
C300
0100
ENDCHAR
STARTCHAR archdblsubnosp
ENCODING 811
SWIDTH 0 0
DWIDTH 0 0
BBX 10 4 -14 -5
BITMAP
8C40
CCC0
FFC0
7780
ENDCHAR
STARTCHAR caronbelowcmb
ENCODING 812
SWIDTH 0 0
DWIDTH 0 0
BBX 10 5 -14 -6
BITMAP
C0C0
F3C0
3F80
1E00
0400
ENDCHAR
STARTCHAR circumflexbelowcmb
ENCODING 813
SWIDTH 0 0
DWIDTH 0 0
BBX 10 5 -14 -6
BITMAP
0C00
1F00
7F80
E1C0
C040
ENDCHAR
STARTCHAR brevebelowcmb
ENCODING 814
SWIDTH 0 0
DWIDTH 0 0
BBX 11 4 -14 -5
BITMAP
C060
E0E0
7FC0
3F80
ENDCHAR
STARTCHAR breveinvertedbelowcmb
ENCODING 815
SWIDTH 0 0
DWIDTH 0 0
BBX 10 5 -14 -6
BITMAP
0C00
7F80
F3C0
C0C0
C0C0
ENDCHAR
STARTCHAR tildebelowcmb
ENCODING 816
SWIDTH 0 0
DWIDTH 0 0
BBX 11 3 -14 -5
BITMAP
7CE0
FFC0
C780
ENDCHAR
STARTCHAR macronbelowcmb
ENCODING 817
SWIDTH 0 0
DWIDTH 0 0
BBX 10 2 -14 -4
BITMAP
FFC0
FFC0
ENDCHAR
STARTCHAR lowlinecmb
ENCODING 818
SWIDTH 0 0
DWIDTH 0 0
BBX 18 3 -18 -6
BITMAP
FFFFC0
FFFFC0
FFFFC0
ENDCHAR
STARTCHAR dbllowlinecmb
ENCODING 819
SWIDTH 0 0
DWIDTH 0 0
BBX 18 5 -18 -6
BITMAP
FFFFC0
FFFFC0
000000
FFFFC0
FFFFC0
ENDCHAR
STARTCHAR tildeoverlaycmb
ENCODING 820
SWIDTH 0 0
DWIDTH 0 0
BBX 11 3 -14 6
BITMAP
7C60
FFC0
C380
ENDCHAR
STARTCHAR strokeshortoverlaycmb
ENCODING 821
SWIDTH 0 0
DWIDTH 0 0
BBX 10 2 -14 9
BITMAP
FFC0
FFC0
ENDCHAR
STARTCHAR strokelongoverlaycmb
ENCODING 822
SWIDTH 0 0
DWIDTH 0 0
BBX 15 3 -17 6
BITMAP
FFFE
FFFE
FFFE
ENDCHAR
STARTCHAR solidusshortoverlaycmb
ENCODING 823
SWIDTH 0 0
DWIDTH 0 0
BBX 11 7 -14 7
BITMAP
00C0
03E0
0FC0
1F80
7E00
F800
E000
ENDCHAR
STARTCHAR uni0338
ENCODING 824
SWIDTH 0 0
DWIDTH 0 0
BBX 17 10 -17 6
BITMAP
000380
000F80
003F80
00FE00
03F800
07E000
1F8000
7E0000
F80000
E00000
ENDCHAR
STARTCHAR uni0339
ENCODING 825
SWIDTH 0 0
DWIDTH 0 0
BBX 3 5 -9 -6
BITMAP
C0
E0
60
E0
C0
ENDCHAR
STARTCHAR bridgeinvertedbelowcmb
ENCODING 826
SWIDTH 0 0
DWIDTH 0 0
BBX 9 5 -13 -6
BITMAP
0100
C300
C380
FF80
FF80
ENDCHAR
STARTCHAR squarebelowcmb
ENCODING 827
SWIDTH 0 0
DWIDTH 0 0
BBX 6 5 -12 -6
BITMAP
FC
CC
CC
FC
FC
ENDCHAR
STARTCHAR uni033c
ENCODING 828
SWIDTH 0 0
DWIDTH 0 0
BBX 11 4 -14 -5
BITMAP
7B80
FFC0
CC60
0C00
ENDCHAR
STARTCHAR uni033d
ENCODING 829
SWIDTH 0 0
DWIDTH 0 0
BBX 5 5 -11 15
BITMAP
F8
F0
F0
F8
10
ENDCHAR
STARTCHAR uni033e
ENCODING 830
SWIDTH 0 0
DWIDTH 0 0
BBX 3 7 -11 15
BITMAP
20
60
C0
C0
60
60
C0
ENDCHAR
STARTCHAR overscoredblnosp
ENCODING 831
SWIDTH 0 0
DWIDTH 0 0
BBX 18 5 -18 19
BITMAP
FFFFC0
FFFFC0
000000
FFFFC0
FFFFC0
ENDCHAR
STARTCHAR gravetonecmb
ENCODING 832
SWIDTH 0 0
DWIDTH 0 0
BBX 6 5 -12 15
BITMAP
C0
E0
70
38
1C
ENDCHAR
STARTCHAR acutetonecmb
ENCODING 833
SWIDTH 0 0
DWIDTH 0 0
BBX 5 5 -10 15
BITMAP
18
38
70
E0
C0
ENDCHAR
STARTCHAR perispomenigreekcmb
ENCODING 834
SWIDTH 0 0
DWIDTH 0 0
BBX 11 3 -14 16
BITMAP
7E60
7FE0
C3C0
ENDCHAR
STARTCHAR koroniscmb
ENCODING 835
SWIDTH 0 0
DWIDTH 0 0
BBX 5 5 -11 14
BITMAP
18
38
70
E0
40
ENDCHAR
STARTCHAR dialytikatonoscmb
ENCODING 836
SWIDTH 0 0
DWIDTH 0 0
BBX 10 7 -14 16
BITMAP
0180
0380
0300
0600
4E80
EDC0
DDC0
ENDCHAR
STARTCHAR ypogegrammenigreekcmb
ENCODING 837
SWIDTH 0 0
DWIDTH 0 0
BBX 9 6 -10 -6
BITMAP
E000
E000
F000
7F80
3F80
1F00
ENDCHAR
STARTCHAR uni0346
ENCODING 838
SWIDTH 0 0
DWIDTH 0 0
BBX 9 5 -13 16
BITMAP
FF80
FF80
C380
C300
0100
ENDCHAR
STARTCHAR uni0347
ENCODING 839
SWIDTH 0 0
DWIDTH 0 0
BBX 10 6 -14 -6
BITMAP
FFC0
FFC0
FFC0
0000
FFC0
FFC0
ENDCHAR
STARTCHAR uni0348
ENCODING 840
SWIDTH 0 0
DWIDTH 0 0
BBX 7 6 -12 -6
BITMAP
CE
CE
CE
CE
CE
04
ENDCHAR
STARTCHAR uni0349
ENCODING 841
SWIDTH 0 0
DWIDTH 0 0
BBX 6 5 -12 -6
BITMAP
FC
FC
7C
1C
18
ENDCHAR
STARTCHAR uni034a
ENCODING 842
SWIDTH 0 0
DWIDTH 0 0
BBX 11 5 -14 15
BITMAP
0300
7F60
FFC0
DFC0
1800
ENDCHAR
STARTCHAR uni034b
ENCODING 843
SWIDTH 0 0
DWIDTH 0 0
BBX 11 9 -14 14
BITMAP
0380
0780
0380
7CE0
FFC0
C780
7800
7800
3000
ENDCHAR
STARTCHAR uni034c
ENCODING 844
SWIDTH 0 0
DWIDTH 0 0
BBX 11 7 -14 15
BITMAP
7C60
FFE0
C3C0
0000
7C60
FFE0
C7C0
ENDCHAR
STARTCHAR uni034d
ENCODING 845
SWIDTH 0 0
DWIDTH 0 0
BBX 8 5 -13 -6
BITMAP
2C
C6
FF
64
28
ENDCHAR
STARTCHAR uni034e
ENCODING 846
SWIDTH 0 0
DWIDTH 0 0
BBX 4 5 -11 -6
BITMAP
40
60
F0
50
40
ENDCHAR
STARTCHAR uni034f
ENCODING 847
SWIDTH 0 0
DWIDTH 0 0
BBX 1 1 0 0
BITMAP
00
ENDCHAR
STARTCHAR uni0350
ENCODING 848
SWIDTH 0 0
DWIDTH 0 0
BBX 8 7 -13 14
BITMAP
C0
F0
FC
3F
7C
F0
E0
ENDCHAR
STARTCHAR uni0351
ENCODING 849
SWIDTH 0 0
DWIDTH 0 0
BBX 2 5 -10 15
BITMAP
40
C0
C0
C0
C0
ENDCHAR
STARTCHAR uni0352
ENCODING 850
SWIDTH 0 0
DWIDTH 0 0
BBX 10 7 -14 16
BITMAP
3F00
7F80
E1C0
C0C0
0E00
1E00
0E00
ENDCHAR
STARTCHAR uni0353
ENCODING 851
SWIDTH 0 0
DWIDTH 0 0
BBX 5 5 -11 -6
BITMAP
F8
F0
F0
F8
10
ENDCHAR
STARTCHAR uni0354
ENCODING 852
SWIDTH 0 0
DWIDTH 0 0
BBX 8 7 -13 -6
BITMAP
03
0F
3F
FC
3F
0F
03
ENDCHAR
STARTCHAR uni0355
ENCODING 853
SWIDTH 0 0
DWIDTH 0 0
BBX 9 7 -14 -6
BITMAP
6000
F800
7E00
1F80
7E00
F800
6000
ENDCHAR
STARTCHAR uni0356
ENCODING 854
SWIDTH 0 0
DWIDTH 0 0
BBX 16 7 -17 -6
BITMAP
6010
F818
7E3C
1F7C
7EFE
F8E7
60C6
ENDCHAR
STARTCHAR uni0357
ENCODING 855
SWIDTH 0 0
DWIDTH 0 0
BBX 3 5 -10 15
BITMAP
C0
E0
60
E0
C0
ENDCHAR
STARTCHAR uni0358
ENCODING 856
SWIDTH 0 0
DWIDTH 0 0
BBX 4 4 -4 16
BITMAP
20
70
F0
60
ENDCHAR
STARTCHAR uni0359
ENCODING 857
SWIDTH 0 0
DWIDTH 0 0
BBX 6 6 -12 -6
BITMAP
30
B4
FC
30
78
48
ENDCHAR
STARTCHAR uni035a
ENCODING 858
SWIDTH 0 0
DWIDTH 0 0
BBX 9 5 -13 -6
BITMAP
FF00
9900
9980
9D00
E700
ENDCHAR
STARTCHAR uni035b
ENCODING 859
SWIDTH 0 0
DWIDTH 0 0
BBX 6 6 -12 14
BITMAP
38
70
FC
7C
30
20
ENDCHAR
STARTCHAR uni035c
ENCODING 860
SWIDTH 0 0
DWIDTH 0 0
BBX 24 7 -12 -6
BITMAP
400002
F0000F
FC003F
7F81FE
1FFFF8
07FFE0
00FF00
ENDCHAR
STARTCHAR uni035d
ENCODING 861
SWIDTH 0 0
DWIDTH 0 0
BBX 24 7 -12 14
BITMAP
400002
F0000F
FC003F
7F81FE
1FFFF8
07FFE0
00FF00
ENDCHAR
STARTCHAR uni035e
ENCODING 862
SWIDTH 0 0
DWIDTH 0 0
BBX 18 3 -9 14
BITMAP
FFFFC0
FFFFC0
FFFFC0
ENDCHAR
STARTCHAR uni035f
ENCODING 863
SWIDTH 0 0
DWIDTH 0 0
BBX 18 3 -9 -6
BITMAP
FFFFC0
FFFFC0
FFFFC0
ENDCHAR
STARTCHAR uni0360
ENCODING 864
SWIDTH 0 0
DWIDTH 0 0
BBX 22 4 -11 -5
BITMAP
020000
7FF83C
FFFFFC
C00FE0
ENDCHAR
STARTCHAR uni0361
ENCODING 865
SWIDTH 0 0
DWIDTH 0 0
BBX 24 7 -12 13
BITMAP
00FF00
07FFE0
1FFFF8
7F81FE
FC003F
F0000F
400002
ENDCHAR
STARTCHAR uni0362
ENCODING 866
SWIDTH 0 0
DWIDTH 0 0
BBX 18 6 -9 -6
BITMAP
000400
000600
000180
FFFFC0
000300
000400
ENDCHAR
STARTCHAR uni0363
ENCODING 867
SWIDTH 0 0
DWIDTH 0 0
BBX 7 6 -12 14
BITMAP
38
7C
3C
FC
CC
7E
ENDCHAR
STARTCHAR uni0364
ENCODING 868
SWIDTH 0 0
DWIDTH 0 0
BBX 7 6 -13 14
BITMAP
38
7E
42
FE
42
3E
ENDCHAR
STARTCHAR uni0365
ENCODING 869
SWIDTH 0 0
DWIDTH 0 0
BBX 6 8 -12 14
BITMAP
30
00
70
70
30
30
30
FC
ENDCHAR
STARTCHAR uni0366
ENCODING 870
SWIDTH 0 0
DWIDTH 0 0
BBX 6 6 -12 14
BITMAP
38
FC
84
84
CC
78
ENDCHAR
STARTCHAR uni0367
ENCODING 871
SWIDTH 0 0
DWIDTH 0 0
BBX 7 6 -13 14
BITMAP
EE
EE
66
66
66
3E
ENDCHAR
STARTCHAR uni0368
ENCODING 872
SWIDTH 0 0
DWIDTH 0 0
BBX 6 6 -12 14
BITMAP
3C
FC
84
80
C4
7C
ENDCHAR
STARTCHAR uni0369
ENCODING 873
SWIDTH 0 0
DWIDTH 0 0
BBX 8 8 -13 14
BITMAP
06
02
3A
6E
46
C2
66
3F
ENDCHAR
STARTCHAR uni036a
ENCODING 874
SWIDTH 0 0
DWIDTH 0 0
BBX 7 8 -12 14
BITMAP
C0
40
58
6C
44
44
44
EE
ENDCHAR
STARTCHAR uni036b
ENCODING 875
SWIDTH 0 0
DWIDTH 0 0
BBX 8 6 -13 14
BITMAP
F4
FE
5A
5A
5A
FB
ENDCHAR
STARTCHAR uni036c
ENCODING 876
SWIDTH 0 0
DWIDTH 0 0
BBX 7 6 -12 14
BITMAP
6C
FE
20
20
20
F8
ENDCHAR
STARTCHAR uni036d
ENCODING 877
SWIDTH 0 0
DWIDTH 0 0
BBX 6 8 -11 14
BITMAP
40
40
F8
F8
40
40
44
7C
ENDCHAR
STARTCHAR uni036e
ENCODING 878
SWIDTH 0 0
DWIDTH 0 0
BBX 8 6 -13 14
BITMAP
67
E7
26
34
1C
18
ENDCHAR
STARTCHAR uni036f
ENCODING 879
SWIDTH 0 0
DWIDTH 0 0
BBX 7 6 -12 14
BITMAP
CC
CC
78
38
4C
EE
ENDCHAR
STARTCHAR uni0374
ENCODING 884
SWIDTH 600 0
DWIDTH 18 0
BBX 6 7 6 13
BITMAP
7C
78
78
70
E0
E0
40
ENDCHAR
STARTCHAR uni0375
ENCODING 885
SWIDTH 600 0
DWIDTH 18 0
BBX 6 8 4 -4
BITMAP
3C
3C
38
78
70
70
60
C0
ENDCHAR
STARTCHAR uni037A
ENCODING 890
SWIDTH 600 0
DWIDTH 18 0
BBX 9 6 7 -6
BITMAP
E000
E000
F000
7F80
3F80
1F00
ENDCHAR
STARTCHAR uni037E
ENCODING 894
SWIDTH 600 0
DWIDTH 18 0
BBX 6 18 4 -5
BITMAP
1C
3C
3C
1C
00
00
00
00
00
3C
3C
38
38
70
70
60
E0
40
ENDCHAR
STARTCHAR tonos
ENCODING 900
SWIDTH 600 0
DWIDTH 18 0
BBX 5 7 6 14
BITMAP
18
18
38
70
F0
E0
C0
ENDCHAR
STARTCHAR dieresistonos
ENCODING 901
SWIDTH 600 0
DWIDTH 18 0
BBX 10 7 4 16
BITMAP
0180
0380
0300
0600
0E80
CDC0
D9C0
ENDCHAR
STARTCHAR Alphatonos
ENCODING 902
SWIDTH 600 0
DWIDTH 18 0
BBX 22 20 -2 0
BITMAP
180000
380000
380000
77FC00
E7FC00
C3FE00
40FE00
00EF00
00E700
01E700
01C780
03C380
03FFC0
03FFC0
07FFC0
0701E0
0F00E0
1FC3F8
3FC7FC
1FC3F8
ENDCHAR
STARTCHAR anoteleia
ENCODING 903
SWIDTH 600 0
DWIDTH 18 0
BBX 4 4 7 9
BITMAP
F0
F0
F0
60
ENDCHAR
STARTCHAR Epsilontonos
ENCODING 904
SWIDTH 600 0
DWIDTH 18 0
BBX 22 20 -3 0
BITMAP
1C0000
1C0000
380000
73FFF8
73FFF8
E1FFF8
40E038
00E038
00E338
00E700
00FF00
00FF00
00FF00
00E700
00E318
00E01C
00E01C
03FFFC
07FFFC
03FFFC
ENDCHAR
STARTCHAR Etatonos
ENCODING 905
SWIDTH 600 0
DWIDTH 18 0
BBX 21 20 -3 0
BITMAP
180000
380000
380000
77F7F0
E7F7F0
E3C1E0
4380E0
0380E0
0380E0
0380E0
03FFE0
03FFE0
03FFE0
0380E0
0380E0
0380E0
0380E0
07E3F8
0FF7F8
07E3F8
ENDCHAR
STARTCHAR Iotatonos
ENCODING 906
SWIDTH 600 0
DWIDTH 18 0
BBX 19 20 -1 0
BITMAP
1C0000
1C0000
380000
73FFC0
73FFC0
E1FF80
401C00
001C00
001C00
001C00
001C00
001C00
001C00
001C00
001C00
001C00
001C00
03FFC0
07FFE0
03FFC0
ENDCHAR
STARTCHAR Omicrontonos
ENCODING 908
SWIDTH 600 0
DWIDTH 18 0
BBX 19 20 -1 0
BITMAP
1C0000
1C0000
38F800
73FE00
F7FF00
EF8F80
5E03C0
1C01C0
3C01C0
3800E0
3800E0
3800E0
3800E0
3801E0
1C01C0
1E03C0
0F0780
0FFF80
07FF00
01FC00
ENDCHAR
STARTCHAR Upsilontonos
ENCODING 910
SWIDTH 600 0
DWIDTH 18 0
BBX 22 20 -3 0
BITMAP
180000
380000
380000
77F1FC
E7F1FC
E1E0F0
C0E1E0
00F1C0
007BC0
003F80
003F00
001F00
000E00
000E00
000E00
000E00
000E00
00FFC0
00FFE0
00FFC0
ENDCHAR
STARTCHAR Omegatonos
ENCODING 911
SWIDTH 600 0
DWIDTH 18 0
BBX 18 20 0 0
BITMAP
180000
380000
780000
73FC00
EFFF00
CFFF80
DC0380
1C03C0
3801C0
3801C0
3801C0
1C01C0
1C0380
1E0780
0FDF00
17DE80
39DDC0
3FDFC0
3FDFC0
3FDFC0
ENDCHAR
STARTCHAR iotadieresistonos
ENCODING 912
SWIDTH 600 0
DWIDTH 18 0
BBX 13 22 3 0
BITMAP
00C0
0180
0380
0300
6740
6EE0
6CE0
0000
0000
FF00
FF00
7F00
0F00
0F00
0F00
0F00
0F00
0700
0700
07F8
03F8
01F8
ENDCHAR
STARTCHAR Alpha
ENCODING 913
SWIDTH 600 0
DWIDTH 18 0
BBX 20 17 -1 0
BITMAP
1FF000
1FF000
07F800
01F800
03FC00
039C00
079E00
070E00
070E00
0FFF00
0FFF00
1FFF80
1C0380
1C0380
7F0FE0
FF1FF0
7F0FE0
ENDCHAR
STARTCHAR Beta
ENCODING 914
SWIDTH 600 0
DWIDTH 18 0
BBX 17 17 0 0
BITMAP
FFFC00
FFFE00
3FFE00
1C0700
1C0700
1C0F00
1C1E00
1FFC00
1FFE00
1FFF00
1C0780
1C0380
1C0380
1C0780
7FFF80
FFFF00
7FFC00
ENDCHAR
STARTCHAR Gamma
ENCODING 915
SWIDTH 600 0
DWIDTH 18 0
BBX 16 17 1 0
BITMAP
FFFF
FFFF
7FFF
3807
3807
3807
3800
3800
3800
3800
3800
3800
3800
3800
FFC0
FFC0
FFC0
ENDCHAR
STARTCHAR Delta
ENCODING 916
SWIDTH 600 0
DWIDTH 18 0
BBX 18 17 0 0
BITMAP
3FE000
3FE000
0FF000
03F000
07F000
073800
073800
0F3800
0E1C00
0E1C00
1E1C00
1C0E00
1C0E00
3C0E00
7FFF80
FFFFC0
7FFF80
ENDCHAR
STARTCHAR Epsilon
ENCODING 917
SWIDTH 600 0
DWIDTH 18 0
BBX 17 17 0 0
BITMAP
FFFF00
FFFF00
3FFF00
1C0700
1C0700
1CE600
1CE000
1FE000
1FE000
1FE000
1CE000
1C6300
1C0780
1C0780
7FFF80
FFFF80
7FFF80
ENDCHAR
STARTCHAR Zeta
ENCODING 918
SWIDTH 600 0
DWIDTH 18 0
BBX 14 17 2 0
BITMAP
7FF8
7FF8
7FF8
70F0
70F0
71E0
23C0
0780
0700
0F00
1E1C
3C1C
781C
701C
FFFC
FFFC
FFFC
ENDCHAR
STARTCHAR Eta
ENCODING 919
SWIDTH 600 0
DWIDTH 18 0
BBX 16 17 1 0
BITMAP
FE7F
FE7F
3C1C
381C
381C
381C
381C
3FFC
3FFC
3FFC
381C
381C
381C
381C
FE7F
FE7F
FE7F
ENDCHAR
STARTCHAR Theta
ENCODING 920
SWIDTH 600 0
DWIDTH 18 0
BBX 16 18 1 0
BITMAP
07C0
0FF0
3FFC
7C3E
781E
F00F
EC37
EC37
EFF7
EFF7
EFF7
EC37
EC37
700E
781E
3FFC
1FF8
0FF0
ENDCHAR
STARTCHAR Iota
ENCODING 921
SWIDTH 600 0
DWIDTH 18 0
BBX 14 17 2 0
BITMAP
7FF8
7FF8
3FF0
0780
0780
0780
0780
0780
0780
0780
0780
0780
0780
0780
7FF8
FFFC
7FF8
ENDCHAR
STARTCHAR Kappa
ENCODING 922
SWIDTH 600 0
DWIDTH 18 0
BBX 18 17 0 0
BITMAP
FFBF80
FFBF80
3E1F00
1C3C00
1C7800
1CF000
1FE000
1FE000
1FF000
1EF800
1C7800
1C3C00
1C1C00
1C1E00
7F0FC0
FF8FC0
7F07C0
ENDCHAR
STARTCHAR Lambda
ENCODING 923
SWIDTH 600 0
DWIDTH 18 0
BBX 20 17 -1 0
BITMAP
1FF000
1FF000
07F800
01F800
03FC00
039C00
079E00
070E00
070E00
0E0F00
0E0700
1E0780
1C0380
1C0380
7F0FE0
FF1FF0
7F0FE0
ENDCHAR
STARTCHAR Mu
ENCODING 924
SWIDTH 600 0
DWIDTH 18 0
BBX 20 17 -1 0
BITMAP
7C03E0
7E07E0
3E07C0
3F0FC0
3F0FC0
3F9FC0
3B9DC0
3BDDC0
39F9C0
39F9C0
38F9C0
38F1C0
3871C0
3801C0
7F0FE0
FF0FF0
7F0FE0
ENDCHAR
STARTCHAR Nu
ENCODING 925
SWIDTH 600 0
DWIDTH 18 0
BBX 18 17 0 0
BITMAP
FC3FC0
FE3FC0
3E0F00
3F0700
3F0700
3F8700
3BC700
39C700
39E700
38F700
387700
387F00
383F00
381F00
7F1F00
FF0F00
7F0700
ENDCHAR
STARTCHAR Xi
ENCODING 926
SWIDTH 600 0
DWIDTH 18 0
BBX 16 17 1 0
BITMAP
FFFF
FFFF
FFFF
E007
E007
6C36
0C30
0FF0
0FF0
0C30
4C30
E007
E007
E007
FFFF
FFFF
FFFF
ENDCHAR
STARTCHAR Omicron
ENCODING 927
SWIDTH 600 0
DWIDTH 18 0
BBX 16 18 1 0
BITMAP
07C0
0FF0
3FFC
7C3E
781E
F00F
E007
E007
E007
E007
E007
E007
E007
700E
781E
3FFC
1FF8
0FF0
ENDCHAR
STARTCHAR Pi
ENCODING 928
SWIDTH 600 0
DWIDTH 18 0
BBX 16 17 1 0
BITMAP
FFFF
FFFF
3FFC
381C
381C
381C
381C
381C
381C
381C
381C
381C
381C
381C
FE7F
FE7F
FE7F
ENDCHAR
STARTCHAR Rho
ENCODING 929
SWIDTH 600 0
DWIDTH 18 0
BBX 16 17 0 0
BITMAP
FFF8
FFFC
3FFE
1C0F
1C07
1C07
1C0F
1C1E
1FFE
1FFC
1FF0
1C00
1C00
1C00
7FC0
FFE0
7FC0
ENDCHAR
STARTCHAR Sigma
ENCODING 931
SWIDTH 600 0
DWIDTH 18 0
BBX 14 17 2 0
BITMAP
FFFC
FFFC
FFFC
781C
3C1C
1C1C
1E08
0F00
0F00
0F00
1E1C
3C1C
781C
701C
FFFC
FFFC
FFFC
ENDCHAR
STARTCHAR Tau
ENCODING 932
SWIDTH 600 0
DWIDTH 18 0
BBX 16 17 1 0
BITMAP
FFFF
FFFF
FFFF
E387
E387
E387
E387
0380
0380
0380
0380
0380
0380
0380
1FF8
1FF8
1FF8
ENDCHAR
STARTCHAR Upsilon
ENCODING 933
SWIDTH 600 0
DWIDTH 18 0
BBX 16 17 1 0
BITMAP
FC3F
FC3F
781E
3C3C
1E78
0E70
0FF0
07E0
03C0
03C0
03C0
03C0
03C0
03C0
1FF8
1FF8
1FF8
ENDCHAR
STARTCHAR Phi
ENCODING 934
SWIDTH 600 0
DWIDTH 18 0
BBX 18 17 0 0
BITMAP
1FFE00
1FFE00
0FFC00
1FFC00
7FFF80
7FFF80
F1E3C0
E1E1C0
E1E1C0
F1E3C0
7FFF80
7FFF80
3FFF00
01E000
1FFE00
3FFF00
1FFE00
ENDCHAR
STARTCHAR Chi
ENCODING 935
SWIDTH 600 0
DWIDTH 18 0
BBX 18 17 0 0
BITMAP
7E1F80
7E1F80
3C0F00
1E1E00
0F3C00
07F800
03F000
01E000
01E000
03F000
07F800
0F3C00
1E1E00
3C0F00
7E1F80
FF3FC0
7E1F80
ENDCHAR
STARTCHAR Psi
ENCODING 936
SWIDTH 600 0
DWIDTH 18 0
BBX 18 17 0 0
BITMAP
FBF7C0
FBF7C0
79E780
79E780
79E780
79E780
79E780
39E700
39E700
3FFF00
1FFE00
0FFC00
01E000
01E000
07F800
07F800
07F800
ENDCHAR
STARTCHAR Omega
ENCODING 937
SWIDTH 600 0
DWIDTH 18 0
BBX 16 17 1 0
BITMAP
0FF0
3FFC
7FFC
700E
F00E
E007
E007
E007
F00F
700E
781E
3E7C
5E7A
EE77
FE7F
FE7F
FE7F
ENDCHAR
STARTCHAR Iotadieresis
ENCODING 938
SWIDTH 600 0
DWIDTH 18 0
BBX 14 23 2 0
BITMAP
1860
3CF0
3CF0
1860
0000
0000
7FF8
7FF8
3FF0
0780
0780
0780
0780
0780
0780
0780
0780
0780
0780
0780
7FF8
FFFC
7FF8
ENDCHAR
STARTCHAR Upsilondieresis
ENCODING 939
SWIDTH 600 0
DWIDTH 18 0
BBX 16 23 1 0
BITMAP
0C30
1E78
1E78
0C30
0000
0000
FC3F
FC3F
781E
3C3C
1E78
0E70
0FF0
07E0
03C0
03C0
03C0
03C0
03C0
03C0
1FF8
1FF8
1FF8
ENDCHAR
STARTCHAR alphatonos
ENCODING 940
SWIDTH 600 0
DWIDTH 18 0
BBX 17 23 1 0
BITMAP
006000
00E000
00E000
01C000
038000
038000
030000
000000
000000
010E00
1FEE00
3FFE00
7EFE00
701E00
E01E00
E00E00
E00E00
E00E00
F01E00
703E00
7FFF80
3FFF80
1FEF80
ENDCHAR
STARTCHAR epsilontonos
ENCODING 941
SWIDTH 600 0
DWIDTH 18 0
BBX 14 22 2 0
BITMAP
0030
0070
00E0
00E0
01C0
0180
0000
0000
0000
1FF8
3FF8
7FF8
7038
7C00
7FC0
3FC0
7FC0
F018
F03C
FFFC
7FFC
3FF8
ENDCHAR
STARTCHAR etatonos
ENCODING 942
SWIDTH 600 0
DWIDTH 18 0
BBX 16 28 1 -6
BITMAP
0070
0070
00E0
01C0
01C0
0380
0100
0000
0000
FBF0
FFF8
FFFC
3C1C
381C
381C
381C
381C
381C
381C
FE1C
FE1C
FE1C
001C
001C
001C
001F
001F
001F
ENDCHAR
STARTCHAR iotatonos
ENCODING 943
SWIDTH 600 0
DWIDTH 18 0
BBX 13 22 3 0
BITMAP
0700
0700
0E00
1C00
3800
3800
1000
0000
0000
FF00
FF00
7F00
0F00
0F00
0F00
0F00
0F00
0700
0700
07F8
03F8
01F8
ENDCHAR
STARTCHAR upsilondieresistonos
ENCODING 944
SWIDTH 600 0
DWIDTH 18 0
BBX 18 22 0 0
BITMAP
001800
003000
007000
006000
0CE800
0DDC00
0D9C00
000000
000000
7C3F80
FC3FC0
7C3F80
1C0E00
1C0E00
1C0E00
1C0E00
1C0E00
1C0E00
1C0E00
1FFE00
0FFC00
07F800
ENDCHAR
STARTCHAR alpha
ENCODING 945
SWIDTH 600 0
DWIDTH 18 0
BBX 17 14 1 0
BITMAP
010E00
1FEE00
3FFE00
7EFE00
701E00
E01E00
E00E00
E00E00
E00E00
F01E00
703E00
7FFF80
3FFF80
1FEF80
ENDCHAR
STARTCHAR beta
ENCODING 946
SWIDTH 600 0
DWIDTH 18 0
BBX 16 25 0 -6
BITMAP
03C0
0FF0
1FF8
1E78
1C38
1C38
1C38
1DF8
1DF8
1DFC
1C3E
1C0E
1C07
1C07
1C07
1C0F
1FFE
1FFE
1FF8
1C00
1C00
1C00
7E00
FE00
7E00
ENDCHAR
STARTCHAR gamma
ENCODING 947
SWIDTH 600 0
DWIDTH 18 0
BBX 16 19 1 -6
BITMAP
FC3F
FC3F
FC3F
781E
381C
1C3C
1C38
0E70
0E70
07E0
07E0
03C0
03C0
03C0
03C0
03C0
07E0
0FF0
07E0
ENDCHAR
STARTCHAR delta
ENCODING 948
SWIDTH 600 0
DWIDTH 18 0
BBX 16 19 1 0
BITMAP
1FE6
3FFE
7FFF
701F
7006
7F00
7FF0
3FF8
3FFC
781E
700E
E007
E007
E007
700E
781E
3FFC
1FF8
0FF0
ENDCHAR
STARTCHAR epsilon
ENCODING 949
SWIDTH 600 0
DWIDTH 18 0
BBX 14 13 2 0
BITMAP
1FF8
3FF8
7FF8
7038
7C00
7FC0
3FC0
7FC0
F018
F03C
FFFC
7FFC
3FF8
ENDCHAR
STARTCHAR zeta
ENCODING 950
SWIDTH 600 0
DWIDTH 18 0
BBX 13 25 3 -6
BITMAP
FFF0
FFF0
FFF0
E1E0
E7C0
4F80
1F00
3E00
7800
7000
F000
E000
E000
E000
E000
F000
7FC0
7FE0
1FE0
00E0
00E0
00E0
03F0
07F8
03F0
ENDCHAR
STARTCHAR eta
ENCODING 951
SWIDTH 600 0
DWIDTH 18 0
BBX 16 19 1 -6
BITMAP
FBF0
FFF8
FFFC
3C1C
381C
381C
381C
381C
381C
381C
FE1C
FE1C
FE1C
001C
001C
001C
001F
001F
001F
ENDCHAR
STARTCHAR theta
ENCODING 952
SWIDTH 600 0
DWIDTH 18 0
BBX 14 19 2 0
BITMAP
0780
1FE0
3FF0
3CF0
7878
7038
7038
7038
FFFC
FFFC
FFFC
E03C
7038
7038
7038
7878
3FF0
3FE0
0FC0
ENDCHAR
STARTCHAR iota
ENCODING 953
SWIDTH 600 0
DWIDTH 18 0
BBX 13 13 3 0
BITMAP
FF00
FF00
7F00
0F00
0F00
0F00
0F00
0F00
0700
0700
07F8
03F8
01F8
ENDCHAR
STARTCHAR kappa
ENCODING 954
SWIDTH 600 0
DWIDTH 18 0
BBX 14 13 2 0
BITMAP
F9FC
F9FC
F9FC
3BE0
3F80
3F00
3F00
3F80
3FC0
3BE0
F9FC
F9FC
F9FC
ENDCHAR
STARTCHAR lambda
ENCODING 955
SWIDTH 600 0
DWIDTH 18 0
BBX 16 19 1 0
BITMAP
7C00
FE00
FF00
0700
0780
0380
03C0
07C0
07E0
0FE0
0E70
1E70
1C38
3C3C
381C
781E
FC3F
FC3F
FC3F
ENDCHAR
STARTCHAR uni03BC
ENCODING 956
SWIDTH 600 0
DWIDTH 18 0
BBX 17 19 0 -6
BITMAP
7C3E00
FC7E00
7C3E00
1C0E00
1C0E00
1C0E00
1C0E00
1C0E00
1C0E00
1C1E00
1FFF80
1FFF80
1FEF80
1C0000
1C0000
1C0000
7F0000
7F0000
7F0000
ENDCHAR
STARTCHAR nu
ENCODING 957
SWIDTH 600 0
DWIDTH 18 0
BBX 16 13 1 0
BITMAP
FF3F
FF3F
FE3F
1C0E
1E0E
0E0E
0E1C
0F3C
0738
07F8
03F0
03E0
01C0
ENDCHAR
STARTCHAR xi
ENCODING 958
SWIDTH 600 0
DWIDTH 18 0
BBX 12 25 4 -6
BITMAP
FFE0
FFE0
CF80
CE00
9C00
1800
1C00
1E00
0FC0
3FC0
7C00
6000
E000
C000
C000
C000
E000
7800
7F80
0FE0
00E0
00E0
03C0
07F0
07E0
ENDCHAR
STARTCHAR omicron
ENCODING 959
SWIDTH 600 0
DWIDTH 18 0
BBX 16 13 1 0
BITMAP
0FF0
1FF8
3FFC
781E
700E
E007
E007
E007
700E
781E
3FFC
1FF8
0FF0
ENDCHAR
STARTCHAR pi
ENCODING 960
SWIDTH 600 0
DWIDTH 18 0
BBX 16 13 1 0
BITMAP
7FFE
FFFF
7FFE
381C
381C
381C
381C
381C
381C
381C
7E7E
FE7F
7E7E
ENDCHAR
STARTCHAR rho
ENCODING 961
SWIDTH 600 0
DWIDTH 18 0
BBX 18 19 -1 -6
BITMAP
03FC00
07FE00
0FFF00
1E0780
1C0380
3801C0
3801C0
3801C0
3C0380
3E0780
3FFF00
3FFE00
3BFC00
380000
380000
380000
7F0000
FF0000
7F0000
ENDCHAR
STARTCHAR sigma1
ENCODING 962
SWIDTH 600 0
DWIDTH 18 0
BBX 12 15 3 -1
BITMAP
0F80
3FF0
7FF0
6070
E030
E030
7800
3F80
1FE0
21F0
6070
7070
7FE0
7FE0
0F80
ENDCHAR
STARTCHAR sigma
ENCODING 963
SWIDTH 600 0
DWIDTH 18 0
BBX 17 14 1 0
BITMAP
00FF00
0FFF80
1FFF80
3FFF00
781E00
700E00
E00700
E00700
E00700
700E00
781E00
3FFC00
1FF800
0FF000
ENDCHAR
STARTCHAR tau
ENCODING 964
SWIDTH 600 0
DWIDTH 18 0
BBX 14 13 2 0
BITMAP
FFF8
FFFC
7FF8
0700
0700
0700
0700
0700
0700
0700
03F8
03FC
01FC
ENDCHAR
STARTCHAR upsilon
ENCODING 965
SWIDTH 600 0
DWIDTH 18 0
BBX 18 13 0 0
BITMAP
7C3F80
FC3FC0
7C3F80
1C0E00
1C0E00
1C0E00
1C0E00
1C0E00
1C0E00
1C0E00
1FFE00
0FFC00
07F800
ENDCHAR
STARTCHAR phi
ENCODING 966
SWIDTH 600 0
DWIDTH 18 0
BBX 17 20 0 -6
BITMAP
38F000
F8FE00
F8FF00
78FF80
38E380
38E380
38E380
38E380
38E380
38E380
3CE380
1FFF80
0FFF00
07FE00
00E000
00E000
00E000
00E000
00E000
006000
ENDCHAR
STARTCHAR chi
ENCODING 967
SWIDTH 600 0
DWIDTH 18 0
BBX 18 19 0 -6
BITMAP
F83F80
FC3FC0
7E3F80
0E1E00
0F3C00
073800
07F800
03F000
01E000
01E000
03E000
03F000
07F000
0F7800
0E3800
1E3C00
7F1F80
FF0FC0
FF0780
ENDCHAR
STARTCHAR psi
ENCODING 968
SWIDTH 600 0
DWIDTH 18 0
BBX 20 25 -1 -6
BITMAP
006000
00F000
00F000
00F000
00F000
00F000
7CF3E0
FCF3F0
7CF3E0
1CF380
1CF380
1CF380
1CF380
1CF380
1CF380
1CF380
0FFF00
0FFF00
03FC00
00F000
00F000
00F000
00F000
00F000
006000
ENDCHAR
STARTCHAR omega
ENCODING 969
SWIDTH 600 0
DWIDTH 18 0
BBX 16 15 1 -1
BITMAP
781E
FC3F
FC3F
E006
E007
C187
C183
C183
C183
C183
E187
E387
7FFE
7FFC
1E78
ENDCHAR
STARTCHAR iotadieresis
ENCODING 970
SWIDTH 600 0
DWIDTH 18 0
BBX 13 19 3 0
BITMAP
6180
E3C0
E3C0
6180
0000
0000
FF00
FF00
7F00
0F00
0F00
0F00
0F00
0F00
0700
0700
07F8
03F8
01F8
ENDCHAR
STARTCHAR upsilondieresis
ENCODING 971
SWIDTH 600 0
DWIDTH 18 0
BBX 18 19 0 0
BITMAP
061800
0F3C00
0F3C00
061800
000000
000000
7C3F80
FC3FC0
7C3F80
1C0E00
1C0E00
1C0E00
1C0E00
1C0E00
1C0E00
1C0E00
1FFE00
0FFC00
07F800
ENDCHAR
STARTCHAR omicrontonos
ENCODING 972
SWIDTH 600 0
DWIDTH 18 0
BBX 16 22 1 0
BITMAP
0060
00E0
01C0
0380
0380
0700
0000
0000
0000
0FF0
1FF8
3FFC
781E
700E
E007
E007
E007
700E
781E
3FFC
1FF8
0FF0
ENDCHAR
STARTCHAR upsilontonos
ENCODING 973
SWIDTH 600 0
DWIDTH 18 0
BBX 18 22 0 0
BITMAP
007000
007000
00E000
01C000
01C000
038000
010000
000000
000000
7C3F80
FC3FC0
7C3F80
1C0E00
1C0E00
1C0E00
1C0E00
1C0E00
1C0E00
1C0E00
1FFE00
0FFC00
07F800
ENDCHAR
STARTCHAR omegatonos
ENCODING 974
SWIDTH 600 0
DWIDTH 18 0
BBX 16 23 1 -1
BITMAP
0070
0070
00E0
01C0
03C0
0380
0000
0000
781E
FC3F
FC3F
E006
E007
C187
C183
C183
C183
C183
E187
E387
7FFE
7FFC
1E78
ENDCHAR
STARTCHAR uni03D0
ENCODING 976
SWIDTH 600 0
DWIDTH 18 0
BBX 14 20 2 -1
BITMAP
0380
0FF0
1FF8
3C78
383C
701C
7FF8
7FF8
7FF0
E000
E000
7FF0
7FF8
7FF8
701C
783C
3C38
3FF8
1FF0
07C0
ENDCHAR
STARTCHAR theta1
ENCODING 977
SWIDTH 600 0
DWIDTH 18 0
BBX 14 20 2 -1
BITMAP
0FC0
1FE0
3C70
3838
7038
7018
701C
781C
3FDC
1FDC
001C
001C
E01C
F018
7038
7038
3870
3CF0
1FE0
0FC0
ENDCHAR
STARTCHAR Upsilon1
ENCODING 978
SWIDTH 600 0
DWIDTH 18 0
BBX 16 19 1 -1
BITMAP
4004
E01F
E03F
7039
7870
38E0
1CE0
1FC0
0FC0
0780
0700
0700
0700
0700
0700
0700
0700
0700
0700
ENDCHAR
STARTCHAR uni03D3
ENCODING 979
SWIDTH 600 0
DWIDTH 18 0
BBX 20 19 -2 -1
BITMAP
0C0040
1C01F0
3E03F0
7F07B0
F70700
E38E00
03DE00
01DC00
00F800
00F800
007000
007000
007000
007000
007000
007000
007000
007000
007000
ENDCHAR
STARTCHAR uni03D4
ENCODING 980
SWIDTH 600 0
DWIDTH 18 0
BBX 16 23 1 -1
BITMAP
1060
38F0
3CF0
3860
4004
E01F
E03F
7039
7870
38E0
1CE0
1FC0
0FC0
0780
0700
0700
0700
0700
0700
0700
0700
0700
0700
ENDCHAR
STARTCHAR phi1
ENCODING 981
SWIDTH 600 0
DWIDTH 18 0
BBX 18 25 0 -6
BITMAP
00C000
01E000
01E000
01E000
01E000
01E000
0FFC00
3FFF00
7FFF80
71E380
E1E1C0
E1E1C0
E1E1C0
E1E1C0
E1E1C0
F1E3C0
7FFF80
3FFF00
0FFC00
01E000
01E000
01E000
01E000
01E000
00C000
ENDCHAR
STARTCHAR omegapi
ENCODING 982
SWIDTH 600 0
DWIDTH 18 0
BBX 16 15 1 -1
BITMAP
7FFE
FFFF
FFFF
E006
E007
C187
C183
C183
C183
C183
E187
E387
7FFE
7FFC
1E78
ENDCHAR
STARTCHAR Stigma
ENCODING 986
SWIDTH 600 0
DWIDTH 18 0
BBX 17 23 2 -5
BITMAP
003F80
03FF80
0FFF80
1F0000
3C0000
780000
700000
E00000
E00000
E00000
E00000
C00000
C00000
E00000
F00000
7E0000
3FE000
1FF000
00F000
007000
1FF000
1FE000
1FC000
ENDCHAR
STARTCHAR uni03DB
ENCODING 987
SWIDTH 600 0
DWIDTH 18 0
BBX 15 19 2 -5
BITMAP
03FE
0FFE
3FFE
7C00
7000
E000
E000
E000
E000
E000
F000
7E00
3FC0
07F0
0070
0070
3FF0
3FE0
3FC0
ENDCHAR
STARTCHAR uni03dc
ENCODING 988
SWIDTH 600 0
DWIDTH 18 0
BBX 15 19 1 -1
BITMAP
FFFE
FFFE
FFFE
3806
3806
3806
3806
3800
3FC0
3FC0
3FC0
38C0
38C0
3800
3800
3800
FF80
FFC0
FF80
ENDCHAR
STARTCHAR digamma
ENCODING 989
SWIDTH 600 0
DWIDTH 18 0
BBX 16 20 1 -6
BITMAP
0050
01FF
03FF
07DF
0700
0700
0700
0700
07F8
07F8
07F8
0718
0718
0700
0700
0700
0700
7F00
FF00
7F00
ENDCHAR
STARTCHAR uni03F0
ENCODING 1008
SWIDTH 600 0
DWIDTH 18 0
BBX 18 14 0 -1
BITMAP
783F80
7C3FC0
1C1E00
0E3C00
0E7800
07F000
07F000
03F000
03F800
073C00
0E1C00
7E1F80
FF0F80
7E0780
ENDCHAR
STARTCHAR uni03F1
ENCODING 1009
SWIDTH 600 0
DWIDTH 18 0
BBX 16 19 1 -6
BITMAP
0FF0
1FF8
3FFC
781E
700E
E007
E007
E007
F00E
F81E
FFFC
FFF8
EFF0
E000
E000
F000
7FFE
3FFE
1FFE
ENDCHAR
STARTCHAR uni03f4
ENCODING 1012
SWIDTH 600 0
DWIDTH 18 0
BBX 16 18 1 0
BITMAP
07C0
0FF0
3FFC
7C3E
781E
F00F
E007
E007
FFFF
FFFF
FFFF
E007
E007
700E
781E
3FFC
1FF8
0FF0
ENDCHAR
STARTCHAR uni03F5
ENCODING 1013
SWIDTH 600 0
DWIDTH 18 0
BBX 9 15 4 -1
BITMAP
0180
0F80
1F80
3C00
7800
7000
7F00
FF80
7F80
7000
7000
7800
3F00
1F80
0780
ENDCHAR
STARTCHAR uni0400
ENCODING 1024
SWIDTH 600 0
DWIDTH 18 0
BBX 17 24 0 0
BITMAP
010000
038000
01C000
00E000
007000
000000
000000
FFFF00
FFFF00
3FFF00
1C0700
1C0700
1CE600
1CE000
1FE000
1FE000
1FE000
1CE000
1C6300
1C0780
1C0780
7FFF80
FFFF80
7FFF80
ENDCHAR
STARTCHAR Iocyrillic
ENCODING 1025
SWIDTH 600 0
DWIDTH 18 0
BBX 17 23 0 0
BITMAP
0C3800
0E3800
0E3800
0C1000
000000
000000
FFFF00
FFFF00
3FFF00
1C0700
1C0700
1CE600
1CE000
1FE000
1FE000
1FE000
1CE000
1C6300
1C0780
1C0780
7FFF80
FFFF80
7FFF80
ENDCHAR
STARTCHAR Djecyrillic
ENCODING 1026
SWIDTH 600 0
DWIDTH 18 0
BBX 16 23 1 -6
BITMAP
FFF0
FFF0
FFF0
CE30
0E00
0E00
0EFE
0FFF
0FFF
0F07
0E07
0E07
0E07
0E07
1FC7
1FC7
1FC7
0007
0007
001F
007E
007C
0040
ENDCHAR
STARTCHAR Gjecyrillic
ENCODING 1027
SWIDTH 600 0
DWIDTH 18 0
BBX 16 24 1 0
BITMAP
0060
00E0
01C0
0380
0300
0000
0000
FFFF
FFFF
7FFF
3807
3807
3807
3800
3800
3800
3800
3800
3800
3800
3800
FFC0
FFC0
FFC0
ENDCHAR
STARTCHAR Ecyrillic
ENCODING 1028
SWIDTH 600 0
DWIDTH 18 0
BBX 16 18 1 0
BITMAP
03E0
0FFE
3FFF
3C3F
780F
F006
E006
E000
FFE0
FFE0
FFE0
E000
E000
7002
7807
3FFF
1FFE
0FF8
ENDCHAR
STARTCHAR Dzecyrillic
ENCODING 1029
SWIDTH 600 0
DWIDTH 18 0
BBX 14 18 2 0
BITMAP
0FD8
3FF8
7FFC
787C
703C
F018
7018
7C00
3FE0
1FF0
03F8
003C
C01C
E01C
F03C
FFFC
FFF8
DFE0
ENDCHAR
STARTCHAR Icyrillic
ENCODING 1030
SWIDTH 600 0
DWIDTH 18 0
BBX 14 17 2 0
BITMAP
7FF8
7FF8
3FF0
0780
0780
0780
0780
0780
0780
0780
0780
0780
0780
0780
7FF8
FFFC
7FF8
ENDCHAR
STARTCHAR Yicyrillic
ENCODING 1031
SWIDTH 600 0
DWIDTH 18 0
BBX 14 23 2 0
BITMAP
1860
3CF0
3CF0
1860
0000
0000
7FF8
7FF8
3FF0
0780
0780
0780
0780
0780
0780
0780
0780
0780
0780
0780
7FF8
FFFC
7FF8
ENDCHAR
STARTCHAR Jecyrillic
ENCODING 1032
SWIDTH 600 0
DWIDTH 18 0
BBX 17 17 1 0
BITMAP
0FFF00
0FFF80
03FE00
003800
003800
003800
003800
003800
003800
E03800
E03800
E03800
E03800
E07800
FFF000
FFE000
3FC000
ENDCHAR
STARTCHAR Ljecyrillic
ENCODING 1033
SWIDTH 600 0
DWIDTH 18 0
BBX 20 17 -1 0
BITMAP
1FFC00
1FFE00
0FF800
073800
073800
073800
073800
073F80
073FE0
073FE0
0738F0
C73870
E73870
EF38F0
FE7FE0
FEFFC0
7CFF80
ENDCHAR
STARTCHAR Njecyrillic
ENCODING 1034
SWIDTH 600 0
DWIDTH 18 0
BBX 20 18 -1 0
BITMAP
007800
FEFC00
FEFC00
783800
703800
703800
703800
703800
7FFF80
7FFFC0
7FFFE0
7038F0
703870
703870
7038F0
FCFFE0
FEFFC0
FCFF80
ENDCHAR
STARTCHAR Tshecyrillic
ENCODING 1035
SWIDTH 600 0
DWIDTH 18 0
BBX 18 17 0 0
BITMAP
FFF800
FFF800
FFF800
E73000
070000
070000
07FE00
07FF00
07FF00
070780
070380
070380
070380
070380
1FCFC0
1FDFC0
1FCFC0
ENDCHAR
STARTCHAR Kjecyrillic
ENCODING 1036
SWIDTH 600 0
DWIDTH 18 0
BBX 18 24 0 0
BITMAP
001000
007000
00E000
01C000
018000
000000
000000
FFBF80
FFBF80
3E1F00
1C3C00
1CF800
1DF000
1FE000
1FC000
1FF000
1CF000
1C7800
1C3C00
1C3C00
1C1E00
7F0F80
FF8FC0
7F0F80
ENDCHAR
STARTCHAR uni040D
ENCODING 1037
SWIDTH 600 0
DWIDTH 18 0
BBX 16 24 1 0
BITMAP
0400
0700
0380
01C0
00C0
0000
0000
FE7F
FE7F
3C1C
381C
383C
387C
38FC
39FC
3BDC
3F9C
3E1C
3C1C
381C
381C
FE7F
FE7F
FE7F
ENDCHAR
STARTCHAR Ushortcyrillic
ENCODING 1038
SWIDTH 600 0
DWIDTH 18 0
BBX 16 23 1 0
BITMAP
3018
3838
1FF0
0FE0
0000
0000
FC3F
FC3F
781E
3C3C
1C3C
1E78
0E70
0FF0
07E0
03E0
03C0
03C0
0780
0700
1F80
1FC0
1F80
ENDCHAR
STARTCHAR Dzhecyrillic
ENCODING 1039
SWIDTH 600 0
DWIDTH 18 0
BBX 16 20 1 -3
BITMAP
FE7F
FE7F
3C1E
381C
381C
381C
381C
381C
381C
381C
381C
381C
381C
381C
7FFE
FFFF
7FFE
0180
0180
0180
ENDCHAR
STARTCHAR Acyrillic
ENCODING 1040
SWIDTH 600 0
DWIDTH 18 0
BBX 20 17 -1 0
BITMAP
1FF000
1FF000
07F800
01F800
03FC00
039C00
079E00
070E00
070E00
0FFF00
0FFF00
1FFF80
1C0380
1C0380
7F0FE0
FF1FF0
7F0FE0
ENDCHAR
STARTCHAR Becyrillic
ENCODING 1041
SWIDTH 600 0
DWIDTH 18 0
BBX 16 17 1 0
BITMAP
FFFF
FFFF
3FFF
3807
3807
3806
3800
3FFC
3FFE
3FFF
3807
3807
3807
380F
FFFF
FFFE
FFFC
ENDCHAR
STARTCHAR Vecyrillic
ENCODING 1042
SWIDTH 600 0
DWIDTH 18 0
BBX 17 17 0 0
BITMAP
FFFC00
FFFE00
3FFE00
1C0700
1C0700
1C0F00
1C1E00
1FFC00
1FFE00
1FFF00
1C0780
1C0380
1C0380
1C0780
7FFF80
FFFF00
7FFC00
ENDCHAR
STARTCHAR Gecyrillic
ENCODING 1043
SWIDTH 600 0
DWIDTH 18 0
BBX 16 17 1 0
BITMAP
FFFF
FFFF
7FFF
3807
3807
3807
3800
3800
3800
3800
3800
3800
3800
3800
FFC0
FFC0
FFC0
ENDCHAR
STARTCHAR Decyrillic
ENCODING 1044
SWIDTH 600 0
DWIDTH 18 0
BBX 18 21 0 -4
BITMAP
1FFF00
1FFF00
0FFE00
070E00
070E00
070E00
070E00
070E00
070E00
070E00
070E00
070E00
070E00
0E0E00
FFFFC0
FFFFC0
FFFFC0
E001C0
E001C0
E001C0
E001C0
ENDCHAR
STARTCHAR Iecyrillic
ENCODING 1045
SWIDTH 600 0
DWIDTH 18 0
BBX 17 17 0 0
BITMAP
FFFF00
FFFF00
3FFF00
1C0700
1C0700
1CE600
1CE000
1FE000
1FE000
1FE000
1CE000
1C6300
1C0780
1C0780
7FFF80
FFFF80
7FFF80
ENDCHAR
STARTCHAR Zhecyrillic
ENCODING 1046
SWIDTH 600 0
DWIDTH 18 0
BBX 20 17 -1 0
BITMAP
FDFBF0
FDFBF0
38F1C0
1CE380
1EE700
0EE700
07EE00
07FE00
0FFF00
1EE780
1CE380
1CE380
18E180
18E180
79F9E0
F9F9F0
79F9E0
ENDCHAR
STARTCHAR Zecyrillic
ENCODING 1047
SWIDTH 600 0
DWIDTH 18 0
BBX 14 18 2 0
BITMAP
6FC0
FFF0
FFF8
F878
F038
603C
6038
00F8
1FF8
1FF0
0FF8
003C
C01C
E01C
F03C
FFFC
FFF8
DFE0
ENDCHAR
STARTCHAR Iicyrillic
ENCODING 1048
SWIDTH 600 0
DWIDTH 18 0
BBX 16 17 1 0
BITMAP
FE7F
FE7F
3C1C
381C
383C
387C
38FC
39FC
3BDC
3F9C
3E1C
3C1C
381C
381C
FE7F
FE7F
FE7F
ENDCHAR
STARTCHAR Iishortcyrillic
ENCODING 1049
SWIDTH 600 0
DWIDTH 18 0
BBX 16 23 1 0
BITMAP
1018
1838
1FF0
0FE0
0000
0000
FE7F
FE7F
3C1C
381C
383C
387C
38FC
39FC
3BDC
3F9C
3E1C
3C1C
381C
381C
FE7F
FE7F
FE7F
ENDCHAR
STARTCHAR Kacyrillic
ENCODING 1050
SWIDTH 600 0
DWIDTH 18 0
BBX 18 17 0 0
BITMAP
FFBF80
FFBF80
3E1F00
1C3C00
1CF800
1DF000
1FE000
1FC000
1FF000
1CF000
1C7800
1C3C00
1C3C00
1C1E00
7F0F80
FF8FC0
7F0F80
ENDCHAR
STARTCHAR Elcyrillic
ENCODING 1051
SWIDTH 600 0
DWIDTH 18 0
BBX 18 17 0 0
BITMAP
07FF80
07FF80
03FF00
038E00
038E00
038E00
038E00
038E00
038E00
038E00
038E00
638E00
E38E00
F38E00
7FBF80
7FBFC0
3E3F80
ENDCHAR
STARTCHAR Emcyrillic
ENCODING 1052
SWIDTH 600 0
DWIDTH 18 0
BBX 20 17 -1 0
BITMAP
7C03E0
7E07E0
3E07C0
3F0FC0
3F0FC0
3F9FC0
3B9DC0
3BDDC0
39F9C0
39F9C0
38F9C0
38F1C0
3871C0
3801C0
7F0FE0
FF0FF0
7F0FE0
ENDCHAR
STARTCHAR Encyrillic
ENCODING 1053
SWIDTH 600 0
DWIDTH 18 0
BBX 16 17 1 0
BITMAP
FE7F
FE7F
3C1C
381C
381C
381C
381C
3FFC
3FFC
3FFC
381C
381C
381C
381C
FE7F
FE7F
FE7F
ENDCHAR
STARTCHAR Ocyrillic
ENCODING 1054
SWIDTH 600 0
DWIDTH 18 0
BBX 16 18 1 0
BITMAP
07C0
0FF0
3FFC
7C3E
781E
F00F
E007
E007
E007
E007
E007
E007
E007
700E
781E
3FFC
1FF8
0FF0
ENDCHAR
STARTCHAR Pecyrillic
ENCODING 1055
SWIDTH 600 0
DWIDTH 18 0
BBX 16 17 1 0
BITMAP
FFFF
FFFF
3FFC
381C
381C
381C
381C
381C
381C
381C
381C
381C
381C
381C
FE7F
FE7F
FE7F
ENDCHAR
STARTCHAR Ercyrillic
ENCODING 1056
SWIDTH 600 0
DWIDTH 18 0
BBX 16 17 0 0
BITMAP
FFF8
FFFC
3FFE
1C0F
1C07
1C07
1C0F
1C1E
1FFE
1FFC
1FF0
1C00
1C00
1C00
7FC0
FFE0
7FC0
ENDCHAR
STARTCHAR Escyrillic
ENCODING 1057
SWIDTH 600 0
DWIDTH 18 0
BBX 16 18 1 0
BITMAP
03E0
0FFE
3FFE
3C3E
780E
F006
E006
E000
E000
E000
E000
E000
E000
7002
780F
3FFF
1FFE
0FF8
ENDCHAR
STARTCHAR Tecyrillic
ENCODING 1058
SWIDTH 600 0
DWIDTH 18 0
BBX 16 17 1 0
BITMAP
FFFF
FFFF
FFFF
E387
E387
E387
E387
0380
0380
0380
0380
0380
0380
0380
1FF8
1FF8
1FF8
ENDCHAR
STARTCHAR Ucyrillic
ENCODING 1059
SWIDTH 600 0
DWIDTH 18 0
BBX 16 17 1 0
BITMAP
FC3F
FC3F
781E
3C3C
1C3C
1E78
0E70
0FF0
07E0
03E0
03C0
03C0
0780
0700
1F80
1FC0
1F80
ENDCHAR
STARTCHAR Efcyrillic
ENCODING 1060
SWIDTH 600 0
DWIDTH 18 0
BBX 18 17 0 0
BITMAP
1FFE00
1FFE00
0FFC00
1FFC00
7FFF80
7FFF80
F1E3C0
E1E1C0
E1E1C0
F1E3C0
7FFF80
7FFF80
3FFF00
01E000
1FFE00
3FFF00
1FFE00
ENDCHAR
STARTCHAR Khacyrillic
ENCODING 1061
SWIDTH 600 0
DWIDTH 18 0
BBX 18 17 0 0
BITMAP
7E1F80
7E1F80
3C0F00
1E1E00
0F3C00
07F800
03F000
01E000
01E000
03F000
07F800
0F3C00
1E1E00
3C0F00
7E1F80
FF3FC0
7E1F80
ENDCHAR
STARTCHAR Tsecyrillic
ENCODING 1062
SWIDTH 600 0
DWIDTH 18 0
BBX 18 21 0 -4
BITMAP
FF7F80
FF7F80
3C1E00
380E00
380E00
380E00
380E00
380E00
380E00
380E00
380E00
380E00
380E00
380E00
7FFFC0
7FFFC0
7FFFC0
0001C0
0001C0
0001C0
0001C0
ENDCHAR
STARTCHAR Checyrillic
ENCODING 1063
SWIDTH 600 0
DWIDTH 18 0
BBX 16 17 1 0
BITMAP
FEFE
FEFE
7C3C
381C
381C
381C
381C
381C
3C3C
3FFC
1FFC
0F9C
001C
001C
007E
00FF
007E
ENDCHAR
STARTCHAR Shacyrillic
ENCODING 1064
SWIDTH 600 0
DWIDTH 18 0
BBX 20 17 -1 0
BITMAP
FDFBF0
FDFBF0
78F1E0
38F1C0
38F1C0
38F1C0
38F1C0
38F1C0
38F1C0
38F1C0
38F1C0
38F1C0
38F1C0
38F1C0
7FFFE0
FFFFF0
7FFFE0
ENDCHAR
STARTCHAR Shchacyrillic
ENCODING 1065
SWIDTH 600 0
DWIDTH 18 0
BBX 20 21 -1 -4
BITMAP
FDFBE0
FDFBE0
78F1C0
70E1C0
70E1C0
70E1C0
70E1C0
70E1C0
70E1C0
70E1C0
70E1C0
70E1C0
70E1C0
70E1C0
FFFFF0
FFFFF0
7FFFF0
000070
000070
000070
000060
ENDCHAR
STARTCHAR Hardsigncyrillic
ENCODING 1066
SWIDTH 600 0
DWIDTH 18 0
BBX 18 17 0 0
BITMAP
FFF000
FFF000
FFC000
E38000
E38000
E38000
E3FF00
03FF80
03FF80
0383C0
0381C0
0381C0
0381C0
0383C0
0FFF80
1FFF00
0FFE00
ENDCHAR
STARTCHAR Yericyrillic
ENCODING 1067
SWIDTH 600 0
DWIDTH 18 0
BBX 20 17 -1 0
BITMAP
FF07F0
FF07F0
3E01C0
3801C0
3801C0
3801C0
3FE1C0
3FF1C0
3FF9C0
3839C0
3839C0
383DC0
3839C0
3879C0
7FFFE0
FFF7F0
7FC7E0
ENDCHAR
STARTCHAR Softsigncyrillic
ENCODING 1068
SWIDTH 600 0
DWIDTH 18 0
BBX 16 17 0 0
BITMAP
FFE0
FFE0
3F80
1C00
1C00
1C00
1FF8
1FFC
1FFE
1C0F
1C07
1C07
1C0F
1C1E
7FFE
FFFC
7FF0
ENDCHAR
STARTCHAR Ereversedcyrillic
ENCODING 1069
SWIDTH 600 0
DWIDTH 18 0
BBX 16 18 1 0
BITMAP
07C0
7FF0
FFFC
F83C
F01E
600E
6007
0007
07FF
07FF
07FF
0007
0007
400E
E01E
FFFC
7FF8
1FE0
ENDCHAR
STARTCHAR IUcyrillic
ENCODING 1070
SWIDTH 600 0
DWIDTH 18 0
BBX 19 18 -1 0
BITMAP
001E00
FE7F00
FEFF80
3CE3C0
39C1C0
39C0E0
39C0E0
39C0E0
3FC0E0
3FC0E0
3FC0E0
39C0E0
39C0E0
39C1C0
39E1C0
7EFFC0
FEFF80
7E3F00
ENDCHAR
STARTCHAR IAcyrillic
ENCODING 1071
SWIDTH 600 0
DWIDTH 18 0
BBX 18 17 0 0
BITMAP
07FFC0
0FFFC0
1FFF80
1E0700
1C0700
1C0700
1E0700
0FFF00
07FF00
03FF00
078700
0F0700
1E0700
1C0700
FC3FC0
F83FC0
F83FC0
ENDCHAR
STARTCHAR acyrillic
ENCODING 1072
SWIDTH 600 0
DWIDTH 18 0
BBX 16 13 1 0
BITMAP
3FF0
3FF8
3FF8
001C
03DC
1FFC
3FFC
781C
F01C
F03C
FFFF
7FFF
3FDF
ENDCHAR
STARTCHAR becyrillic
ENCODING 1073
SWIDTH 600 0
DWIDTH 18 0
BBX 14 20 2 0
BITMAP
0010
0038
00F8
1FF8
3FF8
7C00
F200
EFE0
FFF0
FFF8
F03C
E01C
E01C
E01C
E01C
E01C
F03C
7FF8
3FF0
1FE0
ENDCHAR
STARTCHAR vecyrillic
ENCODING 1074
SWIDTH 600 0
DWIDTH 18 0
BBX 12 13 3 0
BITMAP
FFC0
FFF0
FFF0
7070
71F0
7FF0
7FE0
7FF0
7070
7070
FFF0
FFF0
FFC0
ENDCHAR
STARTCHAR gecyrillic
ENCODING 1075
SWIDTH 600 0
DWIDTH 18 0
BBX 12 13 3 0
BITMAP
FFF0
FFF0
FFF0
3870
3870
3820
3800
3800
3800
3800
FC00
FE00
FC00
ENDCHAR
STARTCHAR decyrillic
ENCODING 1076
SWIDTH 600 0
DWIDTH 18 0
BBX 16 16 1 -3
BITMAP
3FFF
3FFF
1FFF
0E1C
0E1C
0E1C
0E1C
0E1C
0E1C
0E1C
FFFF
FFFF
FFFF
E007
E007
4002
ENDCHAR
STARTCHAR iecyrillic
ENCODING 1077
SWIDTH 600 0
DWIDTH 18 0
BBX 16 13 1 0
BITMAP
0FF0
3FF8
7FFC
781E
F00E
FFFE
FFFE
FFFF
F000
7800
7FFE
3FFE
0FFC
ENDCHAR
STARTCHAR zhecyrillic
ENCODING 1078
SWIDTH 600 0
DWIDTH 18 0
BBX 20 13 -1 0
BITMAP
7DFBE0
FFFFE0
7CF3E0
1EE780
0FFF00
07FE00
03FC00
07FE00
0FEF00
1EE780
7CF3E0
FFFFF0
7DF3E0
ENDCHAR
STARTCHAR zecyrillic
ENCODING 1079
SWIDTH 600 0
DWIDTH 18 0
BBX 14 13 2 0
BITMAP
7FE0
7FF0
7FF8
7038
20F8
0FF8
0FF0
0FF8
603C
E03C
FFFC
FFF8
7FF0
ENDCHAR
STARTCHAR iicyrillic
ENCODING 1080
SWIDTH 600 0
DWIDTH 18 0
BBX 16 13 1 0
BITMAP
FC3F
FE7F
FC3F
381C
387C
39FC
3FFC
3F9C
3E1C
381C
FC3F
FE7F
FC3F
ENDCHAR
STARTCHAR iishortcyrillic
ENCODING 1081
SWIDTH 600 0
DWIDTH 18 0
BBX 16 19 1 0
BITMAP
1818
1818
1E78
0FF0
0180
0000
FC3F
FE7F
FC3F
381C
387C
39FC
3FFC
3F9C
3E1C
381C
FC3F
FE7F
FC3F
ENDCHAR
STARTCHAR kacyrillic
ENCODING 1082
SWIDTH 600 0
DWIDTH 18 0
BBX 14 13 2 0
BITMAP
F9FC
F9FC
F9FC
3BE0
3F80
3F00
3F00
3F80
3FC0
3BE0
F9FC
F9FC
F9FC
ENDCHAR
STARTCHAR elcyrillic
ENCODING 1083
SWIDTH 600 0
DWIDTH 18 0
BBX 16 13 1 0
BITMAP
1FFF
1FFF
1FFF
0E0E
0E0E
0E0E
0E0E
CE0E
CE0E
CE0E
FE3F
FE3F
7C3F
ENDCHAR
STARTCHAR emcyrillic
ENCODING 1084
SWIDTH 600 0
DWIDTH 18 0
BBX 19 13 0 0
BITMAP
FE1FC0
FE1FE0
FF3FC0
773B80
73BB80
73F380
73F380
71E380
71E380
70C380
FC0FC0
FC0FE0
FC0FC0
ENDCHAR
STARTCHAR encyrillic
ENCODING 1085
SWIDTH 600 0
DWIDTH 18 0
BBX 14 13 2 0
BITMAP
FCFC
FCFC
FCFC
7038
7038
7FF8
7FF8
7FF8
7038
7038
FCFC
FCFC
FCFC
ENDCHAR
STARTCHAR ocyrillic
ENCODING 1086
SWIDTH 600 0
DWIDTH 18 0
BBX 16 13 1 0
BITMAP
0FF0
1FF8
3FFC
781E
700E
E007
E007
E007
700E
781E
3FFC
1FF8
0FF0
ENDCHAR
STARTCHAR pecyrillic
ENCODING 1087
SWIDTH 600 0
DWIDTH 18 0
BBX 16 13 1 0
BITMAP
7FFE
FFFF
7FFE
381C
381C
381C
381C
381C
381C
381C
7E7E
FE7F
7E7E
ENDCHAR
STARTCHAR ercyrillic
ENCODING 1088
SWIDTH 600 0
DWIDTH 18 0
BBX 17 19 0 -6
BITMAP
FBFC00
FFFE00
FFFF00
3E0780
3C0380
3C0380
380380
3C0380
3E0780
3F9F00
3FFF00
3BFC00
386000
380000
380000
380000
FF8000
FF8000
FF8000
ENDCHAR
STARTCHAR escyrillic
ENCODING 1089
SWIDTH 600 0
DWIDTH 18 0
BBX 15 14 2 0
BITMAP
0100
1FFC
3FFC
7FFC
F01C
E01C
E00C
E000
E000
E000
F00E
7FFE
7FFC
1FF8
ENDCHAR
STARTCHAR tecyrillic
ENCODING 1090
SWIDTH 600 0
DWIDTH 18 0
BBX 14 13 2 0
BITMAP
FFFC
FFFC
FFFC
E79C
E79C
4788
0780
0780
0780
0780
0FC0
0FC0
0FC0
ENDCHAR
STARTCHAR ucyrillic
ENCODING 1091
SWIDTH 600 0
DWIDTH 18 0
BBX 16 19 1 -6
BITMAP
FC3F
FC3F
FC3F
781C
381C
3C38
1C38
1E70
0E70
0FE0
07E0
03C0
03C0
0380
0780
0700
FFC0
FFC0
FFC0
ENDCHAR
STARTCHAR efcyrillic
ENCODING 1092
SWIDTH 600 0
DWIDTH 18 0
BBX 18 25 0 -6
BITMAP
07E000
07E000
01E000
01E000
01E000
03F000
1FFE00
3FFF00
7FFF80
71E380
F1E3C0
E1E1C0
E1E1C0
E1E1C0
F1E3C0
79E780
7FFF00
1FFE00
07F800
01E000
01E000
01E000
07F800
07FC00
07F800
ENDCHAR
STARTCHAR khacyrillic
ENCODING 1093
SWIDTH 600 0
DWIDTH 18 0
BBX 16 13 1 0
BITMAP
FE7E
FE7F
7C3E
3E78
0FF0
07E0
07E0
0FF0
1FF8
3C3C
FE7F
FE7F
FE7F
ENDCHAR
STARTCHAR tsecyrillic
ENCODING 1094
SWIDTH 600 0
DWIDTH 18 0
BBX 16 16 1 -3
BITMAP
FC7E
FEFE
FC7E
3838
3838
3838
3838
3838
3838
3838
FFFF
FFFF
FFFF
0007
0007
0002
ENDCHAR
STARTCHAR checyrillic
ENCODING 1095
SWIDTH 600 0
DWIDTH 18 0
BBX 16 13 1 0
BITMAP
7E7E
FE7F
7E7E
381C
381C
381C
3C7C
1FFC
1FFC
039C
007E
007F
007E
ENDCHAR
STARTCHAR shacyrillic
ENCODING 1096
SWIDTH 600 0
DWIDTH 18 0
BBX 18 13 0 0
BITMAP
FBF7C0
FBF7C0
F9F7C0
71E380
71E380
71E380
71E380
71E380
71E380
71E380
FFFFC0
FFFFC0
FFFFC0
ENDCHAR
STARTCHAR shchacyrillic
ENCODING 1097
SWIDTH 600 0
DWIDTH 18 0
BBX 18 16 0 -3
BITMAP
FBF7C0
FBF7C0
F9F7C0
71E380
71E380
71E380
71E380
71E380
71E380
71E380
FFFFC0
FFFFC0
FFFFC0
0001C0
0001C0
0000C0
ENDCHAR
STARTCHAR hardsigncyrillic
ENCODING 1098
SWIDTH 600 0
DWIDTH 18 0
BBX 16 13 1 0
BITMAP
FFC0
FFC0
FFC0
E700
E700
47FE
07FF
07FF
0707
0707
0FFF
1FFE
0FFC
ENDCHAR
STARTCHAR yericyrillic
ENCODING 1099
SWIDTH 600 0
DWIDTH 18 0
BBX 18 13 0 0
BITMAP
FC07C0
FC0FC0
FC07C0
380380
380380
3FE380
3FE380
3FF380
387380
387380
FFFFC0
FFEFC0
FFC7C0
ENDCHAR
STARTCHAR softsigncyrillic
ENCODING 1100
SWIDTH 600 0
DWIDTH 18 0
BBX 12 13 3 0
BITMAP
FC00
FC00
FC00
7000
7000
7FE0
7FF0
7FF0
7070
7070
FFF0
FFF0
FFC0
ENDCHAR
STARTCHAR ereversedcyrillic
ENCODING 1101
SWIDTH 600 0
DWIDTH 18 0
BBX 16 13 1 0
BITMAP
7FF0
7FF8
7FFC
781E
700E
23FF
07FF
07FF
000E
601E
FFFE
7FFC
3FF0
ENDCHAR
STARTCHAR iucyrillic
ENCODING 1102
SWIDTH 600 0
DWIDTH 18 0
BBX 18 14 0 0
BITMAP
000800
F8FF00
FDFF80
F9FF80
73C1C0
7381C0
7F81C0
7F81C0
7F81C0
7381C0
73C1C0
F9FF80
FDFF80
F8FF00
ENDCHAR
STARTCHAR iacyrillic
ENCODING 1103
SWIDTH 600 0
DWIDTH 18 0
BBX 14 13 2 0
BITMAP
0FFC
1FFC
3FFC
3838
3838
3FF8
3FF8
1FF8
0FB8
1F38
FEFC
FEFC
FEFC
ENDCHAR
STARTCHAR uni0450
ENCODING 1104
SWIDTH 600 0
DWIDTH 18 0
BBX 16 20 1 0
BITMAP
0C00
0E00
0700
0380
01C0
0000
0000
0FF0
3FF8
7FFC
781E
F00E
FFFE
FFFE
FFFF
F000
7800
7FFE
3FFE
0FFC
ENDCHAR
STARTCHAR iocyrillic
ENCODING 1105
SWIDTH 600 0
DWIDTH 18 0
BBX 16 19 1 0
BITMAP
0830
1C78
1C78
0C30
0000
0000
0FF0
3FF8
7FFC
781E
F00E
FFFE
FFFE
FFFF
F000
7800
7FFE
3FFE
0FFC
ENDCHAR
STARTCHAR djecyrillic
ENCODING 1106
SWIDTH 600 0
DWIDTH 18 0
BBX 15 25 0 -6
BITMAP
7C00
FC00
7C00
1C00
7FE0
7FE0
1C00
1CF8
1FFC
1FFE
1F0E
1C0E
1C0E
1C0E
1C0E
1C0E
7F0E
7F0E
7F0E
000E
000E
003E
03FC
03F8
00C0
ENDCHAR
STARTCHAR gjecyrillic
ENCODING 1107
SWIDTH 600 0
DWIDTH 18 0
BBX 12 20 3 0
BITMAP
00C0
01C0
0380
0700
0600
0000
0000
FFF0
FFF0
FFF0
3870
3870
3820
3800
3800
3800
3800
FC00
FE00
FC00
ENDCHAR
STARTCHAR ecyrillic
ENCODING 1108
SWIDTH 600 0
DWIDTH 18 0
BBX 16 14 1 0
BITMAP
0004
0FFE
3FFE
3FFE
781E
700E
FFC4
FFE0
FFE0
7000
7806
7FFF
3FFE
0FFC
ENDCHAR
STARTCHAR dzecyrillic
ENCODING 1109
SWIDTH 600 0
DWIDTH 18 0
BBX 14 13 2 0
BITMAP
1FF8
3FF8
7FF8
7038
7C00
7FE0
3FF8
03F8
603C
E03C
FFFC
FFF8
7FF0
ENDCHAR
STARTCHAR icyrillic
ENCODING 1110
SWIDTH 600 0
DWIDTH 18 0
BBX 14 19 2 0
BITMAP
0700
0700
0700
0000
0000
0000
7F80
7F80
3F80
0780
0780
0780
0780
0780
0780
0780
FFFC
FFFC
FFFC
ENDCHAR
STARTCHAR yicyrillic
ENCODING 1111
SWIDTH 600 0
DWIDTH 18 0
BBX 14 19 2 0
BITMAP
1860
3CF0
3CF0
1860
0000
0000
7F80
7F80
3F80
0780
0780
0780
0780
0780
0780
0780
FFFC
FFFC
FFFC
ENDCHAR
STARTCHAR jecyrillic
ENCODING 1112
SWIDTH 600 0
DWIDTH 18 0
BBX 11 25 3 -6
BITMAP
0780
0780
0780
0000
0000
0000
FFE0
FFE0
FFE0
00E0
00E0
00E0
00E0
00E0
00E0
00E0
00E0
00E0
00E0
00E0
00E0
01C0
FFC0
FF80
FE00
ENDCHAR
STARTCHAR ljecyrillic
ENCODING 1113
SWIDTH 600 0
DWIDTH 18 0
BBX 21 13 -1 0
BITMAP
0FFF00
1FFF00
0FFF00
071C00
071C00
071FE0
071FF0
E71FF8
E71C78
E71C78
FF3FF0
FF7FF0
7E3FE0
ENDCHAR
STARTCHAR njecyrillic
ENCODING 1114
SWIDTH 600 0
DWIDTH 18 0
BBX 20 13 -1 0
BITMAP
FE7E00
FEFE00
7C7E00
383800
383800
3FFFC0
3FFFE0
3FFFF0
3838F0
3838F0
FC7FE0
FEFFE0
7C7F80
ENDCHAR
STARTCHAR tshecyrillic
ENCODING 1115
SWIDTH 600 0
DWIDTH 18 0
BBX 17 19 0 0
BITMAP
7C0000
FC0000
7C0000
1C0000
7FE000
7FE000
1C0000
1CF800
1FFC00
1FFE00
1F0E00
1C0E00
1C0E00
1C0E00
1C0E00
1C0E00
7F3F80
7F3F80
7F1F80
ENDCHAR
STARTCHAR kjecyrillic
ENCODING 1116
SWIDTH 600 0
DWIDTH 18 0
BBX 14 20 2 0
BITMAP
00C0
01C0
0380
0700
0600
0000
0000
F9FC
F9FC
F9FC
3BE0
3F80
3F00
3F00
3F80
3FC0
3BE0
F9FC
F9FC
F9FC
ENDCHAR
STARTCHAR uni045D
ENCODING 1117
SWIDTH 600 0
DWIDTH 18 0
BBX 16 20 1 0
BITMAP
0C00
0E00
0700
0380
0180
0000
0000
FC3F
FE7F
FC3F
381C
387C
39FC
3FFC
3F9C
3E1C
381C
FC3F
FE7F
FC3F
ENDCHAR
STARTCHAR ushortcyrillic
ENCODING 1118
SWIDTH 600 0
DWIDTH 18 0
BBX 16 25 1 -6
BITMAP
1818
1818
1E78
0FF0
0180
0000
FC3F
FC3F
FC3F
781C
381C
3C38
1C38
1E70
0E70
0FE0
07E0
03C0
03C0
0380
0780
0700
FFC0
FFC0
FFC0
ENDCHAR
STARTCHAR afii10193
ENCODING 1119
SWIDTH 600 0
DWIDTH 18 0
BBX 16 16 1 -3
BITMAP
FC3F
FE7F
FC3F
381C
381C
381C
381C
381C
381C
381C
FFFF
FFFF
FFFF
0180
0180
0180
ENDCHAR
STARTCHAR Psicyrillic
ENCODING 1136
SWIDTH 600 0
DWIDTH 18 0
BBX 18 17 0 0
BITMAP
FBF7C0
FBF7C0
79E780
79E780
79E780
79E780
79E780
39E700
39E700
3FFF00
1FFE00
0FFC00
01E000
01E000
07F800
07F800
07F800
ENDCHAR
STARTCHAR psicyrillic
ENCODING 1137
SWIDTH 600 0
DWIDTH 18 0
BBX 20 25 -1 -6
BITMAP
006000
00F000
00F000
00F000
00F000
00F000
7CF3E0
FCF3F0
7CF3E0
1CF380
1CF380
1CF380
1CF380
1CF380
1CF380
1CF380
0FFF00
0FFF00
03FC00
00F000
00F000
00F000
00F000
00F000
006000
ENDCHAR
STARTCHAR Fitacyrillic
ENCODING 1138
SWIDTH 600 0
DWIDTH 18 0
BBX 16 18 1 0
BITMAP
07C0
0FF0
3FFC
7C3E
781E
F00F
E007
E007
EF1F
FFF7
F8F7
E007
E007
700E
781E
3FFC
1FF8
0FF0
ENDCHAR
STARTCHAR uni0484
ENCODING 1156
SWIDTH 0 0
DWIDTH 0 0
BBX 10 5 -14 14
BITMAP
0C00
3F80
73C0
C0C0
C040
ENDCHAR
STARTCHAR uni0485
ENCODING 1157
SWIDTH 0 0
DWIDTH 0 0
BBX 5 6 -11 14
BITMAP
F0
F0
78
38
38
18
ENDCHAR
STARTCHAR uni0486
ENCODING 1158
SWIDTH 0 0
DWIDTH 0 0
BBX 5 5 -11 14
BITMAP
38
78
F0
C0
80
ENDCHAR
STARTCHAR uni048a
ENCODING 1162
SWIDTH 600 0
DWIDTH 18 0
BBX 16 27 1 -4
BITMAP
1018
1838
1FF0
0FE0
0000
0000
FE7F
FE7F
3C1C
381C
383C
387C
38FC
39FC
3BDC
3F9C
3E1C
3C1C
381C
381C
FE7F
FE7F
FE7F
0007
0007
0007
0003
ENDCHAR
STARTCHAR uni048b
ENCODING 1163
SWIDTH 600 0
DWIDTH 18 0
BBX 16 23 1 -4
BITMAP
1818
1818
1E78
0FF0
0180
0000
FC3F
FE7F
FC3F
381C
387C
39FC
3FFC
3F9C
3E1C
381C
FC3F
FE7F
FC3F
0007
0007
0007
0007
ENDCHAR
STARTCHAR uni048c
ENCODING 1164
SWIDTH 600 0
DWIDTH 18 0
BBX 16 19 0 0
BITMAP
1800
1C00
7F00
FF00
7F00
1C00
1C00
1C00
1FF8
1FFC
1FFE
1C0F
1C07
1C07
1C0F
1C1E
7FFE
FFFC
7FF0
ENDCHAR
STARTCHAR uni048d
ENCODING 1165
SWIDTH 600 0
DWIDTH 18 0
BBX 12 15 3 0
BITMAP
7000
7000
FC00
FC00
FC00
7000
7000
7FE0
7FF0
7FF0
7070
7070
FFF0
FFF0
FFC0
ENDCHAR
STARTCHAR uni048E
ENCODING 1166
SWIDTH 600 0
DWIDTH 18 0
BBX 16 17 0 0
BITMAP
FFF8
FFFC
3FFE
1C0F
1C07
1C37
1C3F
1C1E
1FFE
1FFF
1FF3
1C00
1C00
1C00
7FC0
FFE0
7FC0
ENDCHAR
STARTCHAR uni048F
ENCODING 1167
SWIDTH 600 0
DWIDTH 18 0
BBX 17 19 0 -6
BITMAP
FBFC00
FFFE00
FFFF00
3E0780
3C0380
380380
386380
3C7380
3C7F80
3F3F00
3FFF00
3BFF00
387780
380380
380000
380000
FF8000
FF8000
FF8000
ENDCHAR
STARTCHAR afii10050
ENCODING 1168
SWIDTH 600 0
DWIDTH 18 0
BBX 16 21 1 0
BITMAP
0007
0007
0007
0007
FFFF
FFFF
7FFF
3800
3800
3800
3800
3800
3800
3800
3800
3800
3800
3800
FFC0
FFC0
FFC0
ENDCHAR
STARTCHAR afii10098
ENCODING 1169
SWIDTH 600 0
DWIDTH 18 0
BBX 12 16 3 0
BITMAP
0020
0070
0070
FFF0
FFF0
FFF0
3800
3800
3800
3800
3800
3800
3800
FC00
FE00
FC00
ENDCHAR
STARTCHAR uni0492
ENCODING 1170
SWIDTH 600 0
DWIDTH 18 0
BBX 16 17 1 0
BITMAP
FFFF
FFFF
7FFF
3807
3807
7F87
FFC0
FFC0
3800
3800
3800
3800
3800
3800
FFC0
FFC0
FFC0
ENDCHAR
STARTCHAR uni0493
ENCODING 1171
SWIDTH 600 0
DWIDTH 18 0
BBX 13 13 2 0
BITMAP
7FF8
7FF8
7FF8
1C38
1C38
7F10
FF80
7F00
1C00
1C00
7E00
7F00
7E00
ENDCHAR
STARTCHAR uni0494
ENCODING 1172
SWIDTH 600 0
DWIDTH 18 0
BBX 16 21 1 -4
BITMAP
FFFF
FFFF
3FFF
3807
3807
3807
3800
3BF0
3FFC
3FFE
3C1E
380E
380E
380E
FF0E
FF0E
FF0E
000E
003E
00FE
00FC
ENDCHAR
STARTCHAR uni0495
ENCODING 1173
SWIDTH 600 0
DWIDTH 18 0
BBX 12 17 3 -4
BITMAP
FFF0
FFF0
FFF0
3870
3870
3820
3FC0
3FE0
3FF0
3870
FC70
FE70
FC70
0070
03F0
03E0
03C0
ENDCHAR
STARTCHAR uni0496
ENCODING 1174
SWIDTH 600 0
DWIDTH 18 0
BBX 20 21 -1 -4
BITMAP
FDFBF0
FDFBF0
38F1C0
1CE380
1EE700
0EE700
07EE00
07FE00
0FFF00
1EE780
1CE380
1CE380
18E180
18E180
79F9F0
F9F9F0
79F9F0
000070
000070
000070
000060
ENDCHAR
STARTCHAR uni0497
ENCODING 1175
SWIDTH 600 0
DWIDTH 18 0
BBX 20 16 -1 -3
BITMAP
7DFBE0
FFFFE0
7CF3E0
1EF780
0FFF00
07FE00
03FC00
07FE00
0FFF00
1EF780
7DF3E0
FFFFF0
7DF3F0
000070
000070
000060
ENDCHAR
STARTCHAR uni0498
ENCODING 1176
SWIDTH 600 0
DWIDTH 18 0
BBX 14 24 2 -6
BITMAP
6FC0
FFF0
FFF8
F878
F038
603C
6038
00F8
1FF8
1FF0
0FF8
003C
C01C
E01C
F03C
FFFC
FFF8
DFE0
0380
03C0
00C0
0CC0
1FC0
0780
ENDCHAR
STARTCHAR uni0499
ENCODING 1177
SWIDTH 600 0
DWIDTH 18 0
BBX 14 19 2 -6
BITMAP
7FE0
7FF0
7FF8
7038
20F8
0FF8
0FF0
0FF8
603C
E03C
FFFC
FFF8
7FF0
0380
03C0
00C0
0CC0
1FC0
0780
ENDCHAR
STARTCHAR uni049A
ENCODING 1178
SWIDTH 600 0
DWIDTH 18 0
BBX 18 21 0 -4
BITMAP
FFBF80
FFBF80
3E1F00
1C3C00
1CF800
1DF000
1FE000
1FC000
1FF000
1CF000
1C7800
1C3C00
1C3C00
1C1E00
7F0FC0
FF8FC0
7F0FC0
0001C0
0001C0
0001C0
0001C0
ENDCHAR
STARTCHAR uni049B
ENCODING 1179
SWIDTH 600 0
DWIDTH 18 0
BBX 14 17 2 -4
BITMAP
F9FC
F9FC
F9FC
3BE0
3F80
3F00
3F00
3F80
3FC0
3BE0
F9FC
F9FC
F9FC
001C
001C
001C
000C
ENDCHAR
STARTCHAR uni049c
ENCODING 1180
SWIDTH 600 0
DWIDTH 18 0
BBX 18 17 0 0
BITMAP
FFBF80
FFBF80
3E1F00
1DBC00
1DF800
1DF000
1FE000
1FC000
1FF000
1DF000
1DF800
1DFC00
1DBC00
1C1E00
7F0F80
FF8FC0
7F0F80
ENDCHAR
STARTCHAR uni049d
ENCODING 1181
SWIDTH 600 0
DWIDTH 18 0
BBX 17 13 1 0
BITMAP
F87F00
F97F00
FBFF00
3BF800
3FE000
3F8000
3F8000
3FC000
3BE000
3BF800
FBFF00
F87F80
F83F00
ENDCHAR
STARTCHAR uni049e
ENCODING 1182
SWIDTH 600 0
DWIDTH 18 0
BBX 18 17 0 0
BITMAP
FFBF80
FFBF80
3E1F00
1C3C00
FEF800
FFF000
1FE000
1FC000
1FF000
1CF000
1C7800
1C3C00
1C3C00
1C1E00
7F0F80
FF8FC0
7F0F80
ENDCHAR
STARTCHAR uni049f
ENCODING 1183
SWIDTH 600 0
DWIDTH 18 0
BBX 14 13 2 0
BITMAP
F9FC
F9FC
F9FC
3BE0
FF80
FF00
3F00
3F80
3FC0
3BE0
F9FC
F9FC
F9FC
ENDCHAR
STARTCHAR uni04a0
ENCODING 1184
SWIDTH 600 0
DWIDTH 18 0
BBX 20 17 -1 0
BITMAP
FFE7E0
FFE7E0
FFC7C0
E70F80
E71E00
E73C00
077800
07F800
07FC00
073E00
071F00
070F00
070780
070380
1FE3F0
1FE1F0
1FE1F0
ENDCHAR
STARTCHAR uni04a1
ENCODING 1185
SWIDTH 600 0
DWIDTH 18 0
BBX 18 13 0 0
BITMAP
FF3F80
FF3F80
FF1F80
E77C00
E7F800
67E000
07E000
07F000
077800
073C00
1F3F80
1F3FC0
1F3F80
ENDCHAR
STARTCHAR uni04A2
ENCODING 1186
SWIDTH 600 0
DWIDTH 18 0
BBX 16 21 1 -4
BITMAP
FE7F
FE7F
3C1C
381C
381C
381C
381C
3FFC
3FFC
3FFC
381C
381C
381C
381C
FE7F
FE7F
FE7F
0007
0007
0007
0003
ENDCHAR
STARTCHAR uni04A3
ENCODING 1187
SWIDTH 600 0
DWIDTH 18 0
BBX 16 17 1 -4
BITMAP
FC3F
FE7F
FC3F
381C
381C
3FFC
3FFC
3FFC
381C
381C
FC3F
FE7F
FC3F
0007
0007
0007
0007
ENDCHAR
STARTCHAR uni04a4
ENCODING 1188
SWIDTH 600 0
DWIDTH 18 0
BBX 20 17 -1 0
BITMAP
FE7FF0
FE7FF0
3C1FF0
381C70
381C70
381C60
381C00
3FFC00
3FFC00
3FFC00
381C00
381C00
381C00
381C00
FE7F00
FE7F00
FE7F00
ENDCHAR
STARTCHAR uni04a5
ENCODING 1189
SWIDTH 600 0
DWIDTH 18 0
BBX 18 13 0 0
BITMAP
FC7FC0
FEFFC0
FC7FC0
3839C0
3839C0
3FF9C0
3FF800
3FF800
383800
383800
FC7E00
FEFE00
FC7E00
ENDCHAR
STARTCHAR uni04A6
ENCODING 1190
SWIDTH 600 0
DWIDTH 18 0
BBX 20 21 -1 -4
BITMAP
FFFE00
FFFE00
3FF800
383800
383800
383800
383800
383BC0
383FE0
383FF0
3838F0
383870
383870
383870
FEFE70
FEFE70
FEFE70
000070
0003F0
0003E0
0003C0
ENDCHAR
STARTCHAR pemiddlehookcyrillic
ENCODING 1191
SWIDTH 600 0
DWIDTH 18 0
BBX 21 17 -2 -4
BITMAP
7FFE00
FFFF00
7FFE00
381C00
381FE0
381FF0
381FF8
381C38
381C38
381C38
7E7E38
FE7F38
7E7E38
000038
0001F8
0001F0
0001E0
ENDCHAR
STARTCHAR uni04A8
ENCODING 1192
SWIDTH 600 0
DWIDTH 18 0
BBX 16 22 1 -4
BITMAP
03E0
0FFE
3FFE
3C3E
780E
F006
E006
E000
E000
E07C
E0FE
E1FE
E1CF
71C7
79CF
3FFE
1FFE
0FFC
01C0
01C0
01C0
01C0
ENDCHAR
STARTCHAR uni04a9
ENCODING 1193
SWIDTH 600 0
DWIDTH 18 0
BBX 15 18 2 -4
BITMAP
0100
1FFC
3FFC
7FFC
F01C
E01C
E00C
E0F8
E1FC
E3DC
F39E
7FFC
7FFC
1FF0
0780
0780
0780
0300
ENDCHAR
STARTCHAR uni04aa
ENCODING 1194
SWIDTH 600 0
DWIDTH 18 0
BBX 16 24 1 -6
BITMAP
03E0
0FFE
3FFE
3C3E
780E
F006
E006
E000
E000
E000
E000
E000
E000
7002
780F
3FFF
1FFE
0FF8
0180
0780
0600
0660
07F0
03C0
ENDCHAR
STARTCHAR uni04ab
ENCODING 1195
SWIDTH 600 0
DWIDTH 18 0
BBX 15 20 2 -6
BITMAP
0100
1FFC
3FFC
7FFC
F01C
E01C
E00C
E000
E000
E000
F00E
7FFE
3FFC
1FF8
0700
0F00
1C00
1CC0
0FC0
0780
ENDCHAR
STARTCHAR uni04AC
ENCODING 1196
SWIDTH 600 0
DWIDTH 18 0
BBX 16 21 1 -4
BITMAP
FFFF
FFFF
FFFF
E387
E387
E387
E387
0380
0380
0380
0380
0380
0380
0380
1FF8
1FF8
1FF8
0038
0038
0038
0018
ENDCHAR
STARTCHAR uni04AD
ENCODING 1197
SWIDTH 600 0
DWIDTH 18 0
BBX 14 17 2 -4
BITMAP
FFFC
FFFC
FFFC
E79C
E79C
4788
0780
0780
0780
0780
0FC0
0FC0
0FC0
01C0
01C0
01C0
00C0
ENDCHAR
STARTCHAR uni04AE
ENCODING 1198
SWIDTH 600 0
DWIDTH 18 0
BBX 16 17 1 0
BITMAP
FC3F
FC3F
781E
3C3C
1E78
0E70
0FF0
07E0
03C0
03C0
03C0
03C0
03C0
03C0
1FF8
1FF8
1FF8
ENDCHAR
STARTCHAR uni04AF
ENCODING 1199
SWIDTH 600 0
DWIDTH 18 0
BBX 16 17 1 -4
BITMAP
FC3F
FC3F
FC3F
3C3C
1C38
1E78
0FF0
07E0
07E0
03C0
03C0
03C0
03C0
03C0
0FF0
1FF8
1FF8
ENDCHAR
STARTCHAR uni04B0
ENCODING 1200
SWIDTH 600 0
DWIDTH 18 0
BBX 16 17 1 0
BITMAP
FC3F
FC3F
781E
3C3C
1E78
0E70
0FF0
07E0
03C0
03C0
3FFC
3FFC
1FF8
03C0
1FF8
1FF8
1FF8
ENDCHAR
STARTCHAR uni04B1
ENCODING 1201
SWIDTH 600 0
DWIDTH 18 0
BBX 16 17 1 -4
BITMAP
FC3F
FC3F
FC3F
3C3C
1C38
1E78
0FF0
07E0
07E0
03C0
3FFC
3FFC
3FFC
03C0
0FF0
1FF8
1FF8
ENDCHAR
STARTCHAR uni04B2
ENCODING 1202
SWIDTH 600 0
DWIDTH 18 0
BBX 18 21 0 -4
BITMAP
7E1F80
7E1F80
3C0F00
1E1E00
0F3C00
07F800
03F000
01E000
01E000
03F000
07F800
0F3C00
1E1E00
3C0F00
7E1FC0
FF3FC0
7E1FC0
0001C0
0001C0
0001C0
000180
ENDCHAR
STARTCHAR uni04B3
ENCODING 1203
SWIDTH 600 0
DWIDTH 18 0
BBX 16 17 1 -4
BITMAP
FE7E
FE7F
7C3E
3E78
0FF0
07E0
07E0
0FF0
1FF8
3C3C
FE7F
FE7F
FE7F
0007
0007
0007
0003
ENDCHAR
STARTCHAR uni04B4
ENCODING 1204
SWIDTH 600 0
DWIDTH 18 0
BBX 20 21 -1 -4
BITMAP
FFFFE0
FFFFF0
FFF3C0
EE7380
4E2380
0E0380
0E0380
0E0380
0E0380
0E0380
0E0380
0E0380
0E0380
0E0380
1FFFE0
1FFFE0
1FFFE0
0000E0
0000E0
0000E0
0000E0
ENDCHAR
STARTCHAR uni04B5
ENCODING 1205
SWIDTH 600 0
DWIDTH 18 0
BBX 19 17 -1 -4
BITMAP
FFF7E0
FFF7E0
FFF7E0
EE7380
EE7380
0E0380
0E0380
0E0380
0E0380
0E0380
1FFFE0
1FFFE0
1FFFE0
0000E0
0000E0
0000E0
0000E0
ENDCHAR
STARTCHAR uni04B6
ENCODING 1206
SWIDTH 600 0
DWIDTH 18 0
BBX 16 21 1 -4
BITMAP
FEFE
FEFE
7C3C
381C
381C
381C
381C
381C
3C3C
3FFC
1FFC
0F9C
001C
001C
007F
00FF
007F
0007
0007
0007
0007
ENDCHAR
STARTCHAR uni04B7
ENCODING 1207
SWIDTH 600 0
DWIDTH 18 0
BBX 16 17 1 -4
BITMAP
7E7E
FE7F
7E7E
381C
381C
381C
3C7C
1FFC
1FFC
039C
007F
007F
007F
0007
0007
0007
0006
ENDCHAR
STARTCHAR uni04b8
ENCODING 1208
SWIDTH 600 0
DWIDTH 18 0
BBX 16 17 1 0
BITMAP
FEFE
FEFE
7C3C
381C
381C
381C
3B9C
3B9C
3FBC
3FFC
1FFC
0F9C
039C
011C
007E
00FF
007E
ENDCHAR
STARTCHAR uni04b9
ENCODING 1209
SWIDTH 600 0
DWIDTH 18 0
BBX 16 13 1 0
BITMAP
7E7E
FE7F
7E7E
381C
399C
399C
3DFC
1FFC
0FFC
039C
00FE
007F
007E
ENDCHAR
STARTCHAR uni04BA
ENCODING 1210
SWIDTH 600 0
DWIDTH 18 0
BBX 16 17 1 0
BITMAP
7E00
FF00
7E00
3800
3800
39F0
3FF8
3FFC
3C3C
381C
381C
381C
381C
381C
3C1C
7F7F
7F7F
ENDCHAR
STARTCHAR uni04BB
ENCODING 1211
SWIDTH 600 0
DWIDTH 18 0
BBX 16 13 1 0
BITMAP
7E00
FE00
7E00
39C0
3FF8
3FF8
3E3C
381C
381C
381C
7E7E
FE7F
7E7E
ENDCHAR
STARTCHAR Cheabkhasiancyrillic
ENCODING 1212
SWIDTH 600 0
DWIDTH 18 0
BBX 20 19 -1 -1
BITMAP
003E00
00FF80
01FFC0
39C1E0
7B80E0
FB8060
E30070
E70070
FFFFF0
7FFFF0
3FFFF0
070000
030000
038060
03C0E0
01E3E0
00FFC0
007F80
000800
ENDCHAR
STARTCHAR cheabkhasiancyrillic
ENCODING 1213
SWIDTH 600 0
DWIDTH 18 0
BBX 18 14 0 0
BITMAP
001000
39FE00
7BFF00
FFFF80
E78380
EF03C0
FFFFC0
7FFFC0
7FFFC0
0F0000
070080
07FFC0
03FFC0
01FF80
ENDCHAR
STARTCHAR Chedescenderabkhasiancyrillic
ENCODING 1214
SWIDTH 600 0
DWIDTH 18 0
BBX 20 24 -1 -6
BITMAP
003E00
00FF80
01FFC0
39C1E0
7B80E0
FB8060
E30070
E70070
FFFFF0
7FFFF0
3FFFF0
070000
030000
038060
03C0E0
01E3E0
00FFC0
007F80
000C00
003C00
003000
003300
003F00
001E00
ENDCHAR
STARTCHAR chedescenderabkhasiancyrillic
ENCODING 1215
SWIDTH 600 0
DWIDTH 18 0
BBX 18 20 0 -6
BITMAP
001000
39FE00
7BFF00
FFFF80
E78380
EF03C0
FFFFC0
7FFFC0
7FFFC0
0F0000
070080
07FFC0
03FFC0
01FF80
007000
00F000
01C000
01CC00
00FC00
007800
ENDCHAR
STARTCHAR uni04C0
ENCODING 1216
SWIDTH 600 0
DWIDTH 18 0
BBX 14 17 2 0
BITMAP
7FF8
7FF8
3FF0
0780
0780
0780
0780
0780
0780
0780
0780
0780
0780
0780
7FF8
FFFC
7FF8
ENDCHAR
STARTCHAR uni04C1
ENCODING 1217
SWIDTH 600 0
DWIDTH 18 0
BBX 20 23 -1 0
BITMAP
060600
060600
07FE00
03FC00
006000
000000
FDFBF0
FDFBF0
38F1C0
1CE380
1EE700
0EE700
07EE00
07FE00
0FFF00
1EE780
1CE380
1CE380
18E180
18E180
79F9E0
F9F9F0
79F9E0
ENDCHAR
STARTCHAR uni04C2
ENCODING 1218
SWIDTH 600 0
DWIDTH 18 0
BBX 20 20 -1 0
BITMAP
060200
060600
078E00
03FC00
00F000
000000
000000
7DFBE0
FFFFE0
7CF3E0
1EE780
0FFF00
07FE00
03FC00
07FE00
0FEF00
1EE780
7CF3E0
FFFFF0
7DF3E0
ENDCHAR
STARTCHAR uni04c3
ENCODING 1219
SWIDTH 600 0
DWIDTH 18 0
BBX 17 21 0 -4
BITMAP
FFBF80
FFBF80
3E1F00
1C3C00
1CF800
1DF000
1FE000
1FE000
1FF000
1CF800
1C7800
1C3C00
1C1E00
1C0E00
7F0E00
FF8E00
7F0700
000F00
003E00
00FE00
007C00
ENDCHAR
STARTCHAR uni04c4
ENCODING 1220
SWIDTH 600 0
DWIDTH 18 0
BBX 14 17 2 -4
BITMAP
F9FC
F9FC
F9FC
3BE0
3F80
3F00
3F00
3F80
3FC0
3BE0
F9F0
F8F0
F870
0070
03F0
07F0
07E0
ENDCHAR
STARTCHAR uni04c5
ENCODING 1221
SWIDTH 600 0
DWIDTH 18 0
BBX 18 21 0 -4
BITMAP
07FF80
07FF80
03FF00
038E00
038E00
038E00
038E00
038E00
038E00
038E00
038E00
638E00
E38E00
F38E00
7FBFC0
7FBFC0
3E3FC0
0001C0
0001C0
0001C0
000180
ENDCHAR
STARTCHAR uni04c6
ENCODING 1222
SWIDTH 600 0
DWIDTH 18 0
BBX 16 17 1 -4
BITMAP
1FFF
1FFF
1FFF
0E0E
0E0E
0E0E
0E0E
CE0E
CE0E
CE0E
FE3F
FE3F
7C3F
0007
0007
0007
0003
ENDCHAR
STARTCHAR uni04c7
ENCODING 1223
SWIDTH 600 0
DWIDTH 18 0
BBX 16 21 1 -4
BITMAP
FE7F
FE7F
3C1C
381C
381C
381C
381C
3FFC
3FFC
3FFC
381C
381C
381C
381C
FE1C
FE1C
FE1C
001C
00FC
01FC
01F8
ENDCHAR
STARTCHAR uni04c8
ENCODING 1224
SWIDTH 600 0
DWIDTH 18 0
BBX 14 17 2 -4
BITMAP
FCFC
FCFC
FCFC
7038
7038
7FF8
7FF8
7FF8
7038
7038
FC38
FC38
FC38
0078
01F0
03F0
03E0
ENDCHAR
STARTCHAR uni04c9
ENCODING 1225
SWIDTH 600 0
DWIDTH 18 0
BBX 16 21 1 -4
BITMAP
FE7F
FE7F
3C1C
381C
381C
381C
381C
3FFC
3FFC
3FFC
381C
381C
381C
381C
FE7F
FE7F
FE7F
0007
0007
0007
0003
ENDCHAR
STARTCHAR uni04ca
ENCODING 1226
SWIDTH 600 0
DWIDTH 18 0
BBX 14 17 2 -4
BITMAP
FCFC
FCFC
FCFC
7038
7038
7FF8
7FF8
7FF8
7038
7038
FCFC
FCFC
FCFC
001C
001C
001C
000C
ENDCHAR
STARTCHAR uni04cb
ENCODING 1227
SWIDTH 600 0
DWIDTH 18 0
BBX 16 21 1 -4
BITMAP
FEFE
FEFE
7C3C
381C
381C
381C
381C
381C
3C3C
3FFC
1FFC
0F9C
001C
001C
00FE
00FF
00FE
00E0
00E0
00E0
00E0
ENDCHAR
STARTCHAR uni04cc
ENCODING 1228
SWIDTH 600 0
DWIDTH 18 0
BBX 16 17 1 -4
BITMAP
7E7E
FE7F
7E7E
381C
381C
381C
3C7C
1FFC
1FFC
039C
007E
007F
007E
0070
0070
0070
0070
ENDCHAR
STARTCHAR uni04cd
ENCODING 1229
SWIDTH 600 0
DWIDTH 18 0
BBX 20 22 -1 -4
BITMAP
300000
7C03E0
7E07E0
3E07C0
3F0FC0
3F0FC0
3F9FC0
3B9DC0
3BDDC0
39F9C0
39F9C0
38F9C0
38F1C0
3871C0
3801C0
7F0FF0
FF0FF0
7F0FF0
000070
000070
000070
000060
ENDCHAR
STARTCHAR uni04ce
ENCODING 1230
SWIDTH 600 0
DWIDTH 18 0
BBX 19 17 0 -4
BITMAP
FE1FC0
FE1FE0
FF3FC0
773B80
73BB80
73F380
73F380
71E380
71E380
70C380
FC0FC0
FC0FE0
FC0FE0
0000E0
0000E0
0000E0
0000C0
ENDCHAR
STARTCHAR uni04cf
ENCODING 1231
SWIDTH 600 0
DWIDTH 18 0
BBX 14 17 2 0
BITMAP
7FF8
7FF8
3FF0
0780
0780
0780
0780
0780
0780
0780
0780
0780
0780
0780
7FF8
FFFC
7FF8
ENDCHAR
STARTCHAR uni04D0
ENCODING 1232
SWIDTH 600 0
DWIDTH 18 0
BBX 20 23 -1 0
BITMAP
060600
060600
07FE00
01F800
000000
000000
1FF000
1FF000
07F800
01F800
03FC00
039C00
079E00
070E00
070E00
0FFF00
0FFF00
1FFF80
1C0380
1C0380
7F0FE0
FF1FF0
7F0FE0
ENDCHAR
STARTCHAR uni04D1
ENCODING 1233
SWIDTH 600 0
DWIDTH 18 0
BBX 16 20 1 0
BITMAP
1808
1818
1E38
0FF0
03C0
0000
0000
3FF0
3FF8
3FF8
001C
03DC
1FFC
3FFC
781C
F01C
F03C
FFFF
7FFF
3FDF
ENDCHAR
STARTCHAR uni04D2
ENCODING 1234
SWIDTH 600 0
DWIDTH 18 0
BBX 20 22 -1 0
BITMAP
070E00
079E00
070E00
000000
000000
1FF000
1FF000
07F800
01F800
03FC00
039C00
079E00
070E00
070E00
0FFF00
0FFF00
1FFF80
1C0380
1C0380
7F0FE0
FF1FF0
7F0FE0
ENDCHAR
STARTCHAR uni04D3
ENCODING 1235
SWIDTH 600 0
DWIDTH 18 0
BBX 16 19 1 0
BITMAP
0C30
1E38
1E38
0C30
0000
0000
3FF0
3FF8
3FF8
001C
03DC
1FFC
3FFC
781C
F01C
F03C
FFFF
7FFF
3FDF
ENDCHAR
STARTCHAR uni04D4
ENCODING 1236
SWIDTH 600 0
DWIDTH 18 0
BBX 19 17 -1 0
BITMAP
0FFFE0
0FFFE0
03FFE0
03F0E0
07F0E0
0776E0
077700
077F00
0E7F00
0FFF00
0FF600
1FF060
1C70E0
1C70E0
7EFFE0
FFFFE0
7EFFE0
ENDCHAR
STARTCHAR uni04D5
ENCODING 1237
SWIDTH 600 0
DWIDTH 18 0
BBX 18 13 0 0
BITMAP
3FBF00
7FFF80
3FFF80
00E3C0
06E1C0
3FFFC0
FFFFC0
F0FFC0
E0E000
E1E000
FFFFC0
FFFFC0
7FFF80
ENDCHAR
STARTCHAR uni04D6
ENCODING 1238
SWIDTH 600 0
DWIDTH 18 0
BBX 17 23 0 0
BITMAP
180C00
1C1C00
0FF800
07F000
000000
000000
FFFF00
FFFF00
3FFF00
1C0700
1C0700
1CE600
1CE000
1FE000
1FE000
1FE000
1CE000
1C6300
1C0780
1C0780
7FFF80
FFFF80
7FFF80
ENDCHAR
STARTCHAR uni04D7
ENCODING 1239
SWIDTH 600 0
DWIDTH 18 0
BBX 16 20 1 0
BITMAP
1818
1818
1FF8
07F0
0180
0000
0000
0FF0
3FF8
7FFC
781E
F00E
FFFE
FFFE
FFFF
F000
7800
7FFE
3FFE
0FFC
ENDCHAR
STARTCHAR uni04d8
ENCODING 1240
SWIDTH 600 0
DWIDTH 18 0
BBX 16 18 1 0
BITMAP
0FC0
3FF0
7FFC
F03C
E00E
400E
0007
0007
FFFF
FFFF
C007
E007
E006
F00E
701E
3C7C
3FF8
0FF0
ENDCHAR
STARTCHAR afii10846
ENCODING 1241
SWIDTH 600 0
DWIDTH 18 0
BBX 16 14 1 -1
BITMAP
3FF0
FFF8
FFFC
401E
000E
FFFE
FFFF
FFFE
F00E
781E
7FFC
3FF8
0FF0
0100
ENDCHAR
STARTCHAR uni04da
ENCODING 1242
SWIDTH 600 0
DWIDTH 18 0
BBX 16 23 1 0
BITMAP
0C30
1E78
1E78
0C30
0000
0FC0
3FF0
7FFC
F03C
E00E
400E
0007
0007
FFFF
FFFF
C007
E007
E006
F00E
701E
3C7C
3FF8
0FF0
ENDCHAR
STARTCHAR uni04DB
ENCODING 1243
SWIDTH 600 0
DWIDTH 18 0
BBX 16 20 1 -1
BITMAP
0C30
1E78
1E78
0C30
0000
0000
3FF0
FFF8
FFFC
401E
000E
FFFE
FFFF
FFFE
F00E
781E
7FFC
3FF8
0FF0
0100
ENDCHAR
STARTCHAR uni04DC
ENCODING 1244
SWIDTH 600 0
DWIDTH 18 0
BBX 20 23 -1 0
BITMAP
030C00
079E00
079E00
030C00
000000
000000
FDFBF0
FDFBF0
38F1C0
1CE380
1EE700
0EE700
07EE00
07FE00
0FFF00
1EE780
1CE380
1CE380
18E180
18E180
79F9E0
F9F9F0
79F9E0
ENDCHAR
STARTCHAR uni04DD
ENCODING 1245
SWIDTH 600 0
DWIDTH 18 0
BBX 20 19 -1 0
BITMAP
030C00
079E00
079E00
030C00
000000
000000
7DFBE0
FFFFE0
7CF3E0
1EE780
0FFF00
07FE00
03FC00
07FE00
0FEF00
1EE780
7CF3E0
FFFFF0
7DF3E0
ENDCHAR
STARTCHAR uni04DE
ENCODING 1246
SWIDTH 600 0
DWIDTH 18 0
BBX 14 22 2 0
BITMAP
3870
3CF0
3870
0000
6FC0
FFF0
FFF8
F878
F038
603C
6038
00F8
1FF8
1FF0
0FF8
003C
C01C
E01C
F03C
FFFC
FFF8
DFE0
ENDCHAR
STARTCHAR uni04DF
ENCODING 1247
SWIDTH 600 0
DWIDTH 18 0
BBX 14 19 2 0
BITMAP
1860
3CF0
3C70
1860
0000
0000
7FE0
7FF0
7FF8
7038
20F8
0FF8
0FF0
0FF8
603C
E03C
FFFC
FFF8
7FF0
ENDCHAR
STARTCHAR Dzeabkhasiancyrillic
ENCODING 1248
SWIDTH 600 0
DWIDTH 18 0
BBX 16 19 1 -2
BITMAP
3FFC
3FFC
3FFC
3878
3878
00F0
01E0
03F8
07FC
03FE
000F
0007
0007
E007
F80F
7FFE
3FFC
0FF8
0080
ENDCHAR
STARTCHAR dzeabkhasiancyrillic
ENCODING 1249
SWIDTH 600 0
DWIDTH 18 0
BBX 12 18 2 -5
BITMAP
7FF0
7FF0
03C0
0780
0F00
1F80
3FC0
3FE0
10E0
00E0
0060
0060
0060
00E0
E0E0
F9C0
7FC0
3F80
ENDCHAR
STARTCHAR uni04E2
ENCODING 1250
SWIDTH 600 0
DWIDTH 18 0
BBX 16 22 1 0
BITMAP
0FF0
1FF8
1FF8
0000
0000
FE7F
FE7F
3C1C
381C
383C
387C
38FC
39FC
3BDC
3F9C
3E1C
3C1C
381C
381C
FE7F
FE7F
FE7F
ENDCHAR
STARTCHAR uni04E3
ENCODING 1251
SWIDTH 600 0
DWIDTH 18 0
BBX 16 18 1 0
BITMAP
0FF0
1FF8
1FF8
0000
0000
FC3F
FE7F
FC3F
381C
387C
39FC
3FFC
3F9C
3E1C
381C
FC3F
FE7F
FC3F
ENDCHAR
STARTCHAR uni04E4
ENCODING 1252
SWIDTH 600 0
DWIDTH 18 0
BBX 16 23 1 0
BITMAP
0C30
1E78
1E38
0C30
0000
0000
FE7F
FE7F
3C1C
381C
383C
387C
38FC
39FC
3BDC
3F9C
3E1C
3C1C
381C
381C
FE7F
FE7F
FE7F
ENDCHAR
STARTCHAR uni04E5
ENCODING 1253
SWIDTH 600 0
DWIDTH 18 0
BBX 16 19 1 0
BITMAP
0C30
1E78
1E78
0C30
0000
0000
FC3F
FE7F
FC3F
381C
387C
39FC
3FFC
3F9C
3E1C
381C
FC3F
FE7F
FC3F
ENDCHAR
STARTCHAR uni04E6
ENCODING 1254
SWIDTH 600 0
DWIDTH 18 0
BBX 16 23 1 0
BITMAP
0C30
1E78
1E78
0C30
0000
07C0
0FF0
3FFC
7C3E
781E
F00F
E007
E007
E007
E007
E007
E007
E007
700E
781E
3FFC
1FF8
0FF0
ENDCHAR
STARTCHAR uni04E7
ENCODING 1255
SWIDTH 600 0
DWIDTH 18 0
BBX 16 19 1 0
BITMAP
0C30
1E78
1E78
0C30
0000
0000
0FF0
1FF8
3FFC
781E
700E
E007
E007
E007
700E
781E
3FFC
1FF8
0FF0
ENDCHAR
STARTCHAR uni04E8
ENCODING 1256
SWIDTH 600 0
DWIDTH 18 0
BBX 16 18 1 0
BITMAP
07C0
0FF0
3FFC
7C3E
781E
F00F
E007
E007
FFFF
FFFF
FFFF
E007
E007
700E
781E
3FFC
1FF8
0FF0
ENDCHAR
STARTCHAR uni04E9
ENCODING 1257
SWIDTH 600 0
DWIDTH 18 0
BBX 16 13 1 0
BITMAP
0FF0
1FF8
3FFC
781E
700E
FFFF
FFFF
FFFF
700E
781E
3FFC
1FF8
0FF0
ENDCHAR
STARTCHAR uni04EA
ENCODING 1258
SWIDTH 600 0
DWIDTH 18 0
BBX 16 23 1 0
BITMAP
0C30
1E78
1E78
0C30
0000
07C0
0FF0
3FFC
7C3E
781E
F00F
E007
E007
FFFF
FFFF
FFFF
E007
E007
700E
781E
3FFC
1FF8
0FF0
ENDCHAR
STARTCHAR uni04EB
ENCODING 1259
SWIDTH 600 0
DWIDTH 18 0
BBX 16 19 1 0
BITMAP
0C30
1E78
1E78
0C30
0000
0000
0FF0
1FF8
3FFC
781E
700E
FFFF
FFFF
FFFF
700E
781E
3FFC
1FF8
0FF0
ENDCHAR
STARTCHAR uni04EC
ENCODING 1260
SWIDTH 600 0
DWIDTH 18 0
BBX 16 23 1 0
BITMAP
0C30
1E78
1E78
0C30
0000
07C0
7FF0
FFFC
F83C
F01E
600E
6007
0007
07FF
07FF
07FF
0007
0007
400E
E01E
FFFC
7FF8
1FE0
ENDCHAR
STARTCHAR uni04ED
ENCODING 1261
SWIDTH 600 0
DWIDTH 18 0
BBX 16 19 1 0
BITMAP
0C30
1E78
1E78
0C30
0000
0000
7FF0
7FF8
7FFC
781E
700E
23FF
07FF
07FF
000E
601E
FFFE
7FFC
3FF0
ENDCHAR
STARTCHAR uni04EE
ENCODING 1262
SWIDTH 600 0
DWIDTH 18 0
BBX 16 22 1 0
BITMAP
0FF0
1FF8
1FF8
0000
0000
FC3F
FC3F
781E
3C3C
1C3C
1E78
0E70
0FF0
07E0
03E0
03C0
03C0
0780
0700
1F80
1FC0
1F80
ENDCHAR
STARTCHAR uni04EF
ENCODING 1263
SWIDTH 600 0
DWIDTH 18 0
BBX 16 24 1 -6
BITMAP
0FF0
1FF8
1FF8
0000
0000
FC3F
FC3F
FC3F
781C
381C
3C38
1C38
1E70
0E70
0FE0
07E0
03C0
03C0
0380
0780
0700
FFC0
FFC0
FFC0
ENDCHAR
STARTCHAR uni04F0
ENCODING 1264
SWIDTH 600 0
DWIDTH 18 0
BBX 16 23 1 0
BITMAP
0C30
1E78
1E78
0C30
0000
0000
FC3F
FC3F
781E
3C3C
1C3C
1E78
0E70
0FF0
07E0
03E0
03C0
03C0
0780
0700
1F80
1FC0
1F80
ENDCHAR
STARTCHAR uni04F1
ENCODING 1265
SWIDTH 600 0
DWIDTH 18 0
BBX 16 25 1 -6
BITMAP
0C30
1E78
1E78
0C30
0000
0000
FC3F
FC3F
FC3F
781C
381C
3C38
1C38
1E70
0E70
0FE0
07E0
03C0
03C0
0380
0780
0700
FFC0
FFC0
FFC0
ENDCHAR
STARTCHAR uni04F2
ENCODING 1266
SWIDTH 600 0
DWIDTH 18 0
BBX 16 23 1 0
BITMAP
01C6
03DE
073C
0638
0400
0000
FC3F
FC3F
781E
3C3C
1C3C
1E78
0E70
0FF0
07E0
03E0
03C0
03C0
0780
0700
1F80
1FC0
1F80
ENDCHAR
STARTCHAR uni04F3
ENCODING 1267
SWIDTH 600 0
DWIDTH 18 0
BBX 16 26 1 -6
BITMAP
018C
039C
0738
0E70
0C60
0000
0000
FC3F
FC3F
FC3F
781C
381C
3C38
1C38
1E70
0E70
0FE0
07E0
03C0
03C0
0380
0780
0700
FFC0
FFC0
FFC0
ENDCHAR
STARTCHAR uni04F4
ENCODING 1268
SWIDTH 600 0
DWIDTH 18 0
BBX 16 23 1 0
BITMAP
1830
1C70
1C70
0820
0000
0000
FEFE
FEFE
7C3C
381C
381C
381C
381C
381C
3C3C
3FFC
1FFC
0F9C
001C
001C
007E
00FF
007E
ENDCHAR
STARTCHAR uni04F5
ENCODING 1269
SWIDTH 600 0
DWIDTH 18 0
BBX 16 19 1 0
BITMAP
0C30
1E78
1E78
0C30
0000
0000
7E7E
FE7F
7E7E
381C
381C
381C
3C7C
1FFC
1FFC
039C
007E
007F
007E
ENDCHAR
STARTCHAR uni04f6
ENCODING 1270
SWIDTH 600 0
DWIDTH 18 0
BBX 16 21 1 -4
BITMAP
FFFF
FFFF
7FFF
3807
3807
3807
3800
3800
3800
3800
3800
3800
3800
3800
FFC0
FFC0
FFC0
01C0
01C0
01C0
00C0
ENDCHAR
STARTCHAR uni04f7
ENCODING 1271
SWIDTH 600 0
DWIDTH 18 0
BBX 12 17 3 -4
BITMAP
FFF0
FFF0
FFF0
3870
3870
3820
3800
3800
3800
3800
FC00
FE00
FE00
0E00
0E00
0E00
0C00
ENDCHAR
STARTCHAR uni04F8
ENCODING 1272
SWIDTH 600 0
DWIDTH 18 0
BBX 20 23 -1 0
BITMAP
030C00
079E00
079E00
030C00
000000
000000
FF07F0
FF07F0
3E01C0
3801C0
3801C0
3801C0
3FE1C0
3FF1C0
3FF9C0
3839C0
3839C0
383DC0
3839C0
3879C0
7FFFE0
FFF7F0
7FC7E0
ENDCHAR
STARTCHAR uni04F9
ENCODING 1273
SWIDTH 600 0
DWIDTH 18 0
BBX 18 19 0 0
BITMAP
061800
0F3C00
0F3C00
061800
000000
000000
FC07C0
FC0FC0
FC07C0
380380
380380
3FE380
3FE380
3FF380
387380
387380
FFFFC0
FFEFC0
FFC7C0
ENDCHAR
STARTCHAR uni0510
ENCODING 1296
SWIDTH 600 0
DWIDTH 18 0
BBX 14 18 2 0
BITMAP
0FD8
3FFC
7FFC
787C
703C
F018
7018
7C00
7FE0
3FE0
7FC0
F000
E00C
E01C
F03C
FFFC
7FFC
1FEC
ENDCHAR
STARTCHAR uni0511
ENCODING 1297
SWIDTH 600 0
DWIDTH 18 0
BBX 14 13 2 0
BITMAP
1FF8
3FF8
7FF8
7038
7C10
7FC0
3FC0
7FC0
F018
F03C
FFFC
7FFC
3FF8
ENDCHAR
STARTCHAR uni0512
ENCODING 1298
SWIDTH 600 0
DWIDTH 18 0
BBX 17 21 0 -4
BITMAP
07FF80
07FF80
03FF00
038E00
038E00
038E00
038E00
038E00
038E00
038E00
038E00
638E00
E38E00
F38E00
7F8E00
7F8E00
3E0E00
000E00
007E00
00FE00
00FC00
ENDCHAR
STARTCHAR uni0513
ENCODING 1299
SWIDTH 600 0
DWIDTH 18 0
BBX 16 17 1 -4
BITMAP
1FFF
1FFF
1FFF
0E0E
0E0E
0E0E
0E0E
CE0E
CE0E
CE0E
FE0E
FE0E
7C0E
001E
007C
00FC
00F8
ENDCHAR
STARTCHAR uni051a
ENCODING 1306
SWIDTH 600 0
DWIDTH 18 0
BBX 16 22 1 -4
BITMAP
07E0
0FF0
3FFC
7C3E
781E
F00F
E007
E007
E007
E007
E007
E007
E007
700E
781E
3FFC
1FF8
0FE0
0E00
1FFF
1FFF
1FFE
ENDCHAR
STARTCHAR uni051b
ENCODING 1307
SWIDTH 600 0
DWIDTH 18 0
BBX 17 19 1 -6
BITMAP
1FEF80
3FFF80
7FFF80
F03E00
E01E00
E01E00
E00E00
E01E00
F03E00
FC7E00
7FFE00
3FEE00
030E00
000E00
000E00
000E00
00FF80
00FF80
00FF80
ENDCHAR
STARTCHAR uni051c
ENCODING 1308
SWIDTH 600 0
DWIDTH 18 0
BBX 18 17 0 0
BITMAP
FF3FC0
FF3FC0
7C0F80
700380
71E380
79E380
39F700
3BF700
3BF700
3BFF00
3F3F00
3F3F00
3F3F00
3E1F00
1E1E00
1E1E00
1C0E00
ENDCHAR
STARTCHAR uni051d
ENCODING 1309
SWIDTH 600 0
DWIDTH 18 0
BBX 18 13 0 0
BITMAP
FC0FC0
FE1FC0
7C0F80
39E700
39E700
39E700
1FFF00
1FFE00
1FFE00
1F3E00
0F3E00
0F1C00
0E1C00
ENDCHAR
STARTCHAR uni051e
ENCODING 1310
SWIDTH 600 0
DWIDTH 18 0
BBX 18 17 0 0
BITMAP
FFBF80
FFBF80
3EDF00
1CFC00
1CF800
1DF800
1FFC00
1FC000
1FF000
1CF000
1C7800
1C3C00
1C3C00
1C1E00
7F0F80
FF8FC0
7F0F80
ENDCHAR
STARTCHAR uni051f
ENCODING 1311
SWIDTH 600 0
DWIDTH 18 0
BBX 14 13 2 0
BITMAP
F9FC
F9FC
FBFC
3BE0
3FE0
3F70
3F20
3F80
3FC0
3BE0
F9FC
F9FC
F9FC
ENDCHAR
STARTCHAR afii57799
ENCODING 1456
SWIDTH 0 0
DWIDTH 0 0
BBX 2 5 8 -6
BITMAP
C0
C0
00
C0
C0
ENDCHAR
STARTCHAR afii57801
ENCODING 1457
SWIDTH 0 0
DWIDTH 0 0
BBX 8 4 5 -6
BITMAP
99
00
21
61
ENDCHAR
STARTCHAR afii57800
ENCODING 1458
SWIDTH 0 0
DWIDTH 0 0
BBX 8 5 5 -6
BITMAP
F9
01
00
01
01
ENDCHAR
STARTCHAR afii57802
ENCODING 1459
SWIDTH 0 0
DWIDTH 0 0
BBX 8 5 5 -6
BITMAP
F9
21
20
21
21
ENDCHAR
STARTCHAR hiriqhebrew
ENCODING 1460
SWIDTH 0 0
DWIDTH 0 0
BBX 2 3 8 -4
BITMAP
80
C0
C0
ENDCHAR
STARTCHAR tserehebrew
ENCODING 1461
SWIDTH 0 0
DWIDTH 0 0
BBX 6 2 6 -3
BITMAP
48
CC
ENDCHAR
STARTCHAR segolhebrew
ENCODING 1462
SWIDTH 0 0
DWIDTH 0 0
BBX 6 5 6 -6
BITMAP
48
CC
00
30
30
ENDCHAR
STARTCHAR patahhebrew
ENCODING 1463
SWIDTH 0 0
DWIDTH 0 0
BBX 6 2 6 -3
BITMAP
78
FC
ENDCHAR
STARTCHAR qamatshebrew
ENCODING 1464
SWIDTH 0 0
DWIDTH 0 0
BBX 6 5 6 -6
BITMAP
FC
30
30
30
30
ENDCHAR
STARTCHAR holamhebrew
ENCODING 1465
SWIDTH 0 0
DWIDTH 0 0
BBX 2 2 8 16
BITMAP
C0
C0
ENDCHAR
STARTCHAR afii57796
ENCODING 1467
SWIDTH 0 0
DWIDTH 0 0
BBX 8 5 5 -6
BITMAP
80
80
18
01
01
ENDCHAR
STARTCHAR dageshhebrew
ENCODING 1468
SWIDTH 0 0
DWIDTH 0 0
BBX 2 2 8 6
BITMAP
C0
C0
ENDCHAR
STARTCHAR afii57839
ENCODING 1469
SWIDTH 0 0
DWIDTH 0 0
BBX 2 5 8 -6
BITMAP
C0
C0
C0
C0
C0
ENDCHAR
STARTCHAR afii57645
ENCODING 1470
SWIDTH 600 0
DWIDTH 18 0
BBX 14 3 2 11
BITMAP
FFFC
FFFC
7FF8
ENDCHAR
STARTCHAR rafehebrew
ENCODING 1471
SWIDTH 0 0
DWIDTH 0 0
BBX 6 2 6 16
BITMAP
FC
FC
ENDCHAR
STARTCHAR afii57842
ENCODING 1472
SWIDTH 600 0
DWIDTH 18 0
BBX 4 24 7 -5
BITMAP
40
60
F0
F0
F0
F0
F0
F0
F0
F0
F0
F0
F0
F0
F0
F0
F0
F0
F0
F0
F0
F0
60
20
ENDCHAR
STARTCHAR shindothebrew
ENCODING 1473
SWIDTH 0 0
DWIDTH 0 0
BBX 2 2 15 16
BITMAP
C0
C0
ENDCHAR
STARTCHAR sindothebrew
ENCODING 1474
SWIDTH 0 0
DWIDTH 0 0
BBX 2 2 1 16
BITMAP
C0
C0
ENDCHAR
STARTCHAR sofpasuqhebrew
ENCODING 1475
SWIDTH 600 0
DWIDTH 18 0
BBX 4 13 7 0
BITMAP
F0
F0
F0
60
00
00
00
00
00
20
F0
F0
F0
ENDCHAR
STARTCHAR upperdothebrew
ENCODING 1476
SWIDTH 0 0
DWIDTH 0 0
BBX 2 2 7 16
BITMAP
C0
C0
ENDCHAR
STARTCHAR alefhebrew
ENCODING 1488
SWIDTH 600 0
DWIDTH 18 0
BBX 14 14 2 0
BITMAP
E07C
F07C
781C
3C1C
3E1C
7F1C
FFBC
E3F8
E1F0
E0F0
E078
F03C
F81C
F00C
ENDCHAR
STARTCHAR bethebrew
ENCODING 1489
SWIDTH 600 0
DWIDTH 18 0
BBX 14 14 2 0
BITMAP
FF80
FFC0
7FE0
00E0
00E0
00E0
00E0
00E0
00E0
00E0
00E0
FFFC
FFFC
FFFC
ENDCHAR
STARTCHAR gimelhebrew
ENCODING 1490
SWIDTH 600 0
DWIDTH 18 0
BBX 10 14 4 0
BITMAP
7E00
7F00
3F80
0380
0380
0380
0380
0380
1F80
3FC0
7DC0
F1C0
E1C0
C0C0
ENDCHAR
STARTCHAR dalethebrew
ENCODING 1491
SWIDTH 600 0
DWIDTH 18 0
BBX 14 14 2 0
BITMAP
FFFC
FFFC
7FF8
00E0
00E0
00E0
00E0
00E0
00E0
00E0
00E0
00E0
00E0
0060
ENDCHAR
STARTCHAR hehebrew
ENCODING 1492
SWIDTH 600 0
DWIDTH 18 0
BBX 14 14 2 0
BITMAP
FFF0
FFF8
7FFC
001C
001C
001C
701C
701C
701C
701C
701C
701C
701C
600C
ENDCHAR
STARTCHAR vavhebrew
ENCODING 1493
SWIDTH 600 0
DWIDTH 18 0
BBX 6 14 5 0
BITMAP
FC
FC
7C
1C
1C
1C
1C
1C
1C
1C
1C
1C
1C
0C
ENDCHAR
STARTCHAR zayinhebrew
ENCODING 1494
SWIDTH 600 0
DWIDTH 18 0
BBX 10 14 4 0
BITMAP
FFC0
FFC0
7F80
1E00
1E00
1E00
1E00
1E00
1E00
1E00
1E00
1E00
1E00
0C00
ENDCHAR
STARTCHAR hethebrew
ENCODING 1495
SWIDTH 600 0
DWIDTH 18 0
BBX 14 14 2 0
BITMAP
FFF0
FFF8
7FFC
781C
701C
701C
701C
701C
701C
701C
701C
701C
701C
600C
ENDCHAR
STARTCHAR tethebrew
ENCODING 1496
SWIDTH 600 0
DWIDTH 18 0
BBX 15 14 1 0
BITMAP
F83E
F87E
38FE
39EE
3BCE
3B8E
380E
380E
380E
380E
3C1E
1FFC
1FFC
07F0
ENDCHAR
STARTCHAR yodhebrew
ENCODING 1497
SWIDTH 600 0
DWIDTH 18 0
BBX 7 8 4 6
BITMAP
FE
FE
3E
0E
0E
0E
0E
0E
ENDCHAR
STARTCHAR finalkafhebrew
ENCODING 1498
SWIDTH 600 0
DWIDTH 18 0
BBX 13 20 2 -6
BITMAP
FFE0
FFF0
7FF8
0038
0038
0038
0038
0038
0038
0038
0038
0038
0038
0038
0038
0038
0038
0038
0038
0038
ENDCHAR
STARTCHAR kafhebrew
ENCODING 1499
SWIDTH 600 0
DWIDTH 18 0
BBX 13 14 2 0
BITMAP
FFE0
FFF0
7FF8
0038
0038
0038
0038
0038
0038
0038
0078
FFF0
FFF0
FFC0
ENDCHAR
STARTCHAR lamedhebrew
ENCODING 1500
SWIDTH 600 0
DWIDTH 18 0
BBX 14 19 2 0
BITMAP
C000
E000
E000
E000
E000
FFFC
FFFC
FFFC
001C
001C
001C
003C
0078
00F0
01E0
03C0
0780
0700
0600
ENDCHAR
STARTCHAR finalmemhebrew
ENCODING 1501
SWIDTH 600 0
DWIDTH 18 0
BBX 15 14 1 0
BITMAP
7FF8
FFFC
3FFC
3C0E
380E
780E
700E
700E
700E
700E
700E
7FFE
7FFE
7FFE
ENDCHAR
STARTCHAR memhebrew
ENCODING 1502
SWIDTH 600 0
DWIDTH 18 0
BBX 15 14 1 0
BITMAP
F9F8
FBFC
7FFE
3F0E
3E0E
3C0E
380E
380E
380E
380E
380E
38FE
38FE
30FE
ENDCHAR
STARTCHAR finalnunhebrew
ENCODING 1503
SWIDTH 600 0
DWIDTH 18 0
BBX 6 20 5 -6
BITMAP
FC
FC
7C
1C
1C
1C
1C
1C
1C
1C
1C
1C
1C
1C
1C
1C
1C
1C
1C
0C
ENDCHAR
STARTCHAR nunhebrew
ENCODING 1504
SWIDTH 600 0
DWIDTH 18 0
BBX 9 14 4 0
BITMAP
3E00
3F00
1F80
0380
0380
0380
0380
0380
0380
0380
0380
FF80
FF80
FF80
ENDCHAR
STARTCHAR samekhhebrew
ENCODING 1505
SWIDTH 600 0
DWIDTH 18 0
BBX 14 14 2 0
BITMAP
FFF0
FFF8
7FFC
3C1C
781C
701C
701C
701C
701C
703C
7078
7FF0
3FE0
1FC0
ENDCHAR
STARTCHAR ayinhebrew
ENCODING 1506
SWIDTH 600 0
DWIDTH 18 0
BBX 14 14 2 0
BITMAP
FCFC
FCFC
7C3C
1C1C
1C1C
1C1C
0E3C
0E38
0E38
0E38
0E38
FFF8
FFF0
FFE0
ENDCHAR
STARTCHAR finalpehebrew
ENCODING 1507
SWIDTH 600 0
DWIDTH 18 0
BBX 14 20 2 -6
BITMAP
FFF0
FFF8
7FFC
3C1C
781C
701C
7E1C
7F1C
7F1C
001C
001C
001C
001C
001C
001C
001C
001C
001C
001C
000C
ENDCHAR
STARTCHAR pehebrew
ENCODING 1508
SWIDTH 600 0
DWIDTH 18 0
BBX 14 14 2 0
BITMAP
FFF0
FFF8
7FFC
3C1C
781C
7E1C
7F1C
7F1C
001C
001C
001C
FFFC
FFF8
FFF0
ENDCHAR
STARTCHAR finaltsadihebrew
ENCODING 1509
SWIDTH 600 0
DWIDTH 18 0
BBX 14 20 2 -6
BITMAP
FCFC
FCFC
7C3C
1C3C
1C7C
0FF8
0FE0
07C0
0700
0700
0700
0700
0700
0700
0700
0700
0700
0700
0700
0700
ENDCHAR
STARTCHAR tsadihebrew
ENCODING 1510
SWIDTH 600 0
DWIDTH 18 0
BBX 15 14 1 0
BITMAP
7C7E
FC7E
3C3E
1E1E
1F3E
07F8
03F0
01F0
00F8
007C
001E
7FFE
FFFE
7FFE
ENDCHAR
STARTCHAR qofhebrew
ENCODING 1511
SWIDTH 600 0
DWIDTH 18 0
BBX 14 20 2 -6
BITMAP
FFFC
FFFC
7FFC
001C
001C
001C
301C
701C
703C
7078
70F0
71E0
73C0
7180
7000
7000
7000
7000
7000
3000
ENDCHAR
STARTCHAR reshhebrew
ENCODING 1512
SWIDTH 600 0
DWIDTH 18 0
BBX 14 14 2 0
BITMAP
FFF0
FFF8
7FFC
001C
001C
001C
001C
001C
001C
001C
001C
001C
001C
000C
ENDCHAR
STARTCHAR shinhebrew
ENCODING 1513
SWIDTH 600 0
DWIDTH 18 0
BBX 15 14 2 0
BITMAP
F7DE
F7DE
E39E
E38E
E71C
E71C
E71C
E71C
E71C
E71C
E73C
FFF8
FFF8
FFE0
ENDCHAR
STARTCHAR tavhebrew
ENCODING 1514
SWIDTH 600 0
DWIDTH 18 0
BBX 15 14 1 0
BITMAP
7FF8
7FFC
3FFE
0E0E
0E0E
0E0E
0E0E
0E0E
0E0E
0E0E
0E0E
FC0E
FC0E
F806
ENDCHAR
STARTCHAR vavvavhebrew
ENCODING 1520
SWIDTH 600 0
DWIDTH 18 0
BBX 15 14 1 0
BITMAP
FEFE
FEFE
7E7E
0E0E
0E0E
0E0E
0E0E
0E0E
0E0E
0E0E
0E0E
0E0E
0E0E
0E0E
ENDCHAR
ENDFONT
